<svg xmlns="http://www.w3.org/2000/svg" version="1.1" viewBox="0 0 10.62342219645041 2.409581048527015">
    <g transform="matrix(1,0,0,1,2.2805695984617125,0.8990380242635075)">
        <g>
            <path d=" M 0.1372275 0.02166749999999995 C 0.1372275 0.011234999999999884 0.133215 0.0072224999999999095 0.12198 0.0072224999999999095 L 0.0585825 0.0072224999999999095 C 0.0489525 0.0072224999999999095 0.0441375 0.012037499999999923 0.0441375 0.02166749999999995 L 0.0441375 0.5970599999999999 C 0.0441375 0.60669 0.0489525 0.611505 0.0585825 0.611505 L 0.28408500000000003 0.611505 C 0.30013500000000004 0.611505 0.30495 0.6074925 0.309765 0.5962575 L 0.32501250000000004 0.5593425 C 0.3266175 0.5545275 0.32742000000000004 0.550515 0.32742000000000004 0.5481075 C 0.32742000000000004 0.5352675 0.3185925 0.5272425 0.30495 0.5272425 L 0.1452525 0.5272425 C 0.139635 0.5272425 0.1372275 0.5240324999999999 0.1372275 0.5160075 M 0.6259739025878905 0.3876075 C 0.6259739025878905 0.39161999999999997 0.6251714025878906 0.39322499999999994 0.6203564025878906 0.39322499999999994 L 0.4967714025878906 0.39322499999999994 C 0.4919564025878906 0.39322499999999994 0.4911539025878906 0.39161999999999997 0.4911539025878906 0.3876075 L 0.4911539025878906 0.17012999999999995 C 0.4911539025878906 0.13080749999999997 0.5136239025878906 0.08506499999999995 0.5585639025878906 0.08506499999999995 C 0.6035039025878906 0.08506499999999995 0.6259739025878905 0.13000499999999993 0.6259739025878905 0.17012999999999995 M 0.6259739025878905 0.5970599999999999 C 0.6259739025878905 0.60669 0.6307889025878906 0.611505 0.6404189025878906 0.611505 L 0.7038164025878906 0.611505 C 0.7150514025878907 0.611505 0.7190639025878907 0.6074925 0.7190639025878907 0.5970599999999999 L 0.7190639025878907 0.17414249999999992 C 0.7190639025878907 0.07543499999999992 0.6596789025878906 -1.1102230246251565e-16 0.5585639025878906 -1.1102230246251565e-16 C 0.4566464025878906 -1.1102230246251565e-16 0.3980639025878906 0.07703999999999989 0.3980639025878906 0.17414249999999992 L 0.3980639025878906 0.396435 C 0.39405140258789056 0.3988425 0.3788039025878906 0.40285499999999996 0.3788039025878906 0.41810249999999993 C 0.3788039025878906 0.4293374999999999 0.38602640258789056 0.44297999999999993 0.3924464025878906 0.45581999999999995 C 0.3948539025878906 0.46063499999999996 0.3980639025878906 0.4678574999999999 0.3980639025878906 0.47026499999999993 L 0.3980639025878906 0.5970599999999999 C 0.3980639025878906 0.60669 0.4028789025878906 0.611505 0.4125089025878906 0.611505 L 0.4759064025878906 0.611505 C 0.4871414025878906 0.611505 0.4911539025878906 0.6074925 0.4911539025878906 0.5970599999999999 L 0.4911539025878906 0.48310499999999995 C 0.4911539025878906 0.4790924999999999 0.4919564025878906 0.47748749999999995 0.4967714025878906 0.47748749999999995 L 0.6203564025878906 0.47748749999999995 C 0.6251714025878906 0.47748749999999995 0.6259739025878905 0.4790924999999999 0.6259739025878905 0.48310499999999995 M 1.1403352587890627 0.3635324999999999 C 1.1403352587890627 0.36032249999999993 1.1411377587890628 0.35630999999999996 1.1443477587890627 0.35470499999999994 L 1.1965102587890626 0.32661749999999995 C 1.2005227587890626 0.32420999999999994 1.2093502587890628 0.32019749999999997 1.2149677587890626 0.32019749999999997 C 1.2350302587890627 0.32019749999999997 1.3128727587890627 0.35871749999999997 1.3128727587890627 0.4261275 C 1.3128727587890627 0.49032749999999997 1.2671302587890627 0.5272425 1.2061402587890626 0.5272425 L 1.1483602587890627 0.5272425 C 1.1427427587890626 0.5272425 1.1403352587890627 0.5240324999999999 1.1403352587890627 0.5160075 M 1.1924977587890626 0.09228749999999997 C 1.2302152587890627 0.09228749999999997 1.2655252587890626 0.10111499999999995 1.2655252587890626 0.13883249999999991 C 1.2655252587890626 0.18858749999999996 1.1924977587890626 0.23914499999999994 1.1459527587890626 0.26161499999999993 C 1.1443477587890627 0.26241749999999997 1.1403352587890627 0.26241749999999997 1.1403352587890627 0.25840499999999994 L 1.1403352587890627 0.10352249999999996 C 1.1403352587890627 0.0954974999999999 1.1427427587890626 0.09228749999999997 1.1483602587890627 0.09228749999999997 M 1.0616902587890626 0.0072224999999999095 C 1.0520602587890626 0.0072224999999999095 1.0472452587890626 0.012037499999999923 1.0472452587890626 0.02166749999999995 L 1.0472452587890626 0.5970599999999999 C 1.0472452587890626 0.60669 1.0520602587890626 0.611505 1.0616902587890626 0.611505 L 1.2101527587890626 0.611505 C 1.3257127587890627 0.611505 1.4051602587890626 0.544095 1.4051602587890626 0.42291749999999995 C 1.4051602587890626 0.34828499999999996 1.3666402587890627 0.29852999999999996 1.3000327587890625 0.26402249999999994 C 1.3289227587890626 0.22951499999999997 1.3586152587890628 0.19259999999999994 1.3586152587890628 0.13722749999999995 C 1.3586152587890628 0.05376749999999997 1.2968227587890626 0.0072224999999999095 1.2133627587890627 0.0072224999999999095 M 1.7076957055664064 0.3876075 C 1.7076957055664064 0.39161999999999997 1.7068932055664066 0.39322499999999994 1.7020782055664063 0.39322499999999994 L 1.5784932055664065 0.39322499999999994 C 1.5736782055664065 0.39322499999999994 1.5728757055664064 0.39161999999999997 1.5728757055664064 0.3876075 L 1.5728757055664064 0.17012999999999995 C 1.5728757055664064 0.13080749999999997 1.5953457055664064 0.08506499999999995 1.6402857055664064 0.08506499999999995 C 1.6852257055664064 0.08506499999999995 1.7076957055664064 0.13000499999999993 1.7076957055664064 0.17012999999999995 M 1.7076957055664064 0.5970599999999999 C 1.7076957055664064 0.60669 1.7125107055664064 0.611505 1.7221407055664064 0.611505 L 1.7855382055664064 0.611505 C 1.7967732055664065 0.611505 1.8007857055664065 0.6074925 1.8007857055664065 0.5970599999999999 L 1.8007857055664065 0.17414249999999992 C 1.8007857055664065 0.07543499999999992 1.7414007055664065 -1.1102230246251565e-16 1.6402857055664064 -1.1102230246251565e-16 C 1.5383682055664065 -1.1102230246251565e-16 1.4797857055664063 0.07703999999999989 1.4797857055664063 0.17414249999999992 L 1.4797857055664063 0.396435 C 1.4757732055664063 0.3988425 1.4605257055664065 0.40285499999999996 1.4605257055664065 0.41810249999999993 C 1.4605257055664065 0.4293374999999999 1.4677482055664064 0.44297999999999993 1.4741682055664065 0.45581999999999995 C 1.4765757055664064 0.46063499999999996 1.4797857055664063 0.4678574999999999 1.4797857055664063 0.47026499999999993 L 1.4797857055664063 0.5970599999999999 C 1.4797857055664063 0.60669 1.4846007055664063 0.611505 1.4942307055664064 0.611505 L 1.5576282055664064 0.611505 C 1.5688632055664065 0.611505 1.5728757055664064 0.6074925 1.5728757055664064 0.5970599999999999 L 1.5728757055664064 0.48310499999999995 C 1.5728757055664064 0.4790924999999999 1.5736782055664065 0.47748749999999995 1.5784932055664065 0.47748749999999995 L 1.7020782055664063 0.47748749999999995 C 1.7068932055664066 0.47748749999999995 1.7076957055664064 0.4790924999999999 1.7076957055664064 0.48310499999999995 M 1.9082983703613283 0.5906399999999999 C 1.9082983703613283 0.60348 1.9171258703613283 0.611505 1.9307683703613283 0.611505 L 1.9781158703613284 0.611505 C 1.9957708703613284 0.611505 2.001388370361328 0.60027 2.001388370361328 0.5906399999999999 L 2.001388370361328 0.49032749999999997 C 2.001388370361328 0.48471 2.0037958703613286 0.4790924999999999 2.0086108703613283 0.4758825 L 2.0447233703613286 0.4485975 C 2.0471308703613285 0.44699249999999996 2.0527483703613285 0.44619 2.0559583703613282 0.4518074999999999 L 2.1338008703613283 0.595455 C 2.1402208703613286 0.6074925 2.1514558703613282 0.6107024999999999 2.1642958703613284 0.611505 L 2.2244833703613285 0.611505 C 2.2357183703613286 0.611505 2.2397308703613286 0.6074925 2.2397308703613286 0.5978625 C 2.2397308703613286 0.5898375 2.2341133703613285 0.5769974999999999 2.2268908703613284 0.5641575 L 2.1297883703613283 0.39563249999999994 C 2.128183370361328 0.39322499999999994 2.128183370361328 0.39081749999999993 2.1297883703613283 0.38921249999999996 C 2.1883708703613283 0.33303749999999993 2.2276933703613286 0.26321999999999995 2.2276933703613286 0.18136499999999994 C 2.2276933703613286 0.07864499999999996 2.163493370361328 0.0072224999999999095 2.0415133703613284 0.0072224999999999095 L 1.9307683703613283 0.0072224999999999095 C 1.9171258703613283 0.0072224999999999095 1.9082983703613283 0.016049999999999898 1.9082983703613283 0.02888999999999997 M 2.001388370361328 0.0954974999999999 C 2.001388370361328 0.08747249999999995 2.0037958703613286 0.0842624999999999 2.0094133703613286 0.0842624999999999 L 2.0495383703613284 0.0842624999999999 C 2.1025033703613283 0.0842624999999999 2.1346033703613285 0.13160999999999995 2.1346033703613285 0.18377249999999995 C 2.1346033703613285 0.27204749999999994 2.0479333703613283 0.33945749999999997 2.0142283703613284 0.36032249999999993 C 2.0118208703613285 0.36192749999999996 2.0094133703613286 0.36192749999999996 2.0078083703613285 0.36192749999999996 C 2.0037958703613286 0.36192749999999996 2.001388370361328 0.3579149999999999 2.001388370361328 0.35069249999999996 M 2.5470993420410157 0.3876075 C 2.5470993420410157 0.39161999999999997 2.546296842041016 0.39322499999999994 2.5414818420410157 0.39322499999999994 L 2.417896842041016 0.39322499999999994 C 2.4130818420410156 0.39322499999999994 2.412279342041016 0.39161999999999997 2.412279342041016 0.3876075 L 2.412279342041016 0.17012999999999995 C 2.412279342041016 0.13080749999999997 2.434749342041016 0.08506499999999995 2.479689342041016 0.08506499999999995 C 2.524629342041016 0.08506499999999995 2.5470993420410157 0.13000499999999993 2.5470993420410157 0.17012999999999995 M 2.5470993420410157 0.5970599999999999 C 2.5470993420410157 0.60669 2.551914342041016 0.611505 2.5615443420410156 0.611505 L 2.6249418420410158 0.611505 C 2.636176842041016 0.611505 2.640189342041016 0.6074925 2.640189342041016 0.5970599999999999 L 2.640189342041016 0.17414249999999992 C 2.640189342041016 0.07543499999999992 2.5808043420410156 -1.1102230246251565e-16 2.479689342041016 -1.1102230246251565e-16 C 2.3777718420410157 -1.1102230246251565e-16 2.3191893420410157 0.07703999999999989 2.3191893420410157 0.17414249999999992 L 2.3191893420410157 0.396435 C 2.3151768420410157 0.3988425 2.2999293420410156 0.40285499999999996 2.2999293420410156 0.41810249999999993 C 2.2999293420410156 0.4293374999999999 2.3071518420410158 0.44297999999999993 2.3135718420410156 0.45581999999999995 C 2.315979342041016 0.46063499999999996 2.3191893420410157 0.4678574999999999 2.3191893420410157 0.47026499999999993 L 2.3191893420410157 0.5970599999999999 C 2.3191893420410157 0.60669 2.324004342041016 0.611505 2.333634342041016 0.611505 L 2.3970318420410157 0.611505 C 2.408266842041016 0.611505 2.412279342041016 0.6074925 2.412279342041016 0.5970599999999999 L 2.412279342041016 0.48310499999999995 C 2.412279342041016 0.4790924999999999 2.4130818420410156 0.47748749999999995 2.417896842041016 0.47748749999999995 L 2.5414818420410157 0.47748749999999995 C 2.546296842041016 0.47748749999999995 2.5470993420410157 0.4790924999999999 2.5470993420410157 0.48310499999999995 M 3.091172006835938 0.322605 C 3.091172006835938 0.17654999999999993 3.055862006835938 -1.1102230246251565e-16 2.9090045068359376 -1.1102230246251565e-16 C 2.7629495068359375 -1.1102230246251565e-16 2.7276395068359376 0.17574749999999995 2.7276395068359376 0.322605 C 2.7276395068359376 0.4654499999999999 2.765357006835938 0.6219374999999999 2.900177006835938 0.6291599999999999 L 2.9322770068359376 0.6877424999999999 C 2.9378945068359377 0.6973725 2.944314506835938 0.7061999999999999 2.9571545068359377 0.7061999999999999 L 3.014934506835938 0.7061999999999999 C 3.026972006835938 0.7061999999999999 3.032589506835938 0.6957675 3.0253670068359377 0.6829274999999999 L 2.987649506835938 0.6090975 C 3.067899506835938 0.56175 3.091172006835938 0.43655999999999995 3.091172006835938 0.322605 M 2.9090045068359376 0.07222499999999998 C 2.991662006835938 0.07222499999999998 2.9980820068359377 0.23352749999999994 2.9980820068359377 0.31939499999999993 C 2.9980820068359377 0.40606499999999995 2.991662006835938 0.5497124999999999 2.9090045068359376 0.5497124999999999 C 2.8712870068359377 0.5497124999999999 2.8207295068359377 0.5256375 2.8207295068359377 0.31939499999999993 C 2.8207295068359377 0.23272499999999996 2.8271495068359376 0.07222499999999998 2.9090045068359376 0.07222499999999998 M 3.5172998986816406 0.02166749999999995 C 3.5172998986816406 0.011234999999999884 3.5132873986816406 0.0072224999999999095 3.5020523986816405 0.0072224999999999095 L 3.4386548986816408 0.0072224999999999095 C 3.4290248986816407 0.0072224999999999095 3.424209898681641 0.012037499999999923 3.424209898681641 0.02166749999999995 L 3.424209898681641 0.434955 C 3.424209898681641 0.48631499999999994 3.400937398681641 0.5336624999999999 3.347972398681641 0.5336624999999999 C 3.295809898681641 0.5336624999999999 3.2717348986816406 0.48631499999999994 3.2717348986816406 0.434955 L 3.2717348986816406 0.02166749999999995 C 3.2717348986816406 0.011234999999999884 3.2677223986816406 0.0072224999999999095 3.256487398681641 0.0072224999999999095 L 3.1930898986816407 0.0072224999999999095 C 3.1834598986816407 0.0072224999999999095 3.178644898681641 0.012037499999999923 3.178644898681641 0.02166749999999995 L 3.178644898681641 0.44779499999999994 C 3.178644898681641 0.5481075 3.2404373986816406 0.617925 3.347972398681641 0.617925 C 3.455507398681641 0.617925 3.5172998986816406 0.5481075 3.5172998986816406 0.44779499999999994 M 3.800568292236328 0.6187275 C 3.891250792236328 0.6187275 3.937795792236328 0.52323 3.937795792236328 0.49674749999999995 C 3.937795792236328 0.47668499999999997 3.898473292236328 0.45501749999999996 3.880818292236328 0.45501749999999996 C 3.868780792236328 0.45501749999999996 3.863965792236328 0.467055 3.855940792236328 0.48230249999999997 C 3.845508292236328 0.5047725 3.831865792236328 0.534465 3.802975792236328 0.534465 C 3.769270792236328 0.534465 3.726738292236328 0.505575 3.718713292236328 0.43334999999999996 C 3.717910792236328 0.4261275 3.718713292236328 0.42291749999999995 3.722725792236328 0.42291749999999995 L 3.8021732922363283 0.42291749999999995 C 3.8158157922363283 0.42291749999999995 3.8511257922363282 0.373965 3.8511257922363282 0.3579149999999999 C 3.8511257922363282 0.35309999999999997 3.849520792236328 0.33865499999999993 3.827853292236328 0.33865499999999993 L 3.718713292236328 0.33865499999999993 C 3.7122932922363283 0.33865499999999993 3.709083292236328 0.33544499999999994 3.709083292236328 0.3306299999999999 C 3.709083292236328 0.25198499999999996 3.725935792236328 0.0842624999999999 3.802975792236328 0.0842624999999999 C 3.8294582922363283 0.0842624999999999 3.843903292236328 0.11796749999999995 3.843903292236328 0.15488249999999992 C 3.843903292236328 0.16932749999999996 3.853533292236328 0.17574749999999995 3.863965792236328 0.17574749999999995 C 3.887238292236328 0.17574749999999995 3.931375792236328 0.14685749999999992 3.931375792236328 0.13000499999999993 C 3.931375792236328 0.06018749999999995 3.881620792236328 -1.1102230246251565e-16 3.809395792236328 -1.1102230246251565e-16 C 3.653710792236328 -1.1102230246251565e-16 3.615993292236328 0.18617999999999996 3.615993292236328 0.34106249999999994 C 3.615993292236328 0.34507499999999997 3.615190792236328 0.34587749999999995 3.614388292236328 0.34667999999999993 C 3.606363292236328 0.35149499999999995 3.596733292236328 0.3579149999999999 3.596733292236328 0.3715575 C 3.596733292236328 0.39001499999999995 3.613585792236328 0.40445999999999993 3.623215792236328 0.42050999999999994 C 3.640870792236328 0.5288474999999999 3.6930332922363283 0.6187275 3.800568292236328 0.6187275 M 4.263616669921875 0.09228749999999997 C 4.273246669921875 0.09228749999999997 4.2780616699218745 0.08747249999999995 4.2780616699218745 0.07784249999999993 L 4.2780616699218745 0.02246999999999988 C 4.2780616699218745 0.011234999999999884 4.274049169921875 0.0072224999999999095 4.263616669921875 0.0072224999999999095 L 3.991569169921875 0.0072224999999999095 C 3.9811366699218746 0.0072224999999999095 3.9771241699218747 0.011234999999999884 3.9771241699218747 0.02246999999999988 L 3.9771241699218747 0.07784249999999993 C 3.9771241699218747 0.08747249999999995 3.981939169921875 0.09228749999999997 3.991569169921875 0.09228749999999997 L 4.072621669921875 0.09228749999999997 C 4.078239169921875 0.09228749999999997 4.080646669921875 0.0954974999999999 4.080646669921875 0.10352249999999996 L 4.080646669921875 0.5906399999999999 C 4.080646669921875 0.60348 4.089474169921875 0.611505 4.103116669921874 0.611505 L 4.151266669921875 0.611505 C 4.1689216699218745 0.611505 4.174539169921875 0.60027 4.174539169921875 0.5906399999999999 L 4.174539169921875 0.10352249999999996 C 4.174539169921875 0.0954974999999999 4.1769466699218745 0.09228749999999997 4.182564169921875 0.09228749999999997 M 4.623145682373047 0.09228749999999997 C 4.632775682373047 0.09228749999999997 4.637590682373046 0.08747249999999995 4.637590682373046 0.07784249999999993 L 4.637590682373046 0.02246999999999988 C 4.637590682373046 0.011234999999999884 4.633578182373046 0.0072224999999999095 4.623145682373047 0.0072224999999999095 L 4.351098182373047 0.0072224999999999095 C 4.3406656823730465 0.0072224999999999095 4.3366531823730465 0.011234999999999884 4.3366531823730465 0.02246999999999988 L 4.3366531823730465 0.07784249999999993 C 4.3366531823730465 0.08747249999999995 4.341468182373046 0.09228749999999997 4.351098182373047 0.09228749999999997 L 4.432150682373047 0.09228749999999997 C 4.437768182373047 0.09228749999999997 4.440175682373047 0.0954974999999999 4.440175682373047 0.10352249999999996 L 4.440175682373047 0.5906399999999999 C 4.440175682373047 0.60348 4.449003182373047 0.611505 4.462645682373046 0.611505 L 4.510795682373047 0.611505 C 4.528450682373046 0.611505 4.534068182373047 0.60027 4.534068182373047 0.5906399999999999 L 4.534068182373047 0.10352249999999996 C 4.534068182373047 0.0954974999999999 4.536475682373046 0.09228749999999997 4.542093182373047 0.09228749999999997 M 4.8558894909667965 0.6187275 C 4.946571990966797 0.6187275 4.993116990966797 0.52323 4.993116990966797 0.49674749999999995 C 4.993116990966797 0.47668499999999997 4.953794490966796 0.45501749999999996 4.936139490966797 0.45501749999999996 C 4.924101990966797 0.45501749999999996 4.919286990966797 0.467055 4.911261990966797 0.48230249999999997 C 4.900829490966797 0.5047725 4.887186990966796 0.534465 4.858296990966797 0.534465 C 4.8245919909667965 0.534465 4.782059490966796 0.505575 4.774034490966796 0.43334999999999996 C 4.773231990966797 0.4261275 4.774034490966796 0.42291749999999995 4.778046990966796 0.42291749999999995 L 4.857494490966797 0.42291749999999995 C 4.8711369909667965 0.42291749999999995 4.9064469909667965 0.373965 4.9064469909667965 0.3579149999999999 C 4.9064469909667965 0.35309999999999997 4.904841990966797 0.33865499999999993 4.8831744909667965 0.33865499999999993 L 4.774034490966796 0.33865499999999993 C 4.767614490966797 0.33865499999999993 4.764404490966797 0.33544499999999994 4.764404490966797 0.3306299999999999 C 4.764404490966797 0.25198499999999996 4.781256990966797 0.0842624999999999 4.858296990966797 0.0842624999999999 C 4.884779490966797 0.0842624999999999 4.899224490966796 0.11796749999999995 4.899224490966796 0.15488249999999992 C 4.899224490966796 0.16932749999999996 4.908854490966797 0.17574749999999995 4.919286990966797 0.17574749999999995 C 4.942559490966797 0.17574749999999995 4.986696990966797 0.14685749999999992 4.986696990966797 0.13000499999999993 C 4.986696990966797 0.06018749999999995 4.936941990966797 -1.1102230246251565e-16 4.864716990966797 -1.1102230246251565e-16 C 4.709031990966797 -1.1102230246251565e-16 4.671314490966797 0.18617999999999996 4.671314490966797 0.34106249999999994 C 4.671314490966797 0.34507499999999997 4.670511990966797 0.34587749999999995 4.669709490966797 0.34667999999999993 C 4.661684490966797 0.35149499999999995 4.652054490966797 0.3579149999999999 4.652054490966797 0.3715575 C 4.652054490966797 0.39001499999999995 4.668906990966796 0.40445999999999993 4.678536990966797 0.42050999999999994 C 4.696191990966796 0.5288474999999999 4.748354490966797 0.6187275 4.8558894909667965 0.6187275 M 5.375109733886719 0.611505 C 5.549252233886719 0.611505 5.639132233886719 0.47186999999999996 5.639132233886719 0.30655499999999997 C 5.639132233886719 0.13642499999999996 5.552462233886719 0.0072224999999999095 5.385542233886719 0.0072224999999999095 L 5.315724733886719 0.0072224999999999095 C 5.302082233886719 0.0072224999999999095 5.293254733886719 0.016049999999999898 5.293254733886719 0.02888999999999997 L 5.293254733886719 0.5906399999999999 C 5.293254733886719 0.60348 5.302082233886719 0.611505 5.315724733886719 0.611505 M 5.394369733886719 0.5272425 C 5.388752233886719 0.5272425 5.386344733886719 0.5240324999999999 5.386344733886719 0.5160075 L 5.386344733886719 0.10271999999999992 C 5.386344733886719 0.09469499999999997 5.388752233886719 0.09148499999999993 5.394369733886719 0.09148499999999993 C 5.464187233886719 0.09228749999999997 5.546042233886719 0.17253749999999995 5.546042233886719 0.30655499999999997 C 5.546042233886719 0.4132874999999999 5.503509733886719 0.52644 5.394369733886719 0.5272425 M 5.902345180664062 0.6187275 C 5.9930276806640626 0.6187275 6.039572680664063 0.52323 6.039572680664063 0.49674749999999995 C 6.039572680664063 0.47668499999999997 6.000250180664063 0.45501749999999996 5.982595180664062 0.45501749999999996 C 5.970557680664062 0.45501749999999996 5.9657426806640625 0.467055 5.957717680664063 0.48230249999999997 C 5.947285180664062 0.5047725 5.933642680664062 0.534465 5.904752680664062 0.534465 C 5.871047680664062 0.534465 5.828515180664062 0.505575 5.820490180664062 0.43334999999999996 C 5.819687680664062 0.4261275 5.820490180664062 0.42291749999999995 5.824502680664062 0.42291749999999995 L 5.903950180664062 0.42291749999999995 C 5.917592680664062 0.42291749999999995 5.952902680664062 0.373965 5.952902680664062 0.3579149999999999 C 5.952902680664062 0.35309999999999997 5.951297680664062 0.33865499999999993 5.929630180664062 0.33865499999999993 L 5.820490180664062 0.33865499999999993 C 5.8140701806640624 0.33865499999999993 5.810860180664062 0.33544499999999994 5.810860180664062 0.3306299999999999 C 5.810860180664062 0.25198499999999996 5.827712680664062 0.0842624999999999 5.904752680664062 0.0842624999999999 C 5.931235180664062 0.0842624999999999 5.945680180664063 0.11796749999999995 5.945680180664063 0.15488249999999992 C 5.945680180664063 0.16932749999999996 5.955310180664062 0.17574749999999995 5.9657426806640625 0.17574749999999995 C 5.989015180664063 0.17574749999999995 6.033152680664062 0.14685749999999992 6.033152680664062 0.13000499999999993 C 6.033152680664062 0.06018749999999995 5.983397680664062 -1.1102230246251565e-16 5.9111726806640625 -1.1102230246251565e-16 C 5.7554876806640625 -1.1102230246251565e-16 5.717770180664062 0.18617999999999996 5.717770180664062 0.34106249999999994 C 5.717770180664062 0.34507499999999997 5.716967680664062 0.34587749999999995 5.7161651806640625 0.34667999999999993 C 5.708140180664063 0.35149499999999995 5.698510180664062 0.3579149999999999 5.698510180664062 0.3715575 C 5.698510180664062 0.39001499999999995 5.715362680664062 0.40445999999999993 5.724992680664062 0.42050999999999994 C 5.742647680664062 0.5288474999999999 5.794810180664062 0.6187275 5.902345180664062 0.6187275 M 6.602127923583985 0.09228749999999997 C 6.611757923583984 0.09228749999999997 6.616572923583984 0.08747249999999995 6.616572923583984 0.07784249999999993 L 6.616572923583984 0.02246999999999988 C 6.616572923583984 0.011234999999999884 6.612560423583984 0.0072224999999999095 6.602127923583985 0.0072224999999999095 L 6.3300804235839845 0.0072224999999999095 C 6.319647923583984 0.0072224999999999095 6.315635423583984 0.011234999999999884 6.315635423583984 0.02246999999999988 L 6.315635423583984 0.07784249999999993 C 6.315635423583984 0.08747249999999995 6.320450423583984 0.09228749999999997 6.3300804235839845 0.09228749999999997 L 6.411132923583985 0.09228749999999997 C 6.416750423583984 0.09228749999999997 6.419157923583985 0.0954974999999999 6.419157923583985 0.10352249999999996 L 6.419157923583985 0.5906399999999999 C 6.419157923583985 0.60348 6.427985423583984 0.611505 6.441627923583984 0.611505 L 6.4897779235839845 0.611505 C 6.507432923583984 0.611505 6.513050423583985 0.60027 6.513050423583985 0.5906399999999999 L 6.513050423583985 0.10352249999999996 C 6.513050423583985 0.0954974999999999 6.515457923583984 0.09228749999999997 6.5210754235839845 0.09228749999999997 M 6.933569436035156 0.5970599999999999 C 6.933569436035156 0.60669 6.9383844360351565 0.611505 6.948014436035156 0.611505 L 7.011411936035156 0.611505 C 7.022646936035156 0.611505 7.026659436035156 0.6074925 7.026659436035156 0.5970599999999999 L 7.026659436035156 0.02166749999999995 C 7.026659436035156 0.011234999999999884 7.022646936035156 0.0072224999999999095 7.011411936035156 0.0072224999999999095 L 6.948014436035156 0.0072224999999999095 C 6.9383844360351565 0.0072224999999999095 6.933569436035156 0.012037499999999923 6.933569436035156 0.02166749999999995 L 6.933569436035156 0.38118749999999996 C 6.933569436035156 0.38921249999999996 6.931161936035156 0.39242249999999995 6.925544436035156 0.39242249999999995 L 6.800354436035156 0.39242249999999995 C 6.794736936035156 0.39242249999999995 6.792329436035156 0.38921249999999996 6.792329436035156 0.38118749999999996 L 6.792329436035156 0.02166749999999995 C 6.792329436035156 0.011234999999999884 6.788316936035156 0.0072224999999999095 6.777081936035156 0.0072224999999999095 L 6.713684436035156 0.0072224999999999095 C 6.704054436035157 0.0072224999999999095 6.699239436035156 0.012037499999999923 6.699239436035156 0.02166749999999995 L 6.699239436035156 0.39563249999999994 C 6.695226936035156 0.3988425 6.679979436035156 0.4020524999999999 6.679979436035156 0.41729999999999995 C 6.679979436035156 0.43415249999999994 6.697634436035156 0.46143749999999994 6.699239436035156 0.46946249999999995 L 6.699239436035156 0.5970599999999999 C 6.699239436035156 0.60669 6.704054436035157 0.611505 6.713684436035156 0.611505 L 6.777081936035156 0.611505 C 6.788316936035156 0.611505 6.792329436035156 0.6074925 6.792329436035156 0.5970599999999999 L 6.792329436035156 0.48791999999999996 C 6.792329436035156 0.47989499999999996 6.794736936035156 0.47668499999999997 6.800354436035156 0.47668499999999997 L 6.925544436035156 0.47668499999999997 C 6.931161936035156 0.47668499999999997 6.933569436035156 0.47989499999999996 6.933569436035156 0.48791999999999996 M 7.361306246337891 0.3876075 C 7.361306246337891 0.39161999999999997 7.360503746337891 0.39322499999999994 7.355688746337891 0.39322499999999994 L 7.2321037463378905 0.39322499999999994 C 7.227288746337891 0.39322499999999994 7.226486246337891 0.39161999999999997 7.226486246337891 0.3876075 L 7.226486246337891 0.17012999999999995 C 7.226486246337891 0.13080749999999997 7.248956246337891 0.08506499999999995 7.293896246337891 0.08506499999999995 C 7.338836246337891 0.08506499999999995 7.361306246337891 0.13000499999999993 7.361306246337891 0.17012999999999995 M 7.361306246337891 0.5970599999999999 C 7.361306246337891 0.60669 7.366121246337891 0.611505 7.375751246337891 0.611505 L 7.4391487463378905 0.611505 C 7.450383746337891 0.611505 7.4543962463378906 0.6074925 7.4543962463378906 0.5970599999999999 L 7.4543962463378906 0.17414249999999992 C 7.4543962463378906 0.07543499999999992 7.395011246337891 -1.1102230246251565e-16 7.293896246337891 -1.1102230246251565e-16 C 7.191978746337891 -1.1102230246251565e-16 7.133396246337891 0.07703999999999989 7.133396246337891 0.17414249999999992 L 7.133396246337891 0.396435 C 7.129383746337891 0.3988425 7.114136246337891 0.40285499999999996 7.114136246337891 0.41810249999999993 C 7.114136246337891 0.4293374999999999 7.121358746337891 0.44297999999999993 7.127778746337891 0.45581999999999995 C 7.130186246337891 0.46063499999999996 7.133396246337891 0.4678574999999999 7.133396246337891 0.47026499999999993 L 7.133396246337891 0.5970599999999999 C 7.133396246337891 0.60669 7.138211246337891 0.611505 7.147841246337891 0.611505 L 7.211238746337891 0.611505 C 7.222473746337891 0.611505 7.226486246337891 0.6074925 7.226486246337891 0.5970599999999999 L 7.226486246337891 0.48310499999999995 C 7.226486246337891 0.4790924999999999 7.227288746337891 0.47748749999999995 7.2321037463378905 0.47748749999999995 L 7.355688746337891 0.47748749999999995 C 7.360503746337891 0.47748749999999995 7.361306246337891 0.4790924999999999 7.361306246337891 0.48310499999999995 M 7.900563911132813 0.02166749999999995 C 7.900563911132813 0.011234999999999884 7.896551411132813 0.0072224999999999095 7.885316411132813 0.0072224999999999095 L 7.821918911132813 0.0072224999999999095 C 7.812288911132813 0.0072224999999999095 7.807473911132813 0.012037499999999923 7.807473911132813 0.02166749999999995 L 7.807473911132813 0.434955 C 7.807473911132813 0.48631499999999994 7.784201411132813 0.5336624999999999 7.731236411132813 0.5336624999999999 C 7.679073911132813 0.5336624999999999 7.654998911132813 0.48631499999999994 7.654998911132813 0.434955 L 7.654998911132813 0.02166749999999995 C 7.654998911132813 0.011234999999999884 7.650986411132813 0.0072224999999999095 7.639751411132813 0.0072224999999999095 L 7.576353911132813 0.0072224999999999095 C 7.566723911132813 0.0072224999999999095 7.561908911132813 0.012037499999999923 7.561908911132813 0.02166749999999995 L 7.561908911132813 0.44779499999999994 C 7.561908911132813 0.5481075 7.623701411132813 0.617925 7.731236411132813 0.617925 C 7.838771411132813 0.617925 7.900563911132813 0.5481075 7.900563911132813 0.44779499999999994"
                  fill="#FFFFFF" fill-rule="nonzero" />
        </g>
        <g clip-path="url(#SvgjsClipPath1001)">
            <g clip-path="url(#ae6f05735-219c-40a3-94a9-8690a8f805718f83d05c-b0b2-49a3-83f9-e90c34db5109)">
                <path d=" M -0.4715449246004817 0.30581713091707174 C -0.4715449246004817 -0.04296196326276208 -0.7713775886574172 -0.3256920004200298 -1.1411950606970933 -0.3256920004200298 C -1.5110840918451365 -0.3256920004200298 -1.8108451967937051 -0.042961963262762026 -1.8108451967937051 0.30581713091707174 C -1.8108451967937051 0.6545962250969056 -1.5110840918451365 0.9373262622541735 -1.1411950606970933 0.9373262622541735 C -0.7713775886574172 0.9373262622541735 -0.4715449246004817 0.6545962250969056 -0.4715449246004817 0.30581713091707174 M -0.6052173390296836 0.30581713091707174 C -0.6052173390296836 0.584969212655999 -0.8452265884919656 0.8112391133118536 -1.1411950606970933 0.8112391133118536 C -1.437235092010588 0.8112391133118536 -1.6771727823645033 0.584969212655999 -1.6771727823645033 0.30581713091707174 C -1.6771727823645033 0.026665049178144495 -1.4372350920105879 -0.19960485147771 -1.1411950606970933 -0.19960485147771 C -0.8452265884919656 -0.19960485147771 -0.6052173390296836 0.026665049178144495 -0.6052173390296836 0.30581713091707174"
                      fill="#dead73" transform="matrix(1,0,0,1,0,0)" fill-rule="nonzero" />
            </g>
            <g clip-path="url(#ae6f05735-219c-40a3-94a9-8690a8f805718f83d05c-b0b2-49a3-83f9-e90c34db5109)">
                <path d=" M -1.0126033429619352 0.30581713091707174 C -1.0126033429619352 0.2388378054857373 -1.0702084251972175 0.18452444223532816 -1.1411950606970933 0.18452444223532816 C -1.2121816961969694 0.18452444223532816 -1.2697867784322516 0.2388378054857373 -1.2697867784322516 0.30581713091707174 C -1.2697867784322516 0.3727964563484063 -1.2121816961969694 0.42710981959881544 -1.1411950606970933 0.42710981959881544 C -1.0702084251972175 0.42710981959881544 -1.0126033429619352 0.3727964563484063 -1.0126033429619352 0.30581713091707174 M -1.0848780424124138 0.30581713091707174 C -1.0848780424124138 0.33515636534746407 -1.1100668485575311 0.3589139893252451 -1.1411950606970933 0.3589139893252451 C -1.172323272836656 0.3589139893252451 -1.1975120789817733 0.33515636534746407 -1.1975120789817733 0.30581713091707174 C -1.1975120789817733 0.27647789648667953 -1.172323272836656 0.2527202725088984 -1.1411950606970933 0.2527202725088984 C -1.1100668485575311 0.2527202725088984 -1.0848780424124138 0.27647789648667953 -1.0848780424124138 0.30581713091707174"
                      fill="#dead73" transform="matrix(1,0,0,1,0,0)" fill-rule="nonzero" />
            </g>
            <g clip-path="url(#ae6f05735-219c-40a3-94a9-8690a8f805718f83d05c-b0b2-49a3-83f9-e90c34db5109)">
                <path d=" M -1.1006926053614787 0.09629206161905102 C -1.1121420627001681 0.084627926955261 -1.104270560779819 0.07031610528189891 -1.104270560779819 0.07031610528189891 L -1.104342119888186 0.07024454617353204 C -1.0962559406427363 0.06194368960298202 -1.0911036848403262 0.05092358691449328 -1.0911036848403262 0.03868697938376864 C -1.0912127250809274 0.027071120974993312 -1.095801336645588 0.015945660533302486 -1.1039127652379854 0.007630326352572658 L -1.1038412061296183 0.007630326352572658 C -1.1075892942613317 0.003797797631183264 -1.1099125509297585 -0.0012022547639090053 -1.110424644099365 -0.006538377104055471 L -1.1104962032077317 -0.006538377104055471 L -1.1104962032077317 -0.07616538954496199 L -1.110424644099365 -0.07638006687006238 C -1.1097090530156968 -0.0831066230565426 -1.102052228420448 -0.08282038662307534 -1.102052228420448 -0.08282038662307534 L -1.0992614231941424 -0.08282038662307534 C -1.0992614231941424 -0.08282038662307534 -1.0814432052108067 -0.08282038662307534 -1.0814432052108067 -0.09949365887254213 L -1.0814432052108067 -0.35195419319064924 C -1.0814432052108067 -0.35195419319064924 -1.0814432052108067 -0.368627465440116 -1.0992614231941424 -0.368627465440116 L -1.1023384648539154 -0.368627465440116 C -1.1023384648539154 -0.368627465440116 -1.1104962032077317 -0.36884214276521643 -1.1104962032077317 -0.37556869895169664 L -1.1104962032077317 -0.3970364314617397 L -1.110424644099365 -0.3970364314617397 C -1.110424644099365 -0.3970364314617397 -1.110782439641199 -0.4039061058649535 -1.1046999154300199 -0.4089868025589971 L -1.1046999154300199 -0.4093445981008311 C -1.0926853099522549 -0.41886535275633335 -1.0856116977910295 -0.43330183259467037 -1.085450515279348 -0.44863054859421003 C -1.085450515279348 -0.4774688692660346 -1.110424644099365 -0.5008686977019816 -1.1411950606970933 -0.5008686977019816 C -1.1719654772948218 -0.5008686977019816 -1.1969396061148387 -0.4774688692660346 -1.1969396061148387 -0.44863054859421 C -1.1969396061148387 -0.4328875447535117 -1.1893543406279568 -0.41893351862198364 -1.1776186468557999 -0.40934459810083107 L -1.1776902059641667 -0.408986802558997 C -1.174219440137609 -0.40610522762128926 -1.1721167186406865 -0.4018997846274447 -1.171893918186455 -0.39739422700357374 L -1.171893918186455 -0.37535402162659615 C -1.1721085955115553 -0.3689137018735832 -1.1800516565402714 -0.36862746544011593 -1.1800516565402714 -0.36862746544011593 L -1.1831286982000444 -0.36862746544011593 C -1.1831286982000444 -0.36862746544011593 -1.2009469161833801 -0.36862746544011593 -1.2009469161833801 -0.35195419319064913 L -1.2009469161833801 -0.09949365887254219 C -1.2009469161833801 -0.09949365887254219 -1.2009469161833801 -0.08282038662307539 -1.1831286982000444 -0.08282038662307539 L -1.1803378929737387 -0.08282038662307539 C -1.1803378929737387 -0.08282038662307539 -1.172609509270123 -0.0831066230565426 -1.1718939181864552 -0.07638006687006244 L -1.1718939181864552 -0.006538377104055471 C -1.1718939181864552 -0.006538377104055471 -1.172323272836656 0.0014046839246604215 -1.1785489152645683 0.007630326352572991 L -1.1784773561562016 0.007630326352572991 C -1.186588784748599 0.01594566053330293 -1.1911773963132595 0.027071120974993756 -1.1912864365538605 0.03868697938376864 C -1.1912864365538605 0.05092358691449328 -1.1862057398598171 0.06194368960298202 -1.1780480015060006 0.07024454617353204 L -1.1781195606143675 0.07031610528189891 C -1.1781195606143675 0.07031610528189891 -1.1702480586940185 0.08462792695526089 -1.181697516032708 0.09629206161905102 L -1.1831286982000444 0.09629206161905102 C -1.1831286982000444 0.09629206161905102 -1.2009469161833801 0.09629206161905102 -1.2009469161833801 0.11296533386851781 L -1.2009469161833801 0.21078663500594774 C -1.2009469161833801 0.21078663500594774 -1.2009469161833801 0.22745990725541454 -1.1831286982000444 0.22745990725541454 L -1.0992614231941424 0.22745990725541454 C -1.0992614231941424 0.22745990725541454 -1.0814432052108067 0.22745990725541454 -1.0814432052108067 0.21078663500594774 L -1.0814432052108067 0.11296533386851781 C -1.0814432052108067 0.11296533386851781 -1.0814432052108067 0.09629206161905102 -1.0992614231941424 0.09629206161905102 Z"
                      fill="#dead73" transform="matrix(1,0,0,1,0,0)" fill-rule="nonzero" />
            </g>
            <g clip-path="url(#ae6f05735-219c-40a3-94a9-8690a8f805718f83d05c-b0b2-49a3-83f9-e90c34db5109)">
                <path d=" M -1.181697516032708 0.5152706411067257 C -1.1702480586940185 0.526934775770516 -1.1781195606143675 0.5412465974438779 -1.1781195606143675 0.5412465974438779 L -1.1780480015060006 0.5413181565522448 C -1.1864305129252664 0.5496928799649573 -1.191185189235266 0.5610270002498757 -1.1912864365538605 0.5728757233420082 C -1.1911773963132593 0.5844915817507835 -1.1865887847485985 0.5956170421924744 -1.1784773561562012 0.6039323763732042 L -1.1785489152645683 0.6039323763732042 C -1.174800827132855 0.6077649050945936 -1.1724775704644284 0.6127649574896857 -1.1719654772948218 0.6181010798298322 L -1.1718939181864552 0.6181010798298322 L -1.1718939181864552 0.6877280922707386 L -1.1719654772948218 0.6879427695958394 C -1.1726810683784898 0.6946693257823194 -1.1803378929737387 0.6943830893488522 -1.1803378929737387 0.6943830893488522 L -1.1831286982000444 0.6943830893488522 C -1.1831286982000444 0.6943830893488522 -1.2009469161833801 0.6943830893488522 -1.2009469161833801 0.7110563615983189 L -1.2009469161833801 0.9635168959164261 C -1.2009469161833801 0.9635168959164261 -1.2009469161833801 0.9801901681658928 -1.1831286982000444 0.9801901681658928 L -1.1800516565402714 0.9801901681658928 C -1.1800516565402714 0.9801901681658928 -1.1718939181864552 0.9804048454909932 -1.1718939181864552 0.9870598425691067 L -1.1718939181864552 1.008599134187517 L -1.1719654772948218 1.008599134187517 C -1.1719654772948218 1.008599134187517 -1.1716076817529877 1.0154688085907302 -1.1776902059641667 1.020549505284774 L -1.1776902059641667 1.0209073008266079 C -1.189704811441932 1.0304280554821101 -1.1967784236031571 1.044864535320447 -1.1969396061148387 1.060193251319987 C -1.1969396061148387 1.0890315719918116 -1.1719654772948218 1.1124314004277585 -1.1411950606970933 1.1124314004277585 C -1.110424644099365 1.1124314004277585 -1.085450515279348 1.0890315719918116 -1.085450515279348 1.060193251319987 C -1.0856116977910295 1.0448645353204475 -1.0926853099522547 1.0304280554821106 -1.1046999154300199 1.0209073008266079 L -1.1046999154300199 1.020549505284774 C -1.108170681256578 1.0176679303470664 -1.1102734027535002 1.0134624873532214 -1.1104962032077317 1.0089569297293508 L -1.1104962032077317 0.986916724352373 C -1.1102815258826313 0.9804764045993598 -1.1023384648539154 0.9801901681658928 -1.1023384648539154 0.9801901681658928 L -1.0992614231941424 0.9801901681658928 C -1.0992614231941424 0.9801901681658928 -1.0814432052108067 0.9801901681658928 -1.0814432052108067 0.9635168959164261 L -1.0814432052108067 0.7110563615983189 C -1.0814432052108067 0.7110563615983189 -1.0814432052108067 0.6943830893488522 -1.0992614231941424 0.6943830893488522 L -1.102052228420448 0.6943830893488522 C -1.102052228420448 0.6943830893488522 -1.1097806121240636 0.6946693257823194 -1.1104962032077317 0.687942769595839 L -1.1104962032077317 0.6181010798298322 C -1.1104962032077317 0.6181010798298322 -1.1100668485575307 0.6101580188011163 -1.1038412061296183 0.6039323763732037 L -1.1039127652379852 0.6039323763732037 C -1.0958013366455877 0.5956170421924739 -1.0912127250809274 0.5844915817507831 -1.0911036848403262 0.572875723342008 C -1.0911739983321636 0.5610206580998179 -1.0959334081070335 0.5496752542581004 -1.104342119888186 0.5413181565522446 L -1.104270560779819 0.5412465974438779 C -1.104270560779819 0.5412465974438779 -1.1121420627001681 0.5269347757705157 -1.1006926053614787 0.5152706411067257 L -1.0992614231941424 0.5152706411067257 C -1.0992614231941424 0.5152706411067257 -1.0814432052108067 0.5152706411067257 -1.0814432052108067 0.4985973688572588 L -1.0814432052108067 0.4007760677198291 C -1.0814432052108067 0.4007760677198291 -1.0814432052108067 0.3841027954703623 -1.0992614231941424 0.3841027954703623 L -1.1831286982000444 0.3841027954703623 C -1.1831286982000444 0.3841027954703623 -1.2009469161833801 0.3841027954703623 -1.2009469161833801 0.4007760677198291 L -1.2009469161833801 0.4985973688572589 C -1.2009469161833801 0.4985973688572589 -1.2009469161833801 0.5152706411067257 -1.1831286982000444 0.5152706411067257 Z"
                      fill="#dead73" transform="matrix(1,0,0,1,0,0)" fill-rule="nonzero" />
            </g>
            <g clip-path="url(#ae6f05735-219c-40a3-94a9-8690a8f805718f83d05c-b0b2-49a3-83f9-e90c34db5109)">
                <path d=" M -1.310790147526434 0.16513192386792264 C -1.3272487424508004 0.16835208374442912 -1.3362651901050184 0.15461273493800143 -1.3362651901050184 0.15461273493800143 L -1.3363367492133853 0.1546842940463683 C -1.339893032221159 0.14322741472428524 -1.34773825119597 0.13358753781405996 -1.3582338363736293 0.12777806930044766 C -1.368785209081118 0.12181770480590515 -1.3811155843742768 0.11981338454220247 -1.3930115630398991 0.1221248997394695 L -1.3929400039315323 0.12198178152273598 C -1.4018848924773835 0.12384231834027304 -1.409255480639165 0.12004968559683205 -1.409255480639165 0.12004968559683205 L -1.4725852915437923 0.08419857230506 L -1.4727999688688926 0.08405545408832649 C -1.4785246975382376 0.0800481440197851 -1.4743027101445958 0.07396561980860616 -1.4743027101445958 0.07396561980860616 L -1.4728715279772595 0.07167572834086822 C -1.4728715279772595 0.07167572834086822 -1.463711962106308 0.05729234755913937 -1.4788824930800717 0.04870525455512209 L -1.7083009945040657 -0.08124608623900559 C -1.7083009945040657 -0.08124608623900559 -1.7234715254778294 -0.08983317924302281 -1.7326310913487812 -0.07544979846129396 L -1.734205391732851 -0.07301678877682233 C -1.734205391732851 -0.07301678877682233 -1.7386420564515932 -0.06650490991544267 -1.7446530215544054 -0.06993974711704953 L -1.7642602172469113 -0.08103140891390515 L -1.7642602172469113 -0.0811029680222719 C -1.7642602172469113 -0.0811029680222719 -1.7706289778915576 -0.08432312789877838 -1.7721317191672605 -0.09190839338566031 L -1.7724895147090947 -0.09205151160239389 C -1.7753041503077425 -0.10720564934666543 -1.7847200492719446 -0.12031971475641778 -1.7981792346127796 -0.12783106578579911 C -1.8244157485665362 -0.14271443729742894 -1.8576944744235306 -0.1347775392996105 -1.8743896850234325 -0.10965505226062927 C -1.881984853717514 -0.09775619107486 -1.88427929588578 -0.08323096084552595 -1.8807215646770197 -0.06957035933402672 C -1.8771638334682594 -0.05590975782252744 -1.8680756238687326 -0.04434899554862265 -1.8556411986313281 -0.03766658924361804 C -1.84173074544238 -0.029912205348402776 -1.8252330796224077 -0.028254669065077453 -1.81005804660167 -0.03308680630814215 L -1.809700251059836 -0.032872128983041704 C -1.805218457238112 -0.03420293222819687 -1.800394989513206 -0.03374111085028031 -1.7962471386868755 -0.03158406503243916 L -1.776139029235802 -0.020206166802116288 C -1.770414300566457 -0.016699770492142607 -1.774206933309898 -0.01018789163076278 -1.774206933309898 -0.01018789163076278 L -1.7758527928023347 -0.0076833228379244445 C -1.7758527928023347 -0.0076833228379244445 -1.7850123586732864 0.0067000579438044605 -1.7698418276995225 0.015287150947821626 L -1.5404233262755285 0.14531005085031612 C -1.5404233262755285 0.14531005085031612 -1.5252527953017647 0.1538971438543334 -1.516093229430813 0.13951376307260455 L -1.5146620472634766 0.1372238716048666 C -1.5146620472634766 0.1372238716048666 -1.5108694145200359 0.13092667006858727 -1.504429094767023 0.13378903440325962 L -1.440956165645662 0.1697832659117653 C -1.440956165645662 0.1697832659117653 -1.4339433730257147 0.1741483715221408 -1.4314388042328763 0.1824492280926907 L -1.4314388042328763 0.18237766898432395 C -1.4277505327238411 0.19355364578908374 -1.4200166482931147 0.20294661433861294 -1.4097563943977327 0.20871142086331018 C -1.398965034118588 0.21473389686978128 -1.3863724105207327 0.2166888001299322 -1.3742630766477948 0.2142214722075545 L -1.3742630766477948 0.21436459042428813 C -1.3742630766477948 0.21436459042428813 -1.357232008856494 0.21536641794142342 -1.3525091077042846 0.23060850802355415 L -1.3532246987879526 0.23175345375742318 C -1.3532246987879526 0.23175345375742318 -1.362455823767271 0.24613683453915203 -1.3472852927935073 0.2547239275431692 L -1.258337321093562 0.3051015398334037 C -1.258337321093562 0.3051015398334037 -1.243238349228165 0.313688632837421 -1.234078783357213 0.29930525205569214 L -1.1908570819036597 0.23153877643232257 C -1.1908570819036597 0.23153877643232257 -1.181697516032708 0.21715539565059372 -1.196796487898105 0.20856830264657655 L -1.2857444595980503 0.15819069035634203 C -1.2857444595980503 0.15819069035634203 -1.300914990571814 0.14960359735232476 -1.3100745564427658 0.1639869781340536 Z"
                      fill="#dead73" transform="matrix(1,0,0,1,0,0)" fill-rule="nonzero" />
            </g>
            <g clip-path="url(#ae6f05735-219c-40a3-94a9-8690a8f805718f83d05c-b0b2-49a3-83f9-e90c34db5109)">
                <path d=" M -0.9716715329761195 0.4464307788578542 C -0.9552129380517531 0.4432106189813476 -0.9461964903975351 0.4569499677877754 -0.9461964903975351 0.4569499677877754 L -0.9461249312891682 0.45687840867940843 C -0.9425686482813945 0.4683352880014916 -0.9347234293065835 0.4779751649117169 -0.9242278441289241 0.4837846334253293 C -0.9136764714214356 0.4897449979198717 -0.9013460961282767 0.4917493181835745 -0.8894501174626543 0.48943780298630735 L -0.8895216765710211 0.48958092120304075 C -0.8805767880251698 0.48779194349387067 -0.8732061998633884 0.4915130171289447 -0.8732061998633884 0.4915130171289447 L -0.8098763889587612 0.5273641304207167 L -0.8096617116336606 0.5275072486374502 C -0.8039369829643159 0.5315145587059918 -0.8081589703579577 0.5375970829171707 -0.8081589703579577 0.5375970829171707 L -0.809590152525294 0.5398869743849085 C -0.809590152525294 0.5398869743849085 -0.8187497183962456 0.5542703551666376 -0.8035791874224818 0.5628574481706549 L -0.5741606859984878 0.6928087889647826 C -0.5741606859984878 0.6928087889647826 -0.558990155024724 0.7013958819687997 -0.5498305891537723 0.6870125011870706 L -0.5482562887697024 0.6845794915025992 C -0.5482562887697024 0.6845794915025992 -0.5438196240509603 0.6780676126412194 -0.5378086589481483 0.6815024498428263 L -0.518201463255642 0.6925941116396818 L -0.518201463255642 0.6926656707480489 C -0.518201463255642 0.6926656707480489 -0.5118327026109959 0.6958858306245551 -0.5103299613352927 0.7034710961114371 L -0.509972165793459 0.7036142143281708 C -0.507157530194811 0.7187683520724425 -0.4977416312306089 0.7318824174821946 -0.48428244588977387 0.739393768511576 C -0.45804593193601706 0.7542771400232059 -0.42476720607902285 0.7463402420253874 -0.408071995479121 0.7212177549864062 C -0.4004768267850396 0.7093188938006368 -0.3981823846167736 0.6947936635713029 -0.4017401158255336 0.6811330620598034 C -0.40529784703429406 0.6674724605483043 -0.4143860566338209 0.6559116982743994 -0.42682048187122534 0.6492292919693948 C -0.4407309350601736 0.6414749080741796 -0.45722860088014583 0.6398173717908543 -0.47240363390088347 0.6446495090339189 L -0.4727614294427174 0.6444348317088185 C -0.47724322326444146 0.6457656349539737 -0.4820666909893474 0.645303813576057 -0.4862145418156778 0.643146767758216 L -0.5063226512667516 0.631768869527893 C -0.5120473799360965 0.6282624732179195 -0.5082547471926555 0.6217505943565397 -0.5082547471926555 0.6217505943565397 L -0.5066088877002188 0.6192460255637012 C -0.5066088877002188 0.6192460255637012 -0.49744932182926727 0.6048626447819724 -0.512619852803031 0.5962755517779551 L -0.7420383542270248 0.4662526518754606 C -0.7420383542270248 0.4662526518754606 -0.7572088852007888 0.45766555887144345 -0.7663684510717406 0.4720489396531723 L -0.7677996332390766 0.47433883112091024 C -0.7677996332390766 0.47433883112091024 -0.7715922659825176 0.48063603265718957 -0.7780325857355306 0.4777736683225171 L -0.8415055148568913 0.44177943681401155 C -0.8415055148568913 0.44177943681401155 -0.8485183074768388 0.43741433120363604 -0.8510228762696772 0.429113474633086 L -0.8510228762696772 0.429185033741453 C -0.8547111477787124 0.4180090569366931 -0.8624450322094388 0.4086160883871639 -0.8727052861048208 0.40285128186246666 C -0.8834966463839655 0.39682880585599556 -0.8960892699818208 0.39487390259584465 -0.9081986038547586 0.39734123051822234 L -0.9081986038547586 0.3971981123014887 C -0.9081986038547586 0.3971981123014887 -0.9252296716460596 0.3961962847843533 -0.929952572798269 0.3809541947022227 L -0.929236981714601 0.37980924896835366 C -0.929236981714601 0.37980924896835366 -0.9200058567352825 0.3654258681866248 -0.9351763877090462 0.35683877518260754 L -1.0241243594089915 0.30646116289237313 C -1.0241243594089915 0.30646116289237313 -1.0392233312743886 0.29787406988835585 -1.0483828971453404 0.3122574506700847 L -1.0916045985988938 0.38002392629345416 C -1.0916045985988938 0.38002392629345416 -1.1007641644698454 0.3944073070751831 -1.0856651926044485 0.4029944000792003 L -0.9967172209045032 0.4533720123694348 C -0.9967172209045032 0.4533720123694348 -0.9815466899307393 0.4619591053734521 -0.9723871240597876 0.4475757245917231 Z"
                      fill="#dead73" transform="matrix(1,0,0,1,0,0)" fill-rule="nonzero" />
            </g>
            <g clip-path="url(#ae6f05735-219c-40a3-94a9-8690a8f805718f83d05c-b0b2-49a3-83f9-e90c34db5109)">
                <path d=" M -0.9716715329761195 0.16513192386792264 C -0.9552129380517531 0.16835208374442912 -0.9461964903975351 0.15461273493800143 -0.9461964903975351 0.15461273493800143 L -0.9461249312891682 0.1546842940463683 C -0.9425686482813945 0.14322741472428524 -0.9347234293065835 0.13358753781405996 -0.9242278441289241 0.12777806930044766 C -0.9136764714214356 0.12181770480590515 -0.9013460961282767 0.11981338454220247 -0.8894501174626543 0.1221248997394695 L -0.8895216765710211 0.12198178152273598 C -0.8840147571407385 0.12305453659496857 -0.8783102424136096 0.12237900195622964 -0.8732061998633884 0.12004968559683205 L -0.8098763889587612 0.08419857230506 L -0.8096617116336606 0.08405545408832649 C -0.8039369829643159 0.0800481440197851 -0.8081589703579577 0.07396561980860616 -0.8081589703579577 0.07396561980860616 L -0.809590152525294 0.07167572834086822 C -0.809590152525294 0.07167572834086822 -0.8187497183962456 0.05729234755913937 -0.8035791874224818 0.04870525455512209 L -0.5741606859984878 -0.08124608623900559 C -0.5741606859984878 -0.08124608623900559 -0.558990155024724 -0.08983317924302281 -0.5498305891537723 -0.07544979846129396 L -0.5482562887697024 -0.07301678877682233 C -0.5482562887697024 -0.07301678877682233 -0.5438196240509603 -0.06650490991544267 -0.5378086589481483 -0.06993974711704953 L -0.518201463255642 -0.08103140891390515 L -0.518201463255642 -0.0811029680222719 C -0.518201463255642 -0.0811029680222719 -0.5118327026109959 -0.08432312789877838 -0.5103299613352927 -0.09190839338566031 L -0.509972165793459 -0.09205151160239389 C -0.5073244787838869 -0.10643489238412274 -0.4985227084547692 -0.11974488654034954 -0.48428244588977387 -0.12783106578579911 C -0.45804593193601706 -0.14271443729742894 -0.42476720607902285 -0.1347775392996105 -0.408071995479121 -0.10965505226062927 C -0.4004768267850396 -0.09775619107486 -0.3981823846167736 -0.08323096084552595 -0.4017401158255336 -0.06957035933402672 C -0.40529784703429406 -0.05590975782252744 -0.4143860566338209 -0.04434899554862265 -0.42682048187122534 -0.03766658924361804 C -0.4407309350601736 -0.029912205348402776 -0.45722860088014583 -0.028254669065077453 -0.47240363390088347 -0.03308680630814215 L -0.4727614294427174 -0.032872128983041704 C -0.47724322326444146 -0.03420293222819687 -0.4820666909893474 -0.03374111085028031 -0.4862145418156778 -0.03158406503243916 L -0.5063226512667516 -0.020206166802116288 C -0.5120473799360965 -0.016699770492142607 -0.5082547471926555 -0.01018789163076278 -0.5082547471926555 -0.01018789163076278 L -0.5066088877002188 -0.0076833228379244445 C -0.5066088877002188 -0.0076833228379244445 -0.49744932182926727 0.0067000579438044605 -0.512619852803031 0.015287150947821626 L -0.7420383542270248 0.14531005085031612 C -0.7420383542270248 0.14531005085031612 -0.7572088852007888 0.1538971438543334 -0.7663684510717406 0.13951376307260455 L -0.7677996332390766 0.1372238716048666 C -0.7677996332390766 0.1372238716048666 -0.7715922659825176 0.13092667006858727 -0.7780325857355306 0.13378903440325962 L -0.8415055148568913 0.1697832659117653 C -0.8415055148568913 0.1697832659117653 -0.8485183074768388 0.1741483715221408 -0.8510228762696772 0.1824492280926907 L -0.8510228762696772 0.18237766898432395 C -0.8547111477787124 0.19355364578908374 -0.8624450322094388 0.20294661433861294 -0.8727052861048208 0.20871142086331018 C -0.8834966463839655 0.21473389686978128 -0.8960892699818208 0.2166888001299322 -0.9081986038547586 0.2142214722075545 L -0.9081986038547586 0.21436459042428813 C -0.9081986038547586 0.21436459042428813 -0.9252296716460596 0.21536641794142342 -0.929952572798269 0.23060850802355415 L -0.929236981714601 0.23175345375742318 C -0.929236981714601 0.23175345375742318 -0.9200058567352825 0.24613683453915203 -0.9351763877090462 0.2547239275431692 L -1.0241243594089915 0.3051015398334037 C -1.0241243594089915 0.3051015398334037 -1.0392233312743886 0.313688632837421 -1.0483828971453404 0.29930525205569214 L -1.0916045985988938 0.23153877643232257 C -1.0916045985988938 0.23153877643232257 -1.1007641644698454 0.21715539565059372 -1.0856651926044485 0.20856830264657655 L -0.9967172209045032 0.15819069035634203 C -0.9967172209045032 0.15819069035634203 -0.9815466899307393 0.14960359735232476 -0.9723871240597876 0.1639869781340536 Z"
                      fill="#dead73" transform="matrix(1,0,0,1,0,0)" fill-rule="nonzero" />
            </g>
            <g clip-path="url(#ae6f05735-219c-40a3-94a9-8690a8f805718f83d05c-b0b2-49a3-83f9-e90c34db5109)">
                <path d=" M -1.310790147526434 0.4464307788578542 C -1.3272487424508004 0.4432106189813476 -1.3362651901050184 0.4569499677877754 -1.3362651901050184 0.4569499677877754 L -1.3363367492133853 0.45687840867940843 C -1.339893032221159 0.4683352880014916 -1.34773825119597 0.4779751649117169 -1.3582338363736293 0.4837846334253293 C -1.368785209081118 0.4897449979198717 -1.3811155843742768 0.4917493181835745 -1.3930115630398991 0.48943780298630735 L -1.3929400039315323 0.48958092120304075 C -1.4018848924773835 0.48779194349387067 -1.409255480639165 0.4915130171289447 -1.409255480639165 0.4915130171289447 L -1.4725852915437923 0.5273641304207167 L -1.4727999688688926 0.5275072486374502 C -1.4785246975382376 0.5315145587059918 -1.4743027101445958 0.5375970829171707 -1.4743027101445958 0.5375970829171707 L -1.4728715279772595 0.5398869743849085 C -1.4728715279772595 0.5398869743849085 -1.463711962106308 0.5542703551666376 -1.4788824930800717 0.5628574481706549 L -1.7083009945040657 0.6928087889647826 C -1.7083009945040657 0.6928087889647826 -1.7234715254778294 0.7013958819687997 -1.7326310913487812 0.6870125011870706 L -1.734205391732851 0.6845794915025992 C -1.734205391732851 0.6845794915025992 -1.7386420564515932 0.6780676126412194 -1.7446530215544054 0.6815024498428263 L -1.7642602172469113 0.6925941116396818 L -1.7642602172469113 0.6926656707480489 C -1.7642602172469113 0.6926656707480489 -1.7706289778915576 0.6958858306245551 -1.7721317191672605 0.7034710961114371 L -1.7724895147090947 0.7036142143281708 C -1.7753041503077425 0.7187683520724425 -1.7847200492719446 0.7318824174821946 -1.7981792346127796 0.739393768511576 C -1.8244157485665362 0.7542771400232059 -1.8576944744235306 0.7463402420253874 -1.8743896850234325 0.7212177549864062 C -1.881984853717514 0.7093188938006368 -1.88427929588578 0.6947936635713027 -1.8807215646770197 0.6811330620598034 C -1.8771638334682594 0.6674724605483043 -1.8680756238687326 0.6559116982743994 -1.8556411986313281 0.6492292919693948 C -1.8413293769579662 0.6411431127239452 -1.824799222925233 0.640069726098443 -1.81005804660167 0.6446495090339189 L -1.809700251059836 0.6444348317088185 C -1.805218457238112 0.6457656349539737 -1.800394989513206 0.645303813576057 -1.7962471386868755 0.643146767758216 L -1.776139029235802 0.631768869527893 C -1.770414300566457 0.6282624732179195 -1.774206933309898 0.6217505943565397 -1.774206933309898 0.6217505943565397 L -1.7758527928023347 0.6192460255637012 C -1.7758527928023347 0.6192460255637012 -1.7850123586732864 0.6048626447819724 -1.7698418276995225 0.5962755517779551 L -1.5404233262755285 0.4662526518754606 C -1.5404233262755285 0.4662526518754606 -1.5252527953017645 0.45766555887144345 -1.516093229430813 0.4720489396531723 L -1.5146620472634766 0.47433883112091024 C -1.5146620472634766 0.47433883112091024 -1.5108694145200356 0.48063603265718957 -1.5044290947670227 0.4777736683225171 L -1.440956165645662 0.44177943681401155 C -1.440956165645662 0.44177943681401155 -1.4339433730257145 0.43741433120363604 -1.4314388042328763 0.429113474633086 L -1.4314388042328763 0.429185033741453 C -1.4277505327238411 0.4180090569366931 -1.4200166482931147 0.4086160883871639 -1.4097563943977327 0.40285128186246666 C -1.398965034118588 0.39682880585599556 -1.3863724105207327 0.39487390259584465 -1.3742630766477948 0.39734123051822234 L -1.3742630766477948 0.3971981123014887 C -1.3742630766477948 0.3971981123014887 -1.357232008856494 0.3961962847843533 -1.3525091077042843 0.3809541947022227 L -1.3532246987879524 0.37980924896835366 C -1.3532246987879524 0.37980924896835366 -1.362455823767271 0.3654258681866248 -1.3472852927935073 0.35683877518260754 L -1.258337321093562 0.30646116289237313 C -1.258337321093562 0.30646116289237313 -1.243238349228165 0.29787406988835585 -1.234078783357213 0.3122574506700847 L -1.1908570819036597 0.38002392629345416 C -1.1908570819036597 0.38002392629345416 -1.181697516032708 0.3944073070751831 -1.196796487898105 0.4029944000792003 L -1.2857444595980503 0.4533720123694348 C -1.2857444595980503 0.4533720123694348 -1.300914990571814 0.4619591053734521 -1.3100745564427658 0.4475757245917231 Z"
                      fill="#dead73" transform="matrix(1,0,0,1,0,0)" fill-rule="nonzero" />
            </g>
        </g>
    </g>
    <defs>
        <clipPath id="SvgjsClipPath1001">
            <path d=" M -1.8824043051605153 -0.5008727309623101 h 1.4824043051605151 v 1.6132504619246202 h -1.4824043051605151 Z" />
        </clipPath>
        <clipPath id="ae6f05735-219c-40a3-94a9-8690a8f805718f83d05c-b0b2-49a3-83f9-e90c34db5109">
            <path d=" M -1.8824043051605155 1.1124314004277585 L -0.39998581623367113 1.1124314004277585 L -0.39998581623367113 -0.5008686977019818 L -1.8824043051605155 -0.5008686977019818 Z" />
        </clipPath>
    </defs>
</svg>