<svg xmlns="http://www.w3.org/2000/svg" version="1.1" viewBox="0 0 19.340706333647134 2.8646936266796703">
    <g transform="matrix(1,0,0,1,3.3969514739054665,0.8443468133398351)">
        <g>
            <path d=" M 0.4455 0.1140000000000001 L 0.4455 0.14400000000000013 Q 0.3945 0.14550000000000018 0.36825 0.1552500000000001 Q 0.342 0.16500000000000004 0.333 0.19125000000000014 Q 0.324 0.21750000000000014 0.324 0.27300000000000013 L 0.324 1.0170000000000001 Q 0.324 1.0710000000000002 0.333 1.098 Q 0.342 1.1250000000000002 0.36825 1.13325 Q 0.3945 1.1415000000000002 0.4455 1.1415000000000002 L 0.555 1.1415000000000002 Q 0.6255000000000001 1.1415000000000002 0.6697500000000001 1.1265 Q 0.714 1.1115000000000002 0.74025 1.07925 Q 0.7665000000000001 1.0470000000000002 0.78 0.9930000000000001 Q 0.7935 0.9390000000000002 0.801 0.8610000000000002 L 0.8355 0.8610000000000002 Q 0.8310000000000001 0.9075000000000002 0.8310000000000001 0.9840000000000002 Q 0.8310000000000001 1.0125000000000002 0.83325 1.0657500000000002 Q 0.8355 1.1190000000000002 0.8415 1.1760000000000002 Q 0.765 1.1730000000000003 0.669 1.1722500000000002 Q 0.5730000000000001 1.1715000000000002 0.498 1.1715000000000002 Q 0.465 1.1715000000000002 0.41325 1.1715000000000002 Q 0.3615 1.1715000000000002 0.3015 1.1722500000000002 Q 0.2415 1.1730000000000003 0.18 1.17375 Q 0.11850000000000001 1.1745 0.063 1.1760000000000002 L 0.063 1.1460000000000001 Q 0.114 1.1430000000000002 0.14025 1.1340000000000001 Q 0.1665 1.1250000000000002 0.17550000000000002 1.098 Q 0.1845 1.0710000000000002 0.1845 1.0170000000000001 L 0.1845 0.27300000000000013 Q 0.1845 0.21750000000000014 0.17550000000000002 0.19125000000000014 Q 0.1665 0.16500000000000004 0.14025 0.1552500000000001 Q 0.114 0.14550000000000018 0.063 0.14400000000000013 L 0.063 0.1140000000000001 Q 0.0945 0.11550000000000016 0.1455 0.11700000000000021 Q 0.1965 0.11850000000000005 0.255 0.11850000000000005 Q 0.3075 0.11850000000000005 0.35925 0.11700000000000021 Q 0.41100000000000003 0.11550000000000016 0.4455 0.1140000000000001 M 1.15351904296875 1.1865 Q 1.09201904296875 1.1865 1.04701904296875 1.1632500000000001 Q 1.00201904296875 1.1400000000000001 0.97876904296875 1.098 Q 0.95551904296875 1.056 0.95551904296875 1.0005000000000002 Q 0.95551904296875 0.9345000000000001 0.98626904296875 0.8925000000000001 Q 1.01701904296875 0.8505000000000001 1.06501904296875 0.8250000000000002 Q 1.11301904296875 0.7995000000000001 1.1662690429687501 0.7822500000000001 Q 1.21951904296875 0.7650000000000001 1.26751904296875 0.7492500000000002 Q 1.31551904296875 0.7335000000000002 1.34626904296875 0.7125000000000001 Q 1.37701904296875 0.6915000000000002 1.37701904296875 0.6570000000000001 L 1.37701904296875 0.5640000000000002 Q 1.37701904296875 0.5010000000000001 1.35826904296875 0.4680000000000002 Q 1.33951904296875 0.43500000000000016 1.3080190429687502 0.4237500000000002 Q 1.27651904296875 0.4125000000000001 1.2375190429687501 0.4125000000000001 Q 1.20001904296875 0.4125000000000001 1.15726904296875 0.42300000000000015 Q 1.11451904296875 0.4335000000000001 1.08901904296875 0.46650000000000014 Q 1.11751904296875 0.47250000000000014 1.13851904296875 0.49650000000000016 Q 1.15951904296875 0.5205000000000002 1.15951904296875 0.5580000000000002 Q 1.15951904296875 0.5955000000000001 1.13551904296875 0.6172500000000002 Q 1.11151904296875 0.6390000000000001 1.07401904296875 0.6390000000000001 Q 1.03051904296875 0.6390000000000001 1.01026904296875 0.6112500000000002 Q 0.99001904296875 0.5835000000000001 0.99001904296875 0.5490000000000002 Q 0.99001904296875 0.5100000000000001 1.00951904296875 0.4860000000000001 Q 1.02901904296875 0.4620000000000002 1.05901904296875 0.44100000000000017 Q 1.09351904296875 0.41700000000000015 1.14826904296875 0.39975000000000016 Q 1.20301904296875 0.3825000000000002 1.2720190429687501 0.3825000000000002 Q 1.33351904296875 0.3825000000000002 1.37701904296875 0.39675000000000016 Q 1.42051904296875 0.41100000000000014 1.4490190429687502 0.43800000000000017 Q 1.4880190429687499 0.4740000000000001 1.5000190429687499 0.5257500000000002 Q 1.51201904296875 0.5775000000000001 1.51201904296875 0.6495000000000002 L 1.51201904296875 1.0665000000000002 Q 1.51201904296875 1.104 1.5232690429687499 1.1205 Q 1.53451904296875 1.1370000000000002 1.5585190429687499 1.1370000000000002 Q 1.57501904296875 1.1370000000000002 1.5900190429687502 1.1295000000000002 Q 1.6050190429687499 1.122 1.62601904296875 1.1055000000000001 L 1.64251904296875 1.1310000000000002 Q 1.61101904296875 1.1550000000000002 1.58251904296875 1.1707500000000002 Q 1.5540190429687502 1.1865 1.50601904296875 1.1865 Q 1.46251904296875 1.1865 1.43401904296875 1.1715000000000002 Q 1.40551904296875 1.1565 1.39126904296875 1.12725 Q 1.37701904296875 1.098 1.37701904296875 1.0530000000000002 Q 1.33651904296875 1.1205 1.28026904296875 1.1535000000000002 Q 1.22401904296875 1.1865 1.15351904296875 1.1865 M 1.20751904296875 1.1265 Q 1.25701904296875 1.1265 1.29976904296875 1.098 Q 1.3425190429687501 1.0695000000000001 1.37701904296875 1.0125000000000002 L 1.37701904296875 0.7185000000000001 Q 1.35901904296875 0.7440000000000002 1.32451904296875 0.7612500000000002 Q 1.29001904296875 0.7785000000000002 1.24951904296875 0.7957500000000002 Q 1.20901904296875 0.8130000000000002 1.17226904296875 0.8362500000000002 Q 1.13551904296875 0.8595000000000002 1.11151904296875 0.8970000000000001 Q 1.08751904296875 0.9345000000000001 1.08751904296875 0.9945000000000002 Q 1.08751904296875 1.0545000000000002 1.1197690429687501 1.0905000000000002 Q 1.15201904296875 1.1265 1.20751904296875 1.1265 M 2.0924970703125 0.1140000000000001 Q 2.1239970703125 0.11550000000000016 2.1749970703125 0.11700000000000021 Q 2.2259970703125 0.11850000000000005 2.2754970703125 0.11850000000000005 Q 2.3459970703125 0.11850000000000005 2.4104970703125 0.11700000000000021 Q 2.4749970703125 0.11550000000000016 2.5019970703125 0.11550000000000016 Q 2.6594970703125 0.11550000000000016 2.7389970703125 0.1815000000000001 Q 2.8184970703125 0.24750000000000016 2.8184970703125 0.3510000000000001 Q 2.8184970703125 0.4035000000000002 2.7967470703124997 0.4537500000000001 Q 2.7749970703124998 0.5040000000000001 2.7247470703125 0.5452500000000001 Q 2.6744970703125 0.5865000000000001 2.5904970703125 0.6120000000000001 L 2.5904970703125 0.6150000000000001 Q 2.7089970703125 0.6300000000000001 2.7757470703125 0.6712500000000001 Q 2.8424970703125 0.7125000000000001 2.8694970703125 0.7680000000000001 Q 2.8964970703125 0.8235000000000001 2.8964970703125 0.8850000000000002 Q 2.8964970703125 0.9705000000000001 2.8537470703125 1.0357500000000002 Q 2.8109970703125 1.1010000000000002 2.7299970703125 1.1385 Q 2.6489970703125 1.1760000000000002 2.5364970703125 1.1760000000000002 Q 2.5034970703125 1.1760000000000002 2.4374970703125 1.17375 Q 2.3714970703125 1.1715000000000002 2.2784970703125 1.1715000000000002 Q 2.2259970703125 1.1715000000000002 2.1749970703125 1.1722500000000002 Q 2.1239970703125 1.1730000000000003 2.0924970703125 1.1760000000000002 L 2.0924970703125 1.1460000000000001 Q 2.1434970703125 1.1430000000000002 2.1697470703125 1.1340000000000001 Q 2.1959970703125 1.1250000000000002 2.2049970703125 1.098 Q 2.2139970703125 1.0710000000000002 2.2139970703125 1.0170000000000001 L 2.2139970703125 0.27300000000000013 Q 2.2139970703125 0.21750000000000014 2.2049970703125 0.19125000000000014 Q 2.1959970703125 0.16500000000000004 2.1697470703125 0.1552500000000001 Q 2.1434970703125 0.14550000000000018 2.0924970703125 0.14400000000000013 L 2.0924970703125 0.1140000000000001 M 2.4644970703125 0.14400000000000013 Q 2.3954970703125 0.14400000000000013 2.3744970703125 0.1695000000000002 Q 2.3534970703124998 0.19500000000000017 2.3534970703124998 0.27300000000000013 L 2.3534970703124998 1.0170000000000001 Q 2.3534970703124998 1.0695000000000001 2.3624970703125 1.0965000000000003 Q 2.3714970703125 1.1235000000000002 2.3954970703125 1.1325 Q 2.4194970703125 1.1415000000000002 2.4659970703125 1.1415000000000002 Q 2.6129970703125 1.1415000000000002 2.6797470703124997 1.0732500000000003 Q 2.7464970703125 1.0050000000000001 2.7464970703125 0.8790000000000002 Q 2.7464970703125 0.7635000000000001 2.6842470703125 0.7005000000000001 Q 2.6219970703125 0.6375000000000002 2.4794970703125 0.6375000000000002 L 2.3249970703125 0.6375000000000002 Q 2.3249970703125 0.6375000000000002 2.3249970703125 0.6247500000000001 Q 2.3249970703125 0.6120000000000001 2.3249970703125 0.6120000000000001 L 2.4539970703125 0.6120000000000001 Q 2.5424970703125 0.6120000000000001 2.5904970703125 0.5782500000000002 Q 2.6384970703125 0.5445000000000001 2.6564970703124997 0.4882500000000002 Q 2.6744970703125 0.43200000000000016 2.6744970703125 0.36750000000000016 Q 2.6744970703125 0.2565000000000002 2.6257470703125 0.20025000000000015 Q 2.5769970703125 0.14400000000000013 2.4644970703125 0.14400000000000013 M 3.235475830078125 1.1865 Q 3.173975830078125 1.1865 3.128975830078125 1.1632500000000001 Q 3.083975830078125 1.1400000000000001 3.060725830078125 1.098 Q 3.037475830078125 1.056 3.037475830078125 1.0005000000000002 Q 3.037475830078125 0.9345000000000001 3.068225830078125 0.8925000000000001 Q 3.098975830078125 0.8505000000000001 3.146975830078125 0.8250000000000002 Q 3.1949758300781252 0.7995000000000001 3.248225830078125 0.7822500000000001 Q 3.3014758300781253 0.7650000000000001 3.349475830078125 0.7492500000000002 Q 3.397475830078125 0.7335000000000002 3.428225830078125 0.7125000000000001 Q 3.458975830078125 0.6915000000000002 3.458975830078125 0.6570000000000001 L 3.458975830078125 0.5640000000000002 Q 3.458975830078125 0.5010000000000001 3.440225830078125 0.4680000000000002 Q 3.421475830078125 0.43500000000000016 3.389975830078125 0.4237500000000002 Q 3.3584758300781252 0.4125000000000001 3.319475830078125 0.4125000000000001 Q 3.281975830078125 0.4125000000000001 3.239225830078125 0.42300000000000015 Q 3.196475830078125 0.4335000000000001 3.1709758300781252 0.46650000000000014 Q 3.199475830078125 0.47250000000000014 3.220475830078125 0.49650000000000016 Q 3.2414758300781252 0.5205000000000002 3.2414758300781252 0.5580000000000002 Q 3.2414758300781252 0.5955000000000001 3.217475830078125 0.6172500000000002 Q 3.193475830078125 0.6390000000000001 3.155975830078125 0.6390000000000001 Q 3.1124758300781252 0.6390000000000001 3.092225830078125 0.6112500000000002 Q 3.071975830078125 0.5835000000000001 3.071975830078125 0.5490000000000002 Q 3.071975830078125 0.5100000000000001 3.091475830078125 0.4860000000000001 Q 3.110975830078125 0.4620000000000002 3.140975830078125 0.44100000000000017 Q 3.175475830078125 0.41700000000000015 3.2302258300781252 0.39975000000000016 Q 3.284975830078125 0.3825000000000002 3.353975830078125 0.3825000000000002 Q 3.415475830078125 0.3825000000000002 3.458975830078125 0.39675000000000016 Q 3.502475830078125 0.41100000000000014 3.530975830078125 0.43800000000000017 Q 3.569975830078125 0.4740000000000001 3.5819758300781253 0.5257500000000002 Q 3.593975830078125 0.5775000000000001 3.593975830078125 0.6495000000000002 L 3.593975830078125 1.0665000000000002 Q 3.593975830078125 1.104 3.6052258300781252 1.1205 Q 3.6164758300781252 1.1370000000000002 3.640475830078125 1.1370000000000002 Q 3.656975830078125 1.1370000000000002 3.671975830078125 1.1295000000000002 Q 3.686975830078125 1.122 3.707975830078125 1.1055000000000001 L 3.7244758300781253 1.1310000000000002 Q 3.692975830078125 1.1550000000000002 3.664475830078125 1.1707500000000002 Q 3.635975830078125 1.1865 3.587975830078125 1.1865 Q 3.544475830078125 1.1865 3.515975830078125 1.1715000000000002 Q 3.4874758300781252 1.1565 3.473225830078125 1.12725 Q 3.458975830078125 1.098 3.458975830078125 1.0530000000000002 Q 3.4184758300781253 1.1205 3.362225830078125 1.1535000000000002 Q 3.305975830078125 1.1865 3.235475830078125 1.1865 M 3.289475830078125 1.1265 Q 3.338975830078125 1.1265 3.381725830078125 1.098 Q 3.424475830078125 1.0695000000000001 3.458975830078125 1.0125000000000002 L 3.458975830078125 0.7185000000000001 Q 3.4409758300781252 0.7440000000000002 3.406475830078125 0.7612500000000002 Q 3.3719758300781253 0.7785000000000002 3.331475830078125 0.7957500000000002 Q 3.290975830078125 0.8130000000000002 3.2542258300781253 0.8362500000000002 Q 3.217475830078125 0.8595000000000002 3.193475830078125 0.8970000000000001 Q 3.169475830078125 0.9345000000000001 3.169475830078125 0.9945000000000002 Q 3.169475830078125 1.0545000000000002 3.201725830078125 1.0905000000000002 Q 3.233975830078125 1.1265 3.289475830078125 1.1265 M 4.25095458984375 0.3825000000000002 Q 4.291454589843751 0.3825000000000002 4.32220458984375 0.39900000000000013 Q 4.35295458984375 0.4155000000000001 4.37020458984375 0.4417500000000001 Q 4.38745458984375 0.4680000000000002 4.38745458984375 0.5010000000000001 Q 4.38745458984375 0.5385000000000001 4.36420458984375 0.5670000000000002 Q 4.34095458984375 0.5955000000000001 4.30195458984375 0.5955000000000001 Q 4.27045458984375 0.5955000000000001 4.246454589843751 0.5752500000000002 Q 4.22245458984375 0.5550000000000002 4.22245458984375 0.5175000000000002 Q 4.22245458984375 0.4890000000000001 4.23820458984375 0.4687500000000001 Q 4.25395458984375 0.4485000000000001 4.27345458984375 0.4365000000000001 Q 4.26295458984375 0.4215000000000001 4.2419545898437505 0.4215000000000001 Q 4.1954545898437505 0.4215000000000001 4.15645458984375 0.44925000000000015 Q 4.11745458984375 0.4770000000000001 4.09045458984375 0.5205000000000002 Q 4.06345458984375 0.5640000000000002 4.04845458984375 0.6127500000000001 Q 4.03345458984375 0.6615000000000002 4.03345458984375 0.7035000000000001 L 4.03345458984375 1.0215 Q 4.03345458984375 1.0950000000000002 4.0762045898437504 1.1197500000000002 Q 4.11895458984375 1.1445 4.19245458984375 1.1445 L 4.19245458984375 1.1760000000000002 Q 4.15795458984375 1.1745 4.09495458984375 1.1722500000000002 Q 4.0319545898437505 1.1700000000000002 3.96145458984375 1.1700000000000002 Q 3.9104545898437504 1.1700000000000002 3.8602045898437503 1.1722500000000002 Q 3.80995458984375 1.1745 3.78445458984375 1.1760000000000002 L 3.78445458984375 1.1445 Q 3.84595458984375 1.1445 3.8722045898437503 1.122 Q 3.8984545898437504 1.0995000000000001 3.8984545898437504 1.0365000000000002 L 3.8984545898437504 0.5670000000000002 Q 3.8984545898437504 0.49950000000000017 3.8744545898437504 0.46725000000000017 Q 3.8504545898437503 0.43500000000000016 3.78445458984375 0.43500000000000016 L 3.78445458984375 0.4035000000000002 Q 3.83245458984375 0.40800000000000014 3.87745458984375 0.40800000000000014 Q 3.9209545898437503 0.40800000000000014 3.96070458984375 0.40275000000000016 Q 4.00045458984375 0.3975000000000002 4.03345458984375 0.3870000000000001 L 4.03345458984375 0.5745000000000001 Q 4.04995458984375 0.5310000000000001 4.08070458984375 0.4867500000000001 Q 4.11145458984375 0.4425000000000001 4.15495458984375 0.4125000000000001 Q 4.198454589843751 0.3825000000000002 4.25095458984375 0.3825000000000002 M 4.679965576171875 1.1865 Q 4.618465576171875 1.1865 4.573465576171875 1.1632500000000001 Q 4.528465576171875 1.1400000000000001 4.505215576171875 1.098 Q 4.481965576171875 1.056 4.481965576171875 1.0005000000000002 Q 4.481965576171875 0.9345000000000001 4.512715576171875 0.8925000000000001 Q 4.543465576171875 0.8505000000000001 4.591465576171875 0.8250000000000002 Q 4.639465576171875 0.7995000000000001 4.692715576171874 0.7822500000000001 Q 4.745965576171875 0.7650000000000001 4.793965576171875 0.7492500000000002 Q 4.841965576171875 0.7335000000000002 4.872715576171875 0.7125000000000001 Q 4.903465576171875 0.6915000000000002 4.903465576171875 0.6570000000000001 L 4.903465576171875 0.5640000000000002 Q 4.903465576171875 0.5010000000000001 4.884715576171875 0.4680000000000002 Q 4.865965576171875 0.43500000000000016 4.8344655761718744 0.4237500000000002 Q 4.802965576171875 0.4125000000000001 4.763965576171875 0.4125000000000001 Q 4.726465576171875 0.4125000000000001 4.683715576171875 0.42300000000000015 Q 4.640965576171875 0.4335000000000001 4.615465576171875 0.46650000000000014 Q 4.643965576171875 0.47250000000000014 4.664965576171875 0.49650000000000016 Q 4.685965576171875 0.5205000000000002 4.685965576171875 0.5580000000000002 Q 4.685965576171875 0.5955000000000001 4.661965576171875 0.6172500000000002 Q 4.637965576171875 0.6390000000000001 4.6004655761718745 0.6390000000000001 Q 4.556965576171875 0.6390000000000001 4.536715576171875 0.6112500000000002 Q 4.516465576171875 0.5835000000000001 4.516465576171875 0.5490000000000002 Q 4.516465576171875 0.5100000000000001 4.535965576171875 0.4860000000000001 Q 4.5554655761718745 0.4620000000000002 4.585465576171875 0.44100000000000017 Q 4.619965576171875 0.41700000000000015 4.674715576171875 0.39975000000000016 Q 4.729465576171875 0.3825000000000002 4.798465576171875 0.3825000000000002 Q 4.8599655761718745 0.3825000000000002 4.903465576171875 0.39675000000000016 Q 4.946965576171875 0.41100000000000014 4.9754655761718745 0.43800000000000017 Q 5.014465576171875 0.4740000000000001 5.026465576171875 0.5257500000000002 Q 5.038465576171875 0.5775000000000001 5.038465576171875 0.6495000000000002 L 5.038465576171875 1.0665000000000002 Q 5.038465576171875 1.104 5.049715576171875 1.1205 Q 5.060965576171875 1.1370000000000002 5.084965576171875 1.1370000000000002 Q 5.101465576171875 1.1370000000000002 5.1164655761718745 1.1295000000000002 Q 5.131465576171875 1.122 5.152465576171875 1.1055000000000001 L 5.168965576171875 1.1310000000000002 Q 5.137465576171875 1.1550000000000002 5.108965576171875 1.1707500000000002 Q 5.080465576171875 1.1865 5.032465576171875 1.1865 Q 4.988965576171875 1.1865 4.960465576171875 1.1715000000000002 Q 4.931965576171875 1.1565 4.917715576171875 1.12725 Q 4.903465576171875 1.098 4.903465576171875 1.0530000000000002 Q 4.862965576171875 1.1205 4.806715576171875 1.1535000000000002 Q 4.750465576171875 1.1865 4.679965576171875 1.1865 M 4.733965576171875 1.1265 Q 4.783465576171875 1.1265 4.826215576171875 1.098 Q 4.868965576171875 1.0695000000000001 4.903465576171875 1.0125000000000002 L 4.903465576171875 0.7185000000000001 Q 4.885465576171875 0.7440000000000002 4.850965576171875 0.7612500000000002 Q 4.816465576171875 0.7785000000000002 4.775965576171875 0.7957500000000002 Q 4.735465576171875 0.8130000000000002 4.698715576171875 0.8362500000000002 Q 4.661965576171875 0.8595000000000002 4.637965576171875 0.8970000000000001 Q 4.613965576171875 0.9345000000000001 4.613965576171875 0.9945000000000002 Q 4.613965576171875 1.0545000000000002 4.646215576171874 1.0905000000000002 Q 4.678465576171875 1.1265 4.733965576171875 1.1265 M 5.576944335937499 0.3825000000000002 Q 5.669944335937499 0.3825000000000002 5.7269443359375 0.4222500000000001 Q 5.7839443359375 0.4620000000000002 5.815444335937499 0.5535000000000001 L 5.785444335937499 0.5370000000000001 Q 5.7569443359375 0.47550000000000014 5.7059443359375 0.44625000000000015 Q 5.6549443359375 0.41700000000000015 5.5889443359375 0.41700000000000015 Q 5.5004443359375 0.41700000000000015 5.4509443359375 0.5085000000000002 Q 5.4014443359375 0.6000000000000001 5.4014443359375 0.7905000000000002 Q 5.4014443359375 0.9105000000000001 5.4254443359375 0.9915000000000002 Q 5.4494443359375 1.0725000000000002 5.4959443359375 1.1122500000000002 Q 5.5424443359375 1.1520000000000001 5.6084443359375 1.1520000000000001 Q 5.671444335937499 1.1520000000000001 5.7239443359374995 1.0905000000000002 Q 5.7764443359375 1.0290000000000001 5.785444335937499 0.9090000000000001 L 5.8034443359375 0.9300000000000002 Q 5.7929443359374995 1.0575 5.7261943359375 1.12725 Q 5.6594443359375 1.197 5.5649443359375 1.197 Q 5.479444335937499 1.197 5.408944335937499 1.1527500000000002 Q 5.338444335937499 1.1085000000000003 5.297194335937499 1.0177500000000002 Q 5.2559443359374995 0.9270000000000002 5.2559443359374995 0.7905000000000002 Q 5.2559443359374995 0.6540000000000001 5.298694335937499 0.5632500000000001 Q 5.341444335937499 0.47250000000000014 5.414194335937499 0.4275000000000001 Q 5.486944335937499 0.3825000000000002 5.576944335937499 0.3825000000000002 M 5.8949443359375 0.37950000000000017 L 5.9204443359375 0.3900000000000001 Q 5.9144443359375 0.4095000000000001 5.9121943359374995 0.43200000000000016 Q 5.9099443359374995 0.4545000000000001 5.9099443359374995 0.4770000000000001 L 5.9099443359374995 1.3230000000000002 Q 5.9099443359374995 1.3770000000000002 5.932444335937499 1.3965 Q 5.954944335937499 1.4160000000000001 6.0089443359375 1.4160000000000001 L 6.0089443359375 1.4475000000000002 Q 5.9849443359375 1.4460000000000002 5.9399443359375 1.44375 Q 5.8949443359375 1.4415000000000002 5.8469443359375 1.4415000000000002 Q 5.7824443359375 1.4415000000000002 5.7231943359374995 1.44375 Q 5.6639443359375 1.4460000000000002 5.6309443359374995 1.4475000000000002 L 5.6309443359374995 1.4160000000000001 Q 5.698444335937499 1.4160000000000001 5.7366943359375 1.3942500000000002 Q 5.7749443359375 1.3725 5.7749443359375 1.3080000000000003 L 5.7749443359375 0.5055000000000002 Q 5.7959443359375 0.48450000000000015 5.815444335937499 0.46350000000000013 Q 5.834944335937499 0.4425000000000001 5.855194335937499 0.4215000000000001 Q 5.8754443359375 0.4005000000000002 5.8949443359375 0.37950000000000017 M 6.769426757812499 0.3870000000000001 L 6.769426757812499 1.0140000000000002 Q 6.769426757812499 1.0815000000000001 6.794176757812499 1.1137500000000002 Q 6.818926757812499 1.1460000000000001 6.883426757812499 1.1460000000000001 L 6.883426757812499 1.1775000000000002 Q 6.836926757812499 1.1730000000000003 6.790426757812499 1.1730000000000003 Q 6.746926757812499 1.1730000000000003 6.7071767578124994 1.1775000000000002 Q 6.6674267578125 1.1820000000000002 6.634426757812499 1.1940000000000002 L 6.634426757812499 1.0170000000000001 Q 6.596926757812499 1.1145 6.528676757812499 1.15575 Q 6.460426757812499 1.197 6.388426757812499 1.197 Q 6.3359267578125 1.197 6.296926757812499 1.1820000000000002 Q 6.257926757812499 1.1670000000000003 6.232426757812499 1.1400000000000001 Q 6.203926757812499 1.11 6.1934267578124995 1.062 Q 6.182926757812499 1.0140000000000002 6.182926757812499 0.9435000000000001 L 6.182926757812499 0.5670000000000002 Q 6.182926757812499 0.49950000000000017 6.158926757812499 0.46725000000000017 Q 6.134926757812499 0.43500000000000016 6.068926757812499 0.43500000000000016 L 6.068926757812499 0.4035000000000002 Q 6.116926757812499 0.40800000000000014 6.161926757812499 0.40800000000000014 Q 6.205426757812499 0.40800000000000014 6.245176757812499 0.40275000000000016 Q 6.284926757812499 0.3975000000000002 6.317926757812499 0.3870000000000001 L 6.317926757812499 0.9765000000000001 Q 6.317926757812499 1.0230000000000001 6.323926757812499 1.062 Q 6.329926757812499 1.1010000000000002 6.353926757812499 1.1250000000000002 Q 6.377926757812499 1.1490000000000002 6.4319267578125 1.1490000000000002 Q 6.490426757812499 1.1490000000000002 6.536176757812499 1.1130000000000002 Q 6.581926757812499 1.0770000000000002 6.608176757812499 1.0155 Q 6.634426757812499 0.9540000000000002 6.634426757812499 0.8775000000000002 L 6.634426757812499 0.5670000000000002 Q 6.634426757812499 0.49950000000000017 6.610426757812499 0.46725000000000017 Q 6.586426757812499 0.43500000000000016 6.5204267578124995 0.43500000000000016 L 6.5204267578124995 0.4035000000000002 Q 6.5684267578124995 0.40800000000000014 6.6134267578124994 0.40800000000000014 Q 6.656926757812499 0.40800000000000014 6.696676757812499 0.40275000000000016 Q 6.736426757812499 0.3975000000000002 6.769426757812499 0.3870000000000001 M 7.339417236328124 0.3825000000000002 Q 7.471417236328124 0.3825000000000002 7.545667236328124 0.4627500000000001 Q 7.619917236328124 0.5430000000000001 7.619917236328124 0.7125000000000001 L 7.090417236328124 0.7125000000000001 L 7.088917236328124 0.6840000000000002 L 7.475917236328124 0.6840000000000002 Q 7.478917236328124 0.6105000000000002 7.463917236328124 0.5482500000000001 Q 7.448917236328124 0.4860000000000001 7.416667236328124 0.4485000000000001 Q 7.384417236328124 0.41100000000000014 7.333417236328124 0.41100000000000014 Q 7.264417236328124 0.41100000000000014 7.211167236328124 0.4800000000000001 Q 7.157917236328124 0.5490000000000002 7.147417236328124 0.6990000000000001 L 7.151917236328124 0.7050000000000001 Q 7.148917236328124 0.7275000000000001 7.147417236328124 0.7545000000000002 Q 7.145917236328124 0.7815000000000001 7.145917236328124 0.8085000000000002 Q 7.145917236328124 0.9105000000000001 7.1789172363281235 0.9840000000000002 Q 7.211917236328124 1.0575 7.265167236328124 1.0957500000000002 Q 7.3184172363281235 1.1340000000000001 7.375417236328124 1.1340000000000001 Q 7.420417236328124 1.1340000000000001 7.4609172363281235 1.1197500000000002 Q 7.501417236328124 1.1055000000000001 7.535917236328124 1.0725000000000002 Q 7.570417236328124 1.0395 7.595917236328124 0.9840000000000002 L 7.625917236328124 0.9960000000000002 Q 7.609417236328124 1.0455 7.571917236328124 1.092 Q 7.534417236328124 1.1385 7.477417236328124 1.16775 Q 7.420417236328124 1.197 7.345417236328124 1.197 Q 7.237417236328124 1.197 7.160167236328124 1.1475000000000002 Q 7.082917236328124 1.098 7.041667236328124 1.01025 Q 7.000417236328124 0.9225000000000001 7.000417236328124 0.8085000000000002 Q 7.000417236328124 0.6765000000000001 7.042417236328124 0.5812500000000002 Q 7.0844172363281235 0.4860000000000001 7.160917236328124 0.43425000000000014 Q 7.237417236328124 0.3825000000000002 7.339417236328124 0.3825000000000002 M 7.990389404296874 0.15450000000000008 L 7.990389404296874 0.40500000000000014 L 8.212389404296873 0.40500000000000014 L 8.212389404296873 0.43500000000000016 L 7.990389404296874 0.43500000000000016 L 7.990389404296874 1.0155 Q 7.990389404296874 1.086 8.015889404296873 1.1145 Q 8.041389404296874 1.1430000000000002 8.086389404296874 1.1430000000000002 Q 8.131389404296874 1.1430000000000002 8.164389404296873 1.1062500000000002 Q 8.197389404296874 1.0695000000000001 8.221389404296874 0.9825000000000002 L 8.251389404296873 0.9900000000000002 Q 8.236389404296874 1.0770000000000002 8.192139404296874 1.1370000000000002 Q 8.147889404296874 1.197 8.056389404296874 1.197 Q 8.005389404296874 1.197 7.972389404296874 1.1842500000000002 Q 7.939389404296874 1.1715000000000002 7.9138894042968735 1.1475000000000002 Q 7.880889404296874 1.1130000000000002 7.8681394042968735 1.0650000000000002 Q 7.855389404296874 1.0170000000000001 7.855389404296874 0.9375000000000001 L 7.855389404296874 0.43500000000000016 L 7.711389404296874 0.43500000000000016 L 7.711389404296874 0.40500000000000014 L 7.855389404296874 0.40500000000000014 L 7.855389404296874 0.1755000000000002 Q 7.892889404296874 0.17400000000000015 7.927389404296874 0.1695000000000002 Q 7.9618894042968735 0.16500000000000004 7.990389404296874 0.15450000000000008 M 8.47642822265625 0.15450000000000008 L 8.47642822265625 0.40500000000000014 L 8.698428222656249 0.40500000000000014 L 8.698428222656249 0.43500000000000016 L 8.47642822265625 0.43500000000000016 L 8.47642822265625 1.0155 Q 8.47642822265625 1.086 8.501928222656248 1.1145 Q 8.52742822265625 1.1430000000000002 8.57242822265625 1.1430000000000002 Q 8.61742822265625 1.1430000000000002 8.650428222656249 1.1062500000000002 Q 8.68342822265625 1.0695000000000001 8.70742822265625 0.9825000000000002 L 8.737428222656249 0.9900000000000002 Q 8.72242822265625 1.0770000000000002 8.67817822265625 1.1370000000000002 Q 8.63392822265625 1.197 8.54242822265625 1.197 Q 8.49142822265625 1.197 8.458428222656249 1.1842500000000002 Q 8.42542822265625 1.1715000000000002 8.39992822265625 1.1475000000000002 Q 8.366928222656249 1.1130000000000002 8.35417822265625 1.0650000000000002 Q 8.34142822265625 1.0170000000000001 8.34142822265625 0.9375000000000001 L 8.34142822265625 0.43500000000000016 L 8.19742822265625 0.43500000000000016 L 8.19742822265625 0.40500000000000014 L 8.34142822265625 0.40500000000000014 L 8.34142822265625 0.1755000000000002 Q 8.37892822265625 0.17400000000000015 8.413428222656249 0.1695000000000002 Q 8.44792822265625 0.16500000000000004 8.47642822265625 0.15450000000000008 M 9.14543408203125 0.3825000000000002 Q 9.277434082031249 0.3825000000000002 9.35168408203125 0.4627500000000001 Q 9.42593408203125 0.5430000000000001 9.42593408203125 0.7125000000000001 L 8.89643408203125 0.7125000000000001 L 8.89493408203125 0.6840000000000002 L 9.281934082031249 0.6840000000000002 Q 9.28493408203125 0.6105000000000002 9.26993408203125 0.5482500000000001 Q 9.25493408203125 0.4860000000000001 9.22268408203125 0.4485000000000001 Q 9.19043408203125 0.41100000000000014 9.139434082031249 0.41100000000000014 Q 9.07043408203125 0.41100000000000014 9.01718408203125 0.4800000000000001 Q 8.96393408203125 0.5490000000000002 8.953434082031249 0.6990000000000001 L 8.95793408203125 0.7050000000000001 Q 8.954934082031249 0.7275000000000001 8.953434082031249 0.7545000000000002 Q 8.951934082031249 0.7815000000000001 8.951934082031249 0.8085000000000002 Q 8.951934082031249 0.9105000000000001 8.98493408203125 0.9840000000000002 Q 9.01793408203125 1.0575 9.07118408203125 1.0957500000000002 Q 9.12443408203125 1.1340000000000001 9.18143408203125 1.1340000000000001 Q 9.22643408203125 1.1340000000000001 9.26693408203125 1.1197500000000002 Q 9.30743408203125 1.1055000000000001 9.34193408203125 1.0725000000000002 Q 9.376434082031249 1.0395 9.40193408203125 0.9840000000000002 L 9.43193408203125 0.9960000000000002 Q 9.41543408203125 1.0455 9.37793408203125 1.092 Q 9.34043408203125 1.1385 9.283434082031249 1.16775 Q 9.22643408203125 1.197 9.15143408203125 1.197 Q 9.043434082031249 1.197 8.96618408203125 1.1475000000000002 Q 8.88893408203125 1.098 8.84768408203125 1.01025 Q 8.80643408203125 0.9225000000000001 8.80643408203125 0.8085000000000002 Q 8.80643408203125 0.6765000000000001 8.84843408203125 0.5812500000000002 Q 8.89043408203125 0.4860000000000001 8.96693408203125 0.43425000000000014 Q 9.043434082031249 0.3825000000000002 9.14543408203125 0.3825000000000002 M 10.62594140625 2.220446049250313e-16 L 10.62594140625 1.0125000000000002 Q 10.62594140625 1.08 10.65069140625 1.1122500000000002 Q 10.67544140625 1.1445 10.73994140625 1.1445 L 10.73994140625 1.1760000000000002 Q 10.69344140625 1.1715000000000002 10.64694140625 1.1715000000000002 Q 10.60344140625 1.1715000000000002 10.563691406250001 1.1760000000000002 Q 10.523941406250001 1.1805 10.49094140625 1.1925000000000001 L 10.49094140625 0.18000000000000016 Q 10.49094140625 0.11250000000000004 10.466941406250001 0.08025000000000015 Q 10.44294140625 0.04800000000000004 10.376941406250001 0.04800000000000004 L 10.376941406250001 0.01650000000000018 Q 10.424941406250001 0.02100000000000013 10.469941406250001 0.02100000000000013 Q 10.513441406250001 0.02100000000000013 10.55319140625 0.015750000000000153 Q 10.59294140625 0.010500000000000176 10.62594140625 2.220446049250313e-16 M 10.31094140625 0.3825000000000002 Q 10.376941406250001 0.3825000000000002 10.434691406250002 0.41400000000000015 Q 10.49244140625 0.4455000000000001 10.511941406250001 0.5220000000000001 L 10.49244140625 0.5370000000000001 Q 10.471441406250001 0.4740000000000001 10.427191406250001 0.4455000000000001 Q 10.382941406250001 0.41700000000000015 10.322941406250001 0.41700000000000015 Q 10.234441406250001 0.41700000000000015 10.17519140625 0.5085000000000002 Q 10.11594140625 0.6000000000000001 10.11744140625 0.7905000000000002 Q 10.11744140625 0.9120000000000001 10.140691406250001 0.9922500000000002 Q 10.16394140625 1.0725000000000002 10.20969140625 1.1122500000000002 Q 10.25544140625 1.1520000000000001 10.32144140625 1.1520000000000001 Q 10.384441406250001 1.1520000000000001 10.435441406250002 1.098 Q 10.486441406250002 1.044 10.49694140625 0.9390000000000002 L 10.514941406250001 0.9600000000000002 Q 10.50294140625 1.074 10.44219140625 1.1355000000000002 Q 10.381441406250001 1.197 10.277941406250001 1.197 Q 10.184941406250001 1.197 10.11519140625 1.1520000000000001 Q 10.045441406250001 1.1070000000000002 10.008691406250001 1.0170000000000001 Q 9.97194140625 0.9270000000000002 9.97194140625 0.7905000000000002 Q 9.97194140625 0.6540000000000001 10.01919140625 0.5632500000000001 Q 10.06644140625 0.47250000000000014 10.143691406250001 0.4275000000000001 Q 10.22094140625 0.3825000000000002 10.31094140625 0.3825000000000002 M 11.194431884765626 0.3825000000000002 Q 11.326431884765626 0.3825000000000002 11.400681884765627 0.4627500000000001 Q 11.474931884765626 0.5430000000000001 11.474931884765626 0.7125000000000001 L 10.945431884765627 0.7125000000000001 L 10.943931884765627 0.6840000000000002 L 11.330931884765626 0.6840000000000002 Q 11.333931884765626 0.6105000000000002 11.318931884765627 0.5482500000000001 Q 11.303931884765626 0.4860000000000001 11.271681884765627 0.4485000000000001 Q 11.239431884765626 0.41100000000000014 11.188431884765626 0.41100000000000014 Q 11.119431884765627 0.41100000000000014 11.066181884765626 0.4800000000000001 Q 11.012931884765626 0.5490000000000002 11.002431884765626 0.6990000000000001 L 11.006931884765626 0.7050000000000001 Q 11.003931884765626 0.7275000000000001 11.002431884765626 0.7545000000000002 Q 11.000931884765626 0.7815000000000001 11.000931884765626 0.8085000000000002 Q 11.000931884765626 0.9105000000000001 11.033931884765627 0.9840000000000002 Q 11.066931884765626 1.0575 11.120181884765627 1.0957500000000002 Q 11.173431884765627 1.1340000000000001 11.230431884765627 1.1340000000000001 Q 11.275431884765627 1.1340000000000001 11.315931884765627 1.1197500000000002 Q 11.356431884765627 1.1055000000000001 11.390931884765626 1.0725000000000002 Q 11.425431884765626 1.0395 11.450931884765627 0.9840000000000002 L 11.480931884765626 0.9960000000000002 Q 11.464431884765627 1.0455 11.426931884765626 1.092 Q 11.389431884765626 1.1385 11.332431884765626 1.16775 Q 11.275431884765627 1.197 11.200431884765626 1.197 Q 11.092431884765626 1.197 11.015181884765626 1.1475000000000002 Q 10.937931884765627 1.098 10.896681884765627 1.01025 Q 10.855431884765627 0.9225000000000001 10.855431884765627 0.8085000000000002 Q 10.855431884765627 0.6765000000000001 10.897431884765627 0.5812500000000002 Q 10.939431884765627 0.4860000000000001 11.015931884765626 0.43425000000000014 Q 11.092431884765626 0.3825000000000002 11.194431884765626 0.3825000000000002 M 12.800958984375002 0.1140000000000001 Q 12.794958984375002 0.17100000000000004 12.792708984375002 0.22425000000000017 Q 12.790458984375002 0.2775000000000002 12.790458984375002 0.30600000000000016 Q 12.790458984375002 0.3420000000000002 12.791958984375002 0.37350000000000017 Q 12.793458984375002 0.40500000000000014 12.794958984375002 0.42900000000000016 L 12.760458984375003 0.42900000000000016 Q 12.749958984375002 0.3240000000000002 12.731958984375003 0.2632500000000001 Q 12.713958984375003 0.20250000000000012 12.668958984375003 0.1755000000000002 Q 12.623958984375003 0.14850000000000008 12.529458984375003 0.14850000000000008 L 12.448458984375003 0.14850000000000008 L 12.448458984375003 1.0020000000000002 Q 12.448458984375003 1.062 12.459708984375002 1.092 Q 12.470958984375002 1.122 12.503958984375002 1.1325 Q 12.536958984375003 1.1430000000000002 12.599958984375002 1.1460000000000001 L 12.599958984375002 1.1760000000000002 Q 12.560958984375002 1.1730000000000003 12.500958984375002 1.1722500000000002 Q 12.440958984375003 1.1715000000000002 12.379458984375002 1.1715000000000002 Q 12.311958984375003 1.1715000000000002 12.252708984375003 1.1722500000000002 Q 12.193458984375003 1.1730000000000003 12.157458984375003 1.1760000000000002 L 12.157458984375003 1.1460000000000001 Q 12.220458984375002 1.1430000000000002 12.253458984375003 1.1325 Q 12.286458984375003 1.122 12.297708984375003 1.092 Q 12.308958984375003 1.062 12.308958984375003 1.0020000000000002 L 12.308958984375003 0.14850000000000008 L 12.227958984375002 0.14850000000000008 Q 12.134958984375002 0.14850000000000008 12.089208984375002 0.1755000000000002 Q 12.043458984375002 0.20250000000000012 12.025458984375003 0.2632500000000001 Q 12.007458984375003 0.3240000000000002 11.996958984375002 0.42900000000000016 L 11.962458984375003 0.42900000000000016 Q 11.965458984375003 0.40500000000000014 11.966208984375003 0.37350000000000017 Q 11.966958984375003 0.3420000000000002 11.966958984375003 0.30600000000000016 Q 11.966958984375003 0.2775000000000002 11.964708984375003 0.22425000000000017 Q 11.962458984375003 0.17100000000000004 11.956458984375002 0.1140000000000001 Q 12.019458984375003 0.11550000000000016 12.093708984375002 0.11700000000000021 Q 12.167958984375003 0.11850000000000005 12.242958984375003 0.11850000000000005 Q 12.317958984375002 0.11850000000000005 12.379458984375002 0.11850000000000005 Q 12.440958984375003 0.11850000000000005 12.515208984375002 0.11850000000000005 Q 12.589458984375003 0.11850000000000005 12.664458984375003 0.11700000000000021 Q 12.739458984375002 0.11550000000000016 12.800958984375002 0.1140000000000001 M 13.129444335937503 0.0015000000000000568 L 13.129444335937503 0.5625000000000001 Q 13.168444335937503 0.46050000000000013 13.238194335937504 0.4215000000000001 Q 13.307944335937503 0.3825000000000002 13.384444335937504 0.3825000000000002 Q 13.441444335937502 0.3825000000000002 13.479694335937504 0.3975000000000002 Q 13.517944335937504 0.4125000000000001 13.543444335937503 0.4395000000000001 Q 13.571944335937504 0.46950000000000014 13.583944335937503 0.5145000000000002 Q 13.595944335937503 0.5595000000000001 13.595944335937503 0.6360000000000001 L 13.595944335937503 1.0365000000000002 Q 13.595944335937503 1.0995000000000001 13.622194335937504 1.122 Q 13.648444335937503 1.1445 13.709944335937504 1.1445 L 13.709944335937504 1.1760000000000002 Q 13.684444335937503 1.1745 13.631944335937503 1.1722500000000002 Q 13.579444335937502 1.1700000000000002 13.529944335937504 1.1700000000000002 Q 13.480444335937504 1.1700000000000002 13.433194335937504 1.1722500000000002 Q 13.385944335937504 1.1745 13.361944335937503 1.1760000000000002 L 13.361944335937503 1.1445 Q 13.415944335937503 1.1445 13.438444335937502 1.122 Q 13.460944335937503 1.0995000000000001 13.460944335937503 1.0365000000000002 L 13.460944335937503 0.6030000000000001 Q 13.460944335937503 0.5565000000000001 13.453444335937503 0.5175000000000002 Q 13.445944335937503 0.47850000000000015 13.419694335937503 0.4545000000000001 Q 13.393444335937502 0.4305000000000001 13.339444335937504 0.4305000000000001 Q 13.277944335937503 0.4305000000000001 13.230694335937503 0.4650000000000002 Q 13.183444335937503 0.49950000000000017 13.156444335937502 0.5610000000000002 Q 13.129444335937503 0.6225000000000002 13.129444335937503 0.7020000000000002 L 13.129444335937503 1.0365000000000002 Q 13.129444335937503 1.0995000000000001 13.151944335937504 1.122 Q 13.174444335937503 1.1445 13.228444335937503 1.1445 L 13.228444335937503 1.1760000000000002 Q 13.204444335937502 1.1745 13.157194335937502 1.1722500000000002 Q 13.109944335937502 1.1700000000000002 13.060444335937504 1.1700000000000002 Q 13.010944335937504 1.1700000000000002 12.958444335937504 1.1722500000000002 Q 12.905944335937503 1.1745 12.880444335937502 1.1760000000000002 L 12.880444335937502 1.1445 Q 12.941944335937503 1.1445 12.968194335937502 1.122 Q 12.994444335937503 1.0995000000000001 12.994444335937503 1.0365000000000002 L 12.994444335937503 0.1815000000000001 Q 12.994444335937503 0.1140000000000001 12.970444335937502 0.08175000000000021 Q 12.946444335937503 0.0495000000000001 12.880444335937502 0.0495000000000001 L 12.880444335937502 0.018000000000000238 Q 12.928444335937503 0.022500000000000187 12.973444335937502 0.022500000000000187 Q 13.016944335937502 0.022500000000000187 13.056694335937504 0.01725000000000021 Q 13.096444335937504 0.012000000000000233 13.129444335937503 0.0015000000000000568 M 14.003963378906255 1.1865 Q 13.942463378906254 1.1865 13.897463378906254 1.1632500000000001 Q 13.852463378906254 1.1400000000000001 13.829213378906253 1.098 Q 13.805963378906254 1.056 13.805963378906254 1.0005000000000002 Q 13.805963378906254 0.9345000000000001 13.836713378906254 0.8925000000000001 Q 13.867463378906253 0.8505000000000001 13.915463378906253 0.8250000000000002 Q 13.963463378906253 0.7995000000000001 14.016713378906253 0.7822500000000001 Q 14.069963378906253 0.7650000000000001 14.117963378906254 0.7492500000000002 Q 14.165963378906254 0.7335000000000002 14.196713378906253 0.7125000000000001 Q 14.227463378906254 0.6915000000000002 14.227463378906254 0.6570000000000001 L 14.227463378906254 0.5640000000000002 Q 14.227463378906254 0.5010000000000001 14.208713378906253 0.4680000000000002 Q 14.189963378906254 0.43500000000000016 14.158463378906253 0.4237500000000002 Q 14.126963378906254 0.4125000000000001 14.087963378906254 0.4125000000000001 Q 14.050463378906255 0.4125000000000001 14.007713378906253 0.42300000000000015 Q 13.964963378906253 0.4335000000000001 13.939463378906254 0.46650000000000014 Q 13.967963378906253 0.47250000000000014 13.988963378906254 0.49650000000000016 Q 14.009963378906253 0.5205000000000002 14.009963378906253 0.5580000000000002 Q 14.009963378906253 0.5955000000000001 13.985963378906254 0.6172500000000002 Q 13.961963378906253 0.6390000000000001 13.924463378906253 0.6390000000000001 Q 13.880963378906253 0.6390000000000001 13.860713378906254 0.6112500000000002 Q 13.840463378906254 0.5835000000000001 13.840463378906254 0.5490000000000002 Q 13.840463378906254 0.5100000000000001 13.859963378906254 0.4860000000000001 Q 13.879463378906253 0.4620000000000002 13.909463378906255 0.44100000000000017 Q 13.943963378906254 0.41700000000000015 13.998713378906254 0.39975000000000016 Q 14.053463378906253 0.3825000000000002 14.122463378906254 0.3825000000000002 Q 14.183963378906254 0.3825000000000002 14.227463378906254 0.39675000000000016 Q 14.270963378906254 0.41100000000000014 14.299463378906253 0.43800000000000017 Q 14.338463378906253 0.4740000000000001 14.350463378906253 0.5257500000000002 Q 14.362463378906254 0.5775000000000001 14.362463378906254 0.6495000000000002 L 14.362463378906254 1.0665000000000002 Q 14.362463378906254 1.104 14.373713378906254 1.1205 Q 14.384963378906253 1.1370000000000002 14.408963378906254 1.1370000000000002 Q 14.425463378906255 1.1370000000000002 14.440463378906253 1.1295000000000002 Q 14.455463378906254 1.122 14.476463378906253 1.1055000000000001 L 14.492963378906254 1.1310000000000002 Q 14.461463378906254 1.1550000000000002 14.432963378906253 1.1707500000000002 Q 14.404463378906254 1.1865 14.356463378906254 1.1865 Q 14.312963378906254 1.1865 14.284463378906255 1.1715000000000002 Q 14.255963378906253 1.1565 14.241713378906253 1.12725 Q 14.227463378906254 1.098 14.227463378906254 1.0530000000000002 Q 14.186963378906254 1.1205 14.130713378906254 1.1535000000000002 Q 14.074463378906254 1.1865 14.003963378906255 1.1865 M 14.057963378906253 1.1265 Q 14.107463378906253 1.1265 14.150213378906253 1.098 Q 14.192963378906253 1.0695000000000001 14.227463378906254 1.0125000000000002 L 14.227463378906254 0.7185000000000001 Q 14.209463378906253 0.7440000000000002 14.174963378906254 0.7612500000000002 Q 14.140463378906254 0.7785000000000002 14.099963378906253 0.7957500000000002 Q 14.059463378906253 0.8130000000000002 14.022713378906253 0.8362500000000002 Q 13.985963378906254 0.8595000000000002 13.961963378906253 0.8970000000000001 Q 13.937963378906254 0.9345000000000001 13.937963378906254 0.9945000000000002 Q 13.937963378906254 1.0545000000000002 13.970213378906253 1.0905000000000002 Q 14.002463378906254 1.1265 14.057963378906253 1.1265 M 15.23394213867188 0.3870000000000001 L 15.23394213867188 1.0140000000000002 Q 15.23394213867188 1.0815000000000001 15.25869213867188 1.1137500000000002 Q 15.28344213867188 1.1460000000000001 15.347942138671879 1.1460000000000001 L 15.347942138671879 1.1775000000000002 Q 15.301442138671879 1.1730000000000003 15.254942138671879 1.1730000000000003 Q 15.21144213867188 1.1730000000000003 15.17169213867188 1.1775000000000002 Q 15.13194213867188 1.1820000000000002 15.098942138671879 1.1940000000000002 L 15.098942138671879 1.0170000000000001 Q 15.061442138671879 1.1145 14.99319213867188 1.15575 Q 14.924942138671879 1.197 14.85294213867188 1.197 Q 14.80044213867188 1.197 14.76144213867188 1.1820000000000002 Q 14.722442138671878 1.1670000000000003 14.69694213867188 1.1400000000000001 Q 14.66844213867188 1.11 14.65794213867188 1.062 Q 14.64744213867188 1.0140000000000002 14.64744213867188 0.9435000000000001 L 14.64744213867188 0.5670000000000002 Q 14.64744213867188 0.49950000000000017 14.62344213867188 0.46725000000000017 Q 14.59944213867188 0.43500000000000016 14.533442138671878 0.43500000000000016 L 14.533442138671878 0.4035000000000002 Q 14.581442138671878 0.40800000000000014 14.62644213867188 0.40800000000000014 Q 14.66994213867188 0.40800000000000014 14.70969213867188 0.40275000000000016 Q 14.74944213867188 0.3975000000000002 14.782442138671879 0.3870000000000001 L 14.782442138671879 0.9765000000000001 Q 14.782442138671879 1.0230000000000001 14.78844213867188 1.062 Q 14.79444213867188 1.1010000000000002 14.818442138671879 1.1250000000000002 Q 14.84244213867188 1.1490000000000002 14.89644213867188 1.1490000000000002 Q 14.954942138671878 1.1490000000000002 15.00069213867188 1.1130000000000002 Q 15.04644213867188 1.0770000000000002 15.07269213867188 1.0155 Q 15.098942138671879 0.9540000000000002 15.098942138671879 0.8775000000000002 L 15.098942138671879 0.5670000000000002 Q 15.098942138671879 0.49950000000000017 15.07494213867188 0.46725000000000017 Q 15.050942138671878 0.43500000000000016 14.98494213867188 0.43500000000000016 L 14.98494213867188 0.4035000000000002 Q 15.03294213867188 0.40800000000000014 15.07794213867188 0.40800000000000014 Q 15.12144213867188 0.40800000000000014 15.161192138671879 0.40275000000000016 Q 15.200942138671879 0.3975000000000002 15.23394213867188 0.3870000000000001"
                  fill="#ffffff" fill-rule="nonzero"/>
        </g>
        <g clip-path="url(#SvgjsClipPath1001)">
            <g clip-path="url(#a4eda4257-9283-45ac-b7d2-5d03272d29cd10caac49-5c35-49e0-8633-cea979983297)">
                <path d=" M -0.42304096272279557 0.29035994572486656 L -0.7598609279339961 0.526543070804256 C -0.9439781721310827 0.25172689308127105 -1.2374969034565904 0.08377676858524902 -1.5794324794219101 0.03515609494551619 L -1.5328898672935687 -0.28152457078566817 L -1.6753812525555343 -0.20356743547435413 L -1.9625116847371715 0.029821740874408476 C -2.3296126850342223 0.07190000076057401 -2.64426500364424 0.24985763200882327 -2.834129231351299 0.5475424292351591 L -2.834129231351299 0.6291684865450541 C -2.644369403863711 0.9266892262836484 -2.3299557143267724 1.1045275429953585 -1.9631082574198677 1.1467102031009957 L -1.6976234707420546 1.3625551711394701 L -1.5330688390983778 1.4575245707856683 L -1.5794523651780001 1.14146036349327 C -1.2372930744566695 1.0928396898535373 -0.9436301713995101 0.9247553365039085 -0.7595278415194908 0.6496458438785981 L -0.42304096272279557 0.8827218195689452 C -0.42304096272279557 0.8827218195689452 -0.48565623721077467 0.6306400324957044 -0.42304096272279557 0.5728520252985415 C -0.37119879659650357 0.5250068961463135 -0.42304096272279557 0.29035994572486656 -0.42304096272279557 0.29035994572486656 M -2.501102474114241 0.6200210387437137 C -2.5475158288279984 0.6200210387437137 -2.585278879642662 0.5822729022461174 -2.585278879642662 0.535675604288529 C -2.585278879642662 0.4891727636723673 -2.5475158288279984 0.45132022695529916 -2.501102474114241 0.45132022695529916 C -2.454694090839506 0.45132022695529916 -2.417129897585741 0.4891727636723673 -2.417129897585741 0.535675604288529 C -2.417129897585741 0.5822729022461174 -2.454694090839506 0.6200210387437137 -2.501102474114241 0.6200210387437137 M -2.2590281937932275 0.9538581405414337 C -2.279515494004816 0.9538581405414337 -2.2961201003398584 0.7900591676291719 -2.2961201003398584 0.5880049714390225 C -2.2961201003398584 0.3859408323708281 -2.2795154940048166 0.2221468308975889 -2.2590281937932275 0.2221468308975889 C -2.238545865020661 0.2221468308975889 -2.2219412586856198 0.3859408323708281 -2.2219412586856198 0.5880049714390225 C -2.2219412586856198 0.7900591676291722 -2.238545865020661 0.9538581405414337 -2.2590281937932275 0.9538581405414337 M -2.017137856716045 1.0148378115910208 C -2.0376201854886116 1.0148378115910208 -2.0542247918236534 0.8237356955673674 -2.0542247918236534 0.5880049714390225 C -2.0542247918236534 0.35226927587165513 -2.0376201854886116 0.16116715984800162 -2.017137856716045 0.16116715984800162 C -1.9966455850654339 0.16116715984800162 -1.980040978730392 0.352269275871655 -1.980040978730392 0.5880049714390225 C -1.980040978730392 0.8237356955673674 -1.9966455850654339 1.0148378115910208 -2.017137856716045 1.0148378115910208 M -1.775237576760818 1.0148378115910208 C -1.7957248769724068 1.0148378115910208 -1.8123294833074488 0.8237356955673674 -1.8123294833074488 0.5880049714390225 C -1.8123294833074488 0.35226927587165513 -1.7957248769724072 0.16116715984800162 -1.775237576760818 0.16116715984800162 C -1.7547552479882516 0.16116715984800162 -1.73815064165321 0.352269275871655 -1.73815064165321 0.5880049714390225 C -1.73815064165321 0.8237356955673674 -1.7547552479882516 1.0148378115910208 -1.775237576760818 1.0148378115910208 M -1.5333472396836358 1.0148378115910208 C -1.5538295684562022 1.0148378115910208 -1.5704341747912438 0.8237356955673674 -1.5704341747912438 0.5880049714390225 C -1.5704341747912438 0.35226927587165513 -1.5538295684562022 0.16116715984800162 -1.5333472396836358 0.16116715984800162 C -1.5128649109110692 0.16116715984800162 -1.4962603045760277 0.352269275871655 -1.4962603045760277 0.5880049714390225 C -1.4962603045760277 0.8237356955673674 -1.5128649109110692 1.0148378115910208 -1.5333472396836358 1.0148378115910208 M -1.291451931167431 0.9538631119804559 C -1.3119342599399977 0.9538631119804559 -1.3285388662750393 0.7900591676291719 -1.3285388662750393 0.5880049714390224 C -1.3285388662750393 0.38594580380985044 -1.3119342599399977 0.2221468308975888 -1.291451931167431 0.2221468308975888 C -1.2709646309558424 0.2221468308975888 -1.2543649960598229 0.38594580380985044 -1.2543649960598229 0.5880049714390224 C -1.2543649960598229 0.7900591676291719 -1.2709646309558424 0.9538631119804559 -1.291451931167431 0.9538631119804559 M -1.0495566226512265 0.8319087413203039 C -1.0700389514237927 0.8319087413203039 -1.086648529197857 0.7227061117527813 -1.086648529197857 0.5880049714390223 C -1.086648529197857 0.4532938882472186 -1.0700389514237927 0.3441012015577408 -1.0495566226512265 0.3441012015577408 C -1.0290742938786601 0.3441012015577408 -1.0124696875436185 0.4532938882472186 -1.0124696875436185 0.5880049714390223 C -1.0124696875436185 0.7227061117527813 -1.0290742938786601 0.8319087413203039 -1.0495566226512265 0.8319087413203039"
                      fill="url(#gradient-ff95c0d0-2065-487e-9be2-7d1ec4f4778e_0)" transform="matrix(1,0,0,1,0,0)"
                      fill-rule="nonzero"/>
            </g>
        </g>
    </g>
    <defs>
        <clipPath id="SvgjsClipPath1001">
            <path d=" M -2.834129231351299 -0.28152457078566795 h 2.434129231351299 v 1.739049141571336 h -2.434129231351299 Z"/>
        </clipPath>
        <clipPath id="a4eda4257-9283-45ac-b7d2-5d03272d29cd10caac49-5c35-49e0-8633-cea979983297">
            <path d=" M -2.834129231351299 1.4575245707856683 L -0.39999834285365843 1.4575245707856683 L -0.39999834285365843 -0.28152457078566795 L -2.834129231351299 -0.28152457078566795 Z"/>
        </clipPath>
        <linearGradient id="gradient-ff95c0d0-2065-487e-9be2-7d1ec4f4778e_0" x1="0" x2="1" y1="0" y2="1">
            <stop stop-color="#e9c3ad" offset="0"/>
            <stop stop-color="#8a615c" offset="1"/>
        </linearGradient>
    </defs>
</svg>