<svg xmlns="http://www.w3.org/2000/svg" version="1.1" viewBox="0 0 8.47581519102771 2.6785677497350573">
    <g transform="matrix(1,0,0,1,2.539775405264514,0.6211511498675285)">
        <g>
            <path d=" M 0.1521045 0.024016499999999885 C 0.1521045 0.012452999999999936 0.147657 0.008005499999999888 0.135204 0.008005499999999888 L 0.0649335 0.008005499999999888 C 0.0542595 0.008005499999999888 0.0489225 0.013342499999999924 0.0489225 0.024016499999999885 L 0.0489225 0.6617879999999999 C 0.0489225 0.6724619999999999 0.0542595 0.6777989999999999 0.0649335 0.6777989999999999 L 0.314883 0.6777989999999999 C 0.332673 0.6777989999999999 0.33801 0.6733514999999999 0.343347 0.6608984999999999 L 0.3602475 0.6199815 C 0.3620265 0.6146444999999999 0.362916 0.6101969999999999 0.362916 0.6075284999999999 C 0.362916 0.5932964999999999 0.3531315 0.5844014999999999 0.33801 0.5844014999999999 L 0.1609995 0.5844014999999999 C 0.154773 0.5844014999999999 0.1521045 0.5808435 0.1521045 0.5719485 M 0.6938364938964843 0.42962849999999997 C 0.6938364938964843 0.4340759999999999 0.6929469938964843 0.43585499999999994 0.6876099938964844 0.43585499999999994 L 0.5506269938964843 0.43585499999999994 C 0.5452899938964844 0.43585499999999994 0.5444004938964844 0.4340759999999999 0.5444004938964844 0.42962849999999997 L 0.5444004938964844 0.1885739999999999 C 0.5444004938964844 0.14498849999999996 0.5693064938964844 0.0942869999999999 0.6191184938964843 0.0942869999999999 C 0.6689304938964844 0.0942869999999999 0.6938364938964843 0.14409899999999998 0.6938364938964843 0.1885739999999999 M 0.6938364938964843 0.6617879999999999 C 0.6938364938964843 0.6724619999999999 0.6991734938964843 0.6777989999999999 0.7098474938964843 0.6777989999999999 L 0.7801179938964844 0.6777989999999999 C 0.7925709938964843 0.6777989999999999 0.7970184938964844 0.6733514999999999 0.7970184938964844 0.6617879999999999 L 0.7970184938964844 0.19302149999999996 C 0.7970184938964844 0.08361299999999994 0.7311954938964843 -1.1102230246251565e-16 0.6191184938964843 -1.1102230246251565e-16 C 0.5061519938964844 -1.1102230246251565e-16 0.4412184938964843 0.08539199999999991 0.4412184938964843 0.19302149999999996 L 0.4412184938964843 0.43941299999999994 C 0.4367709938964843 0.4420814999999999 0.41987049389648434 0.44652899999999995 0.41987049389648434 0.46342949999999994 C 0.41987049389648434 0.47588249999999993 0.42787599389648434 0.49100399999999994 0.43499199389648435 0.5052359999999999 C 0.4376604938964843 0.5105729999999999 0.4412184938964843 0.5185784999999999 0.4412184938964843 0.5212469999999999 L 0.4412184938964843 0.6617879999999999 C 0.4412184938964843 0.6724619999999999 0.4465554938964843 0.6777989999999999 0.4572294938964843 0.6777989999999999 L 0.5274999938964844 0.6777989999999999 C 0.5399529938964843 0.6777989999999999 0.5444004938964844 0.6733514999999999 0.5444004938964844 0.6617879999999999 L 0.5444004938964844 0.5354789999999999 C 0.5444004938964844 0.5310314999999999 0.5452899938964844 0.5292524999999999 0.5506269938964843 0.5292524999999999 L 0.6876099938964844 0.5292524999999999 C 0.6929469938964843 0.5292524999999999 0.6938364938964843 0.5310314999999999 0.6938364938964843 0.5354789999999999 M 1.2639603896484375 0.40294349999999995 C 1.2639603896484375 0.39938549999999995 1.2648498896484375 0.39493799999999996 1.2684078896484374 0.3931589999999999 L 1.3262253896484375 0.3620264999999999 C 1.3306728896484374 0.35935799999999996 1.3404573896484373 0.3549104999999999 1.3466838896484374 0.3549104999999999 C 1.3689213896484373 0.3549104999999999 1.4552028896484375 0.3976064999999999 1.4552028896484375 0.4723244999999999 C 1.4552028896484375 0.5434844999999999 1.4045013896484373 0.5844014999999999 1.3368993896484374 0.5844014999999999 L 1.2728553896484374 0.5844014999999999 C 1.2666288896484375 0.5844014999999999 1.2639603896484375 0.5808435 1.2639603896484375 0.5719485 M 1.3217778896484373 0.1022924999999999 C 1.3635843896484374 0.1022924999999999 1.4027223896484373 0.11207699999999998 1.4027223896484373 0.15388349999999995 C 1.4027223896484373 0.20903249999999995 1.3217778896484373 0.26507099999999995 1.2701868896484374 0.28997699999999993 C 1.2684078896484374 0.2908664999999999 1.2639603896484375 0.2908664999999999 1.2639603896484375 0.2864189999999999 L 1.2639603896484375 0.11474549999999994 C 1.2639603896484375 0.10585049999999996 1.2666288896484375 0.1022924999999999 1.2728553896484374 0.1022924999999999 M 1.1767893896484374 0.008005499999999888 C 1.1661153896484373 0.008005499999999888 1.1607783896484374 0.013342499999999924 1.1607783896484374 0.024016499999999885 L 1.1607783896484374 0.6617879999999999 C 1.1607783896484374 0.6724619999999999 1.1661153896484373 0.6777989999999999 1.1767893896484374 0.6777989999999999 L 1.3413468896484373 0.6777989999999999 C 1.4694348896484373 0.6777989999999999 1.5574953896484374 0.603081 1.5574953896484374 0.4687664999999999 C 1.5574953896484374 0.3860429999999999 1.5147993896484375 0.3308939999999999 1.4409708896484374 0.29264549999999995 C 1.4729928896484374 0.25439699999999993 1.5059043896484374 0.21347999999999995 1.5059043896484374 0.15210449999999998 C 1.5059043896484374 0.05959649999999994 1.4374128896484373 0.008005499999999888 1.3449048896484375 0.008005499999999888 M 1.8928290717773437 0.42962849999999997 C 1.8928290717773437 0.4340759999999999 1.8919395717773437 0.43585499999999994 1.8866025717773436 0.43585499999999994 L 1.7496195717773437 0.43585499999999994 C 1.7442825717773438 0.43585499999999994 1.7433930717773438 0.4340759999999999 1.7433930717773438 0.42962849999999997 L 1.7433930717773438 0.1885739999999999 C 1.7433930717773438 0.14498849999999996 1.7682990717773437 0.0942869999999999 1.8181110717773437 0.0942869999999999 C 1.8679230717773438 0.0942869999999999 1.8928290717773437 0.14409899999999998 1.8928290717773437 0.1885739999999999 M 1.8928290717773437 0.6617879999999999 C 1.8928290717773437 0.6724619999999999 1.8981660717773436 0.6777989999999999 1.9088400717773437 0.6777989999999999 L 1.9791105717773436 0.6777989999999999 C 1.9915635717773437 0.6777989999999999 1.9960110717773438 0.6733514999999999 1.9960110717773438 0.6617879999999999 L 1.9960110717773438 0.19302149999999996 C 1.9960110717773438 0.08361299999999994 1.9301880717773436 -1.1102230246251565e-16 1.8181110717773437 -1.1102230246251565e-16 C 1.7051445717773437 -1.1102230246251565e-16 1.6402110717773437 0.08539199999999991 1.6402110717773437 0.19302149999999996 L 1.6402110717773437 0.43941299999999994 C 1.6357635717773438 0.4420814999999999 1.6188630717773438 0.44652899999999995 1.6188630717773438 0.46342949999999994 C 1.6188630717773438 0.47588249999999993 1.6268685717773437 0.49100399999999994 1.6339845717773438 0.5052359999999999 C 1.6366530717773438 0.5105729999999999 1.6402110717773437 0.5185784999999999 1.6402110717773437 0.5212469999999999 L 1.6402110717773437 0.6617879999999999 C 1.6402110717773437 0.6724619999999999 1.6455480717773436 0.6777989999999999 1.6562220717773437 0.6777989999999999 L 1.7264925717773436 0.6777989999999999 C 1.7389455717773437 0.6777989999999999 1.7433930717773438 0.6733514999999999 1.7433930717773438 0.6617879999999999 L 1.7433930717773438 0.5354789999999999 C 1.7433930717773438 0.5310314999999999 1.7442825717773438 0.5292524999999999 1.7496195717773437 0.5292524999999999 L 1.8866025717773436 0.5292524999999999 C 1.8919395717773437 0.5292524999999999 1.8928290717773437 0.5310314999999999 1.8928290717773437 0.5354789999999999 M 2.115179315185547 0.6546719999999999 C 2.115179315185547 0.6689039999999999 2.124963815185547 0.6777989999999999 2.1400853151855466 0.6777989999999999 L 2.1925658151855467 0.6777989999999999 C 2.212134815185547 0.6777989999999999 2.218361315185547 0.6653459999999999 2.218361315185547 0.6546719999999999 L 2.218361315185547 0.5434844999999999 C 2.218361315185547 0.5372579999999999 2.2210298151855468 0.5310314999999999 2.2263668151855467 0.5274734999999999 L 2.2663943151855466 0.4972304999999999 C 2.2690628151855465 0.49545149999999993 2.275289315185547 0.49456199999999995 2.278847315185547 0.5007885 L 2.3651288151855465 0.660009 C 2.372244815185547 0.6733514999999999 2.3846978151855467 0.6769094999999999 2.3989298151855465 0.6777989999999999 L 2.465642315185547 0.6777989999999999 C 2.4780953151855467 0.6777989999999999 2.4825428151855466 0.6733514999999999 2.4825428151855466 0.6626774999999999 C 2.4825428151855466 0.6537824999999999 2.4763163151855467 0.6395504999999999 2.468310815185547 0.6253184999999999 L 2.3606813151855466 0.43852349999999996 C 2.3589023151855466 0.43585499999999994 2.3589023151855466 0.4331864999999999 2.3606813151855466 0.43140749999999994 C 2.4256148151855466 0.36914249999999993 2.469200315185547 0.29175599999999996 2.469200315185547 0.20102699999999996 C 2.469200315185547 0.08717099999999989 2.398040315185547 0.008005499999999888 2.2628363151855466 0.008005499999999888 L 2.1400853151855466 0.008005499999999888 C 2.124963815185547 0.008005499999999888 2.115179315185547 0.017789999999999973 2.115179315185547 0.032021999999999884 M 2.218361315185547 0.10585049999999996 C 2.218361315185547 0.09695549999999997 2.2210298151855468 0.09339749999999991 2.2272563151855467 0.09339749999999991 L 2.271731315185547 0.09339749999999991 C 2.3304383151855466 0.09339749999999991 2.3660183151855465 0.14587799999999995 2.3660183151855465 0.20369549999999992 C 2.3660183151855465 0.30154049999999993 2.2699523151855465 0.37625849999999994 2.2325933151855466 0.39938549999999995 C 2.2299248151855466 0.4011644999999999 2.2272563151855467 0.4011644999999999 2.2254773151855467 0.4011644999999999 C 2.2210298151855468 0.4011644999999999 2.218361315185547 0.39671699999999993 2.218361315185547 0.38871149999999993 M 2.823233476318359 0.42962849999999997 C 2.823233476318359 0.4340759999999999 2.8223439763183595 0.43585499999999994 2.817006976318359 0.43585499999999994 L 2.6800239763183593 0.43585499999999994 C 2.6746869763183594 0.43585499999999994 2.6737974763183594 0.4340759999999999 2.6737974763183594 0.42962849999999997 L 2.6737974763183594 0.1885739999999999 C 2.6737974763183594 0.14498849999999996 2.6987034763183595 0.0942869999999999 2.7485154763183592 0.0942869999999999 C 2.7983274763183594 0.0942869999999999 2.823233476318359 0.14409899999999998 2.823233476318359 0.1885739999999999 M 2.823233476318359 0.6617879999999999 C 2.823233476318359 0.6724619999999999 2.8285704763183595 0.6777989999999999 2.8392444763183593 0.6777989999999999 L 2.909514976318359 0.6777989999999999 C 2.9219679763183595 0.6777989999999999 2.9264154763183594 0.6733514999999999 2.9264154763183594 0.6617879999999999 L 2.9264154763183594 0.19302149999999996 C 2.9264154763183594 0.08361299999999994 2.8605924763183594 -1.1102230246251565e-16 2.7485154763183592 -1.1102230246251565e-16 C 2.6355489763183595 -1.1102230246251565e-16 2.5706154763183595 0.08539199999999991 2.5706154763183595 0.19302149999999996 L 2.5706154763183595 0.43941299999999994 C 2.566167976318359 0.4420814999999999 2.5492674763183594 0.44652899999999995 2.5492674763183594 0.46342949999999994 C 2.5492674763183594 0.47588249999999993 2.5572729763183593 0.49100399999999994 2.564388976318359 0.5052359999999999 C 2.567057476318359 0.5105729999999999 2.5706154763183595 0.5185784999999999 2.5706154763183595 0.5212469999999999 L 2.5706154763183595 0.6617879999999999 C 2.5706154763183595 0.6724619999999999 2.5759524763183594 0.6777989999999999 2.5866264763183593 0.6777989999999999 L 2.656896976318359 0.6777989999999999 C 2.6693499763183595 0.6777989999999999 2.6737974763183594 0.6733514999999999 2.6737974763183594 0.6617879999999999 L 2.6737974763183594 0.5354789999999999 C 2.6737974763183594 0.5310314999999999 2.6746869763183594 0.5292524999999999 2.6800239763183593 0.5292524999999999 L 2.817006976318359 0.5292524999999999 C 2.8223439763183595 0.5292524999999999 2.823233476318359 0.5310314999999999 2.823233476318359 0.5354789999999999 M 3.4262897197265625 0.3575789999999999 C 3.4262897197265625 0.19568999999999992 3.387151719726562 -1.1102230246251565e-16 3.224373219726562 -1.1102230246251565e-16 C 3.0624842197265623 -1.1102230246251565e-16 3.0233462197265624 0.19480049999999993 3.0233462197265624 0.3575789999999999 C 3.0233462197265624 0.5159099999999999 3.0651527197265622 0.6893624999999999 3.2145887197265623 0.6973679999999999 L 3.2501687197265623 0.7623015 C 3.256395219726562 0.7729754999999999 3.263511219726562 0.7827599999999999 3.2777432197265624 0.7827599999999999 L 3.3417872197265623 0.7827599999999999 C 3.355129719726562 0.7827599999999999 3.361356219726562 0.7711965 3.353350719726562 0.7569644999999999 L 3.3115442197265623 0.6751305 C 3.4004942197265624 0.6226499999999999 3.4262897197265625 0.48388799999999993 3.4262897197265625 0.3575789999999999 M 3.224373219726562 0.08005499999999999 C 3.3159917197265623 0.08005499999999999 3.323107719726562 0.2588444999999999 3.323107719726562 0.3540209999999999 C 3.323107719726562 0.4500869999999999 3.3159917197265623 0.6093074999999999 3.224373219726562 0.6093074999999999 C 3.1825667197265624 0.6093074999999999 3.1265282197265623 0.5826224999999999 3.1265282197265623 0.3540209999999999 C 3.1265282197265623 0.25795499999999993 3.133644219726562 0.08005499999999999 3.224373219726562 0.08005499999999999 M 3.898614654052734 0.024016499999999885 C 3.898614654052734 0.012452999999999936 3.894167154052734 0.008005499999999888 3.8817141540527342 0.008005499999999888 L 3.8114436540527343 0.008005499999999888 C 3.800769654052734 0.008005499999999888 3.795432654052734 0.013342499999999924 3.795432654052734 0.024016499999999885 L 3.795432654052734 0.4821089999999999 C 3.795432654052734 0.539037 3.769637154052734 0.5915174999999999 3.710930154052734 0.5915174999999999 C 3.6531126540527343 0.5915174999999999 3.6264276540527343 0.539037 3.6264276540527343 0.4821089999999999 L 3.6264276540527343 0.024016499999999885 C 3.6264276540527343 0.012452999999999936 3.6219801540527343 0.008005499999999888 3.609527154052734 0.008005499999999888 L 3.539256654052734 0.008005499999999888 C 3.5285826540527343 0.008005499999999888 3.5232456540527344 0.013342499999999924 3.5232456540527344 0.024016499999999885 L 3.5232456540527344 0.4963409999999999 C 3.5232456540527344 0.6075284999999999 3.5917371540527343 0.6849149999999999 3.710930154052734 0.6849149999999999 C 3.830123154052734 0.6849149999999999 3.898614654052734 0.6075284999999999 3.898614654052734 0.4963409999999999 M 4.212592518310546 0.6858044999999999 C 4.313106018310546 0.6858044999999999 4.3646970183105465 0.579954 4.3646970183105465 0.5506004999999999 C 4.3646970183105465 0.5283629999999999 4.321111518310547 0.5043464999999999 4.301542518310547 0.5043464999999999 C 4.288200018310547 0.5043464999999999 4.282863018310547 0.517689 4.273968018310547 0.5345894999999999 C 4.262404518310547 0.5594954999999999 4.247283018310546 0.5924069999999999 4.215261018310547 0.5924069999999999 C 4.177902018310546 0.5924069999999999 4.130758518310547 0.5603849999999999 4.121863518310547 0.4803299999999999 C 4.120974018310546 0.4723244999999999 4.121863518310547 0.4687664999999999 4.126311018310547 0.4687664999999999 L 4.214371518310546 0.4687664999999999 C 4.229493018310547 0.4687664999999999 4.268631018310547 0.41450699999999996 4.268631018310547 0.39671699999999993 C 4.268631018310547 0.39137999999999995 4.266852018310547 0.37536899999999995 4.242835518310547 0.37536899999999995 L 4.121863518310547 0.37536899999999995 C 4.114747518310547 0.37536899999999995 4.111189518310547 0.37181099999999995 4.111189518310547 0.3664739999999999 C 4.111189518310547 0.2793029999999999 4.129869018310547 0.09339749999999991 4.215261018310547 0.09339749999999991 C 4.244614518310547 0.09339749999999991 4.260625518310547 0.13075649999999994 4.260625518310547 0.17167349999999992 C 4.260625518310547 0.18768449999999992 4.271299518310546 0.19480049999999993 4.282863018310547 0.19480049999999993 C 4.308658518310547 0.19480049999999993 4.357581018310547 0.16277849999999994 4.357581018310547 0.14409899999999998 C 4.357581018310547 0.06671249999999995 4.3024320183105464 -1.1102230246251565e-16 4.222377018310547 -1.1102230246251565e-16 C 4.049814018310546 -1.1102230246251565e-16 4.008007518310547 0.20636399999999994 4.008007518310547 0.3780374999999999 C 4.008007518310547 0.3824849999999999 4.007118018310547 0.38337449999999995 4.006228518310547 0.38426399999999994 C 3.9973335183105467 0.3896009999999999 3.986659518310547 0.39671699999999993 3.986659518310547 0.41183849999999994 C 3.986659518310547 0.43229699999999993 4.005339018310547 0.44830799999999993 4.016013018310547 0.4660979999999999 C 4.035582018310547 0.5861804999999999 4.093399518310546 0.6858044999999999 4.212592518310546 0.6858044999999999 M 4.725840533203124 0.1022924999999999 C 4.736514533203124 0.1022924999999999 4.741851533203125 0.09695549999999997 4.741851533203125 0.0862814999999999 L 4.741851533203125 0.024905999999999984 C 4.741851533203125 0.012452999999999936 4.737404033203124 0.008005499999999888 4.725840533203124 0.008005499999999888 L 4.424300033203124 0.008005499999999888 C 4.412736533203124 0.008005499999999888 4.408289033203125 0.012452999999999936 4.408289033203125 0.024905999999999984 L 4.408289033203125 0.0862814999999999 C 4.408289033203125 0.09695549999999997 4.4136260332031245 0.1022924999999999 4.424300033203124 0.1022924999999999 L 4.514139533203124 0.1022924999999999 C 4.520366033203125 0.1022924999999999 4.523034533203124 0.10585049999999996 4.523034533203124 0.11474549999999994 L 4.523034533203124 0.6546719999999999 C 4.523034533203124 0.6689039999999999 4.532819033203125 0.6777989999999999 4.547940533203125 0.6777989999999999 L 4.601310533203124 0.6777989999999999 C 4.620879533203125 0.6777989999999999 4.627106033203124 0.6653459999999999 4.627106033203124 0.6546719999999999 L 4.627106033203124 0.11474549999999994 C 4.627106033203124 0.10585049999999996 4.629774533203125 0.1022924999999999 4.636001033203124 0.1022924999999999 M 5.1243465227050775 0.1022924999999999 C 5.135020522705078 0.1022924999999999 5.140357522705078 0.09695549999999997 5.140357522705078 0.0862814999999999 L 5.140357522705078 0.024905999999999984 C 5.140357522705078 0.012452999999999936 5.135910022705078 0.008005499999999888 5.1243465227050775 0.008005499999999888 L 4.822806022705078 0.008005499999999888 C 4.8112425227050775 0.008005499999999888 4.806795022705078 0.012452999999999936 4.806795022705078 0.024905999999999984 L 4.806795022705078 0.0862814999999999 C 4.806795022705078 0.09695549999999997 4.812132022705078 0.1022924999999999 4.822806022705078 0.1022924999999999 L 4.912645522705078 0.1022924999999999 C 4.918872022705078 0.1022924999999999 4.921540522705078 0.10585049999999996 4.921540522705078 0.11474549999999994 L 4.921540522705078 0.6546719999999999 C 4.921540522705078 0.6689039999999999 4.931325022705078 0.6777989999999999 4.946446522705078 0.6777989999999999 L 4.9998165227050775 0.6777989999999999 C 5.019385522705078 0.6777989999999999 5.025612022705078 0.6653459999999999 5.025612022705078 0.6546719999999999 L 5.025612022705078 0.11474549999999994 C 5.025612022705078 0.10585049999999996 5.028280522705078 0.1022924999999999 5.034507022705077 0.1022924999999999 M 5.382322370361328 0.6858044999999999 C 5.482835870361328 0.6858044999999999 5.534426870361328 0.579954 5.534426870361328 0.5506004999999999 C 5.534426870361328 0.5283629999999999 5.490841370361328 0.5043464999999999 5.471272370361327 0.5043464999999999 C 5.457929870361328 0.5043464999999999 5.452592870361327 0.517689 5.443697870361327 0.5345894999999999 C 5.432134370361328 0.5594954999999999 5.417012870361328 0.5924069999999999 5.384990870361327 0.5924069999999999 C 5.347631870361328 0.5924069999999999 5.300488370361328 0.5603849999999999 5.291593370361327 0.4803299999999999 C 5.290703870361328 0.4723244999999999 5.291593370361327 0.4687664999999999 5.2960408703613275 0.4687664999999999 L 5.384101370361328 0.4687664999999999 C 5.399222870361328 0.4687664999999999 5.438360870361327 0.41450699999999996 5.438360870361327 0.39671699999999993 C 5.438360870361327 0.39137999999999995 5.436581870361327 0.37536899999999995 5.412565370361327 0.37536899999999995 L 5.291593370361327 0.37536899999999995 C 5.284477370361327 0.37536899999999995 5.280919370361327 0.37181099999999995 5.280919370361327 0.3664739999999999 C 5.280919370361327 0.2793029999999999 5.2995988703613275 0.09339749999999991 5.384990870361327 0.09339749999999991 C 5.414344370361327 0.09339749999999991 5.430355370361328 0.13075649999999994 5.430355370361328 0.17167349999999992 C 5.430355370361328 0.18768449999999992 5.441029370361328 0.19480049999999993 5.452592870361327 0.19480049999999993 C 5.478388370361327 0.19480049999999993 5.527310870361328 0.16277849999999994 5.527310870361328 0.14409899999999998 C 5.527310870361328 0.06671249999999995 5.472161870361328 -1.1102230246251565e-16 5.392106870361328 -1.1102230246251565e-16 C 5.219543870361328 -1.1102230246251565e-16 5.177737370361328 0.20636399999999994 5.177737370361328 0.3780374999999999 C 5.177737370361328 0.3824849999999999 5.176847870361327 0.38337449999999995 5.175958370361328 0.38426399999999994 C 5.167063370361327 0.3896009999999999 5.156389370361327 0.39671699999999993 5.156389370361327 0.41183849999999994 C 5.156389370361327 0.43229699999999993 5.1750688703613275 0.44830799999999993 5.185742870361327 0.4660979999999999 C 5.205311870361328 0.5861804999999999 5.2631293703613276 0.6858044999999999 5.382322370361328 0.6858044999999999"
                  fill="#FFFFFF" fill-rule="nonzero" />
            <path d=" M 0.158592 1.4369374500000003 Q 0.149184 1.4362654500000003 0.13473600000000002 1.4355934500000003 Q 0.120288 1.4349214500000003 0.102816 1.4349214500000003 L 0.057120000000000004 1.4355934500000003 Q 0.045024 1.4362654500000003 0.023520000000000003 1.4362654500000003 Q 0.022176 1.4362654500000003 0.022176 1.4322334500000002 Q 0.022176 1.4282014500000002 0.023520000000000003 1.4282014500000002 Q 0.049056 1.4282014500000002 0.06081600000000001 1.4248414500000002 Q 0.072576 1.4214814500000004 0.07694400000000001 1.4117374500000002 Q 0.08131200000000001 1.4019934500000002 0.08131200000000001 1.3818334500000002 L 0.08131200000000001 1.0706974500000002 Q 0.08131200000000001 1.0505374500000002 0.07728 1.0411294500000001 Q 0.07324800000000001 1.0317214500000003 0.06148800000000001 1.0280254500000003 Q 0.04972800000000001 1.0243294500000002 0.024192 1.0243294500000002 Q 0.022848000000000004 1.0243294500000002 0.022848000000000004 1.0202974500000002 Q 0.022848000000000004 1.0162654500000001 0.024192 1.0162654500000001 L 0.057792 1.0169374500000004 Q 0.08601600000000001 1.0182814500000004 0.102816 1.0182814500000004 Q 0.12835200000000002 1.0182814500000004 0.15321600000000002 1.0162654500000001 Q 0.18278400000000003 1.0149214500000001 0.19420800000000002 1.0149214500000001 Q 0.26409600000000005 1.0149214500000001 0.317856 1.0418014500000004 Q 0.37161600000000006 1.0686814500000001 0.40152000000000004 1.1150494500000003 Q 0.43142400000000003 1.1614174500000003 0.43142400000000003 1.2192094500000001 Q 0.43142400000000003 1.2843934500000003 0.40084800000000004 1.3344574500000004 Q 0.37027200000000005 1.3845214500000003 0.317856 1.4117374500000002 Q 0.26544 1.4389534500000003 0.20361600000000002 1.4389534500000003 Q 0.18412800000000001 1.4389534500000003 0.158592 1.4369374500000003 M 0.29232 1.4063614500000003 Q 0.33398400000000006 1.3838494500000003 0.35716800000000004 1.3398334500000002 Q 0.380352 1.2958174500000004 0.380352 1.2339934500000003 Q 0.380352 1.1755294500000002 0.35817600000000005 1.1278174500000002 Q 0.336 1.0801054500000002 0.29500800000000005 1.0525534500000002 Q 0.254016 1.0250014500000002 0.20025600000000002 1.0250014500000002 Q 0.17136 1.0250014500000002 0.155568 1.0283614500000002 Q 0.139776 1.0317214500000003 0.132384 1.0418014500000004 Q 0.12499200000000002 1.0518814500000002 0.12499200000000002 1.0720414500000002 L 0.12499200000000002 1.3744414500000002 Q 0.12499200000000002 1.3946014500000004 0.13070400000000001 1.4060254500000002 Q 0.136416 1.4174494500000003 0.152208 1.4231614500000003 Q 0.168 1.4288734500000002 0.19689600000000002 1.4288734500000002 Q 0.25065600000000005 1.4288734500000002 0.29232 1.4063614500000003 M 0.792945890625 1.3347934500000003 Q 0.794961890625 1.3347934500000003 0.7966418906250001 1.3354654500000003 Q 0.798321890625 1.3361374500000003 0.798321890625 1.3374814500000003 Q 0.7922738906250001 1.3798174500000002 0.7922738906250001 1.4261854500000002 Q 0.7922738906250001 1.4315614500000002 0.7899218906250001 1.4339134500000004 Q 0.787569890625 1.4362654500000003 0.7815218906250001 1.4362654500000003 L 0.499953890625 1.4362654500000003 Q 0.49860989062500005 1.4362654500000003 0.49860989062500005 1.4322334500000002 Q 0.49860989062500005 1.4282014500000002 0.499953890625 1.4282014500000002 Q 0.5254898906250001 1.4282014500000002 0.5372498906250001 1.4248414500000002 Q 0.549009890625 1.4214814500000004 0.553377890625 1.4117374500000002 Q 0.557745890625 1.4019934500000002 0.557745890625 1.3818334500000002 L 0.557745890625 1.0706974500000002 Q 0.557745890625 1.0505374500000002 0.553377890625 1.0411294500000001 Q 0.549009890625 1.0317214500000003 0.5372498906250001 1.0280254500000003 Q 0.5254898906250001 1.0243294500000002 0.499953890625 1.0243294500000002 Q 0.49860989062500005 1.0243294500000002 0.49860989062500005 1.0202974500000002 Q 0.49860989062500005 1.0162654500000001 0.499953890625 1.0162654500000001 L 0.770097890625 1.0162654500000001 Q 0.7761458906250001 1.0162654500000001 0.7761458906250001 1.0223134500000002 L 0.7774898906250001 1.1049694500000002 Q 0.7774898906250001 1.1069854500000003 0.774129890625 1.1073214500000002 Q 0.770769890625 1.1076574500000003 0.770097890625 1.1056414500000002 Q 0.768081890625 1.0700254500000002 0.748593890625 1.0502014500000003 Q 0.7291058906250001 1.0303774500000003 0.696849890625 1.0303774500000003 L 0.6558578906250001 1.0303774500000003 Q 0.632337890625 1.0303774500000003 0.621249890625 1.0340734500000002 Q 0.610161890625 1.0377694500000003 0.605793890625 1.0468414500000003 Q 0.6014258906250001 1.0559134500000003 0.6014258906250001 1.0740574500000002 L 0.6014258906250001 1.2104734500000003 L 0.683409890625 1.2104734500000003 Q 0.7156658906250001 1.2104734500000003 0.729441890625 1.1997214500000002 Q 0.743217890625 1.1889694500000003 0.743217890625 1.1634334500000003 Q 0.743217890625 1.1620894500000003 0.747249890625 1.1620894500000003 Q 0.7512818906250001 1.1620894500000003 0.7512818906250001 1.1634334500000003 L 0.750609890625 1.2178654500000003 Q 0.750609890625 1.2373534500000003 0.7512818906250001 1.2474334500000002 L 0.7519538906250001 1.2796894500000002 Q 0.7519538906250001 1.2810334500000002 0.747921890625 1.2810334500000002 Q 0.743889890625 1.2810334500000002 0.743889890625 1.2796894500000002 Q 0.743889890625 1.2501214500000002 0.729441890625 1.2373534500000003 Q 0.7149938906250001 1.2245854500000002 0.6813938906250001 1.2245854500000002 L 0.6014258906250001 1.2245854500000002 L 0.6014258906250001 1.3791454500000002 Q 0.6014258906250001 1.3979614500000004 0.6054578906250001 1.4066974500000002 Q 0.609489890625 1.4154334500000003 0.620241890625 1.4187934500000003 Q 0.6309938906250001 1.4221534500000004 0.6538418906250001 1.4221534500000004 L 0.7076018906250001 1.4221534500000004 Q 0.7398578906250001 1.4221534500000004 0.761361890625 1.3993054500000002 Q 0.7828658906250001 1.3764574500000002 0.7902578906250001 1.3361374500000003 Q 0.7902578906250001 1.3347934500000003 0.792945890625 1.3347934500000003 M 1.066111265625 1.0498654500000002 Q 1.044943265625 1.0713694500000002 1.035535265625 1.1231134500000002 Q 1.035535265625 1.1244574500000002 1.031839265625 1.1244574500000002 Q 1.028143265625 1.1244574500000002 1.028143265625 1.1231134500000002 Q 1.030831265625 1.0989214500000002 1.034191265625 1.0599454500000003 Q 1.037551265625 1.0209694500000002 1.037551265625 1.0014814500000002 Q 1.037551265625 0.9981214500000002 1.041247265625 0.9981214500000002 Q 1.044943265625 0.9981214500000002 1.044943265625 1.0014814500000002 Q 1.044943265625 1.0162654500000001 1.081231265625 1.0162654500000001 Q 1.138351265625 1.0182814500000004 1.2163032656250001 1.0182814500000004 Q 1.255951265625 1.0182814500000004 1.300303265625 1.0169374500000004 L 1.3459992656250002 1.0162654500000001 Q 1.370191265625 1.0162654500000001 1.3819512656250001 1.0129054500000003 Q 1.3937112656250001 1.0095454500000003 1.3970712656250002 0.9994654500000002 Q 1.397743265625 0.9967774500000002 1.401103265625 0.9967774500000002 Q 1.404463265625 0.9967774500000002 1.404463265625 0.9994654500000002 Q 1.402447265625 1.0189534500000001 1.400431265625 1.0586014500000003 Q 1.3984152656250002 1.0982494500000002 1.3984152656250002 1.1231134500000002 Q 1.3984152656250002 1.1244574500000002 1.3943832656250001 1.1244574500000002 Q 1.390351265625 1.1244574500000002 1.390351265625 1.1231134500000002 Q 1.388335265625 1.0706974500000002 1.3688472656250001 1.0495294500000003 Q 1.349359265625 1.0283614500000002 1.304335265625 1.0283614500000002 Q 1.274095265625 1.0283614500000002 1.261327265625 1.0310494500000003 Q 1.248559265625 1.0337374500000003 1.2438552656250002 1.0424734500000001 Q 1.239151265625 1.0512094500000002 1.239151265625 1.0720414500000002 L 1.239151265625 1.3818334500000002 Q 1.239151265625 1.4026654500000002 1.2438552656250002 1.4120734500000003 Q 1.248559265625 1.4214814500000004 1.261999265625 1.4248414500000002 Q 1.275439265625 1.4282014500000002 1.304335265625 1.4282014500000002 Q 1.306351265625 1.4282014500000002 1.306351265625 1.4322334500000002 Q 1.306351265625 1.4362654500000003 1.304335265625 1.4362654500000003 Q 1.282159265625 1.4362654500000003 1.2687192656250001 1.4355934500000003 L 1.2163032656250001 1.4349214500000003 L 1.1659032656250001 1.4355934500000003 Q 1.152463265625 1.4362654500000003 1.128943265625 1.4362654500000003 Q 1.127599265625 1.4362654500000003 1.127599265625 1.4322334500000002 Q 1.127599265625 1.4282014500000002 1.128943265625 1.4282014500000002 Q 1.157839265625 1.4282014500000002 1.171279265625 1.4248414500000002 Q 1.184719265625 1.4214814500000004 1.189759265625 1.4117374500000002 Q 1.194799265625 1.4019934500000002 1.194799265625 1.3818334500000002 L 1.194799265625 1.0706974500000002 Q 1.194799265625 1.0498654500000002 1.1900952656250001 1.0414654500000002 Q 1.185391265625 1.0330654500000003 1.172623265625 1.0307134500000004 Q 1.159855265625 1.0283614500000002 1.129615265625 1.0283614500000002 Q 1.087279265625 1.0283614500000002 1.066111265625 1.0498654500000002 M 1.9225565625 1.4322334500000002 Q 1.9225565625 1.4362654500000003 1.9205405625 1.4362654500000003 Q 1.8997085625 1.4362654500000003 1.8876125625 1.4355934500000003 L 1.8412445625 1.4349214500000003 L 1.7921885625 1.4355934500000003 Q 1.7800925625000001 1.4362654500000003 1.7599325625 1.4362654500000003 Q 1.7579165625 1.4362654500000003 1.7579165625 1.4322334500000002 Q 1.7579165625 1.4282014500000002 1.7599325625 1.4282014500000002 Q 1.7861405625 1.4282014500000002 1.7982365625 1.4248414500000002 Q 1.8103325625 1.4214814500000004 1.8147005625000001 1.4117374500000002 Q 1.8190685625 1.4019934500000002 1.8190685625 1.3818334500000002 L 1.8190685625 1.2245854500000002 L 1.5610205625 1.2245854500000002 L 1.5610205625 1.3818334500000002 Q 1.5610205625 1.4019934500000002 1.5653885625 1.4117374500000002 Q 1.5697565625 1.4214814500000004 1.5818525625 1.4248414500000002 Q 1.5939485625 1.4282014500000002 1.6201565625 1.4282014500000002 Q 1.6215005625 1.4282014500000002 1.6215005625 1.4322334500000002 Q 1.6215005625 1.4362654500000003 1.6201565625 1.4362654500000003 Q 1.5993245625 1.4362654500000003 1.5872285625 1.4355934500000003 L 1.5388445625 1.4349214500000003 L 1.4924765625 1.4355934500000003 Q 1.4803805625 1.4362654500000003 1.4588765625 1.4362654500000003 Q 1.4575325625 1.4362654500000003 1.4575325625 1.4322334500000002 Q 1.4575325625 1.4282014500000002 1.4588765625 1.4282014500000002 Q 1.4844125625 1.4282014500000002 1.4968445625 1.4248414500000002 Q 1.5092765625 1.4214814500000004 1.5136445625 1.4117374500000002 Q 1.5180125625 1.4019934500000002 1.5180125625 1.3818334500000002 L 1.5180125625 1.0706974500000002 Q 1.5180125625 1.0505374500000002 1.5136445625 1.0411294500000001 Q 1.5092765625 1.0317214500000003 1.4971805625 1.0280254500000003 Q 1.4850845625 1.0243294500000002 1.4595485625 1.0243294500000002 Q 1.4582045625 1.0243294500000002 1.4582045625 1.0202974500000002 Q 1.4582045625 1.0162654500000001 1.4595485625 1.0162654500000001 L 1.4938205625 1.0169374500000004 Q 1.5220445625 1.0182814500000004 1.5388445625 1.0182814500000004 Q 1.5583325625 1.0182814500000004 1.5879005625 1.0169374500000004 L 1.6201565625 1.0162654500000001 Q 1.6215005625 1.0162654500000001 1.6215005625 1.0202974500000002 Q 1.6215005625 1.0243294500000002 1.6201565625 1.0243294500000002 Q 1.5946205625 1.0243294500000002 1.5821885625 1.0283614500000002 Q 1.5697565625 1.0323934500000003 1.5653885625 1.0421374500000002 Q 1.5610205625 1.0518814500000002 1.5610205625 1.0720414500000002 L 1.5610205625 1.2104734500000003 L 1.8190685625 1.2104734500000003 L 1.8190685625 1.0720414500000002 Q 1.8190685625 1.0518814500000002 1.8147005625000001 1.0421374500000002 Q 1.8103325625 1.0323934500000003 1.7982365625 1.0283614500000002 Q 1.7861405625 1.0243294500000002 1.7599325625 1.0243294500000002 Q 1.7579165625 1.0243294500000002 1.7579165625 1.0202974500000002 Q 1.7579165625 1.0162654500000001 1.7599325625 1.0162654500000001 L 1.7921885625 1.0169374500000004 Q 1.8217565625 1.0182814500000004 1.8412445625 1.0182814500000004 Q 1.8593885625 1.0182814500000004 1.8876125625 1.0169374500000004 L 1.9205405625 1.0162654500000001 Q 1.9225565625 1.0162654500000001 1.9225565625 1.0202974500000002 Q 1.9225565625 1.0243294500000002 1.9205405625 1.0243294500000002 Q 1.8950045625 1.0243294500000002 1.8829085625 1.0280254500000003 Q 1.8708125625 1.0317214500000003 1.8664445625 1.0411294500000001 Q 1.8620765625 1.0505374500000002 1.8620765625 1.0706974500000002 L 1.8620765625 1.3818334500000002 Q 1.8620765625 1.4019934500000002 1.8664445625 1.4117374500000002 Q 1.8708125625 1.4214814500000004 1.8829085625 1.4248414500000002 Q 1.8950045625 1.4282014500000002 1.9205405625 1.4282014500000002 Q 1.9225565625 1.4282014500000002 1.9225565625 1.4322334500000002 M 2.424521859375 1.4322334500000002 Q 2.424521859375 1.4362654500000003 2.421833859375 1.4362654500000003 Q 2.409065859375 1.4362654500000003 2.3821858593750003 1.4349214500000003 Q 2.355305859375 1.4335774500000003 2.343209859375 1.4335774500000003 Q 2.3284258593750002 1.4335774500000003 2.305577859375 1.4349214500000003 Q 2.284073859375 1.4362654500000003 2.272649859375 1.4362654500000003 Q 2.269961859375 1.4362654500000003 2.269961859375 1.4322334500000002 Q 2.269961859375 1.4282014500000002 2.272649859375 1.4282014500000002 Q 2.297513859375 1.4282014500000002 2.308937859375 1.4234974500000002 Q 2.320361859375 1.4187934500000003 2.320361859375 1.4073694500000002 Q 2.320361859375 1.3979614500000004 2.311625859375 1.3784734500000002 L 2.234345859375 1.2138334500000003 L 2.107337859375 1.2138334500000003 L 2.0495458593750002 1.3509214500000002 Q 2.040137859375 1.3737694500000002 2.040137859375 1.3885534500000003 Q 2.040137859375 1.4282014500000002 2.1059938593750003 1.4282014500000002 Q 2.109353859375 1.4282014500000002 2.109353859375 1.4322334500000002 Q 2.109353859375 1.4362654500000003 2.1059938593750003 1.4362654500000003 Q 2.093897859375 1.4362654500000003 2.071049859375 1.4349214500000003 Q 2.045513859375 1.4335774500000003 2.026697859375 1.4335774500000003 Q 2.009225859375 1.4335774500000003 1.986377859375 1.4349214500000003 Q 1.966217859375 1.4362654500000003 1.952777859375 1.4362654500000003 Q 1.949417859375 1.4362654500000003 1.949417859375 1.4322334500000002 Q 1.949417859375 1.4282014500000002 1.952777859375 1.4282014500000002 Q 1.971593859375 1.4282014500000002 1.984697859375 1.4211454500000003 Q 1.997801859375 1.4140894500000003 2.009561859375 1.3962814500000003 Q 2.021321859375 1.3784734500000002 2.035433859375 1.3448734500000004 L 2.177225859375 1.0102174500000003 Q 2.178569859375 1.0082014500000003 2.181929859375 1.0082014500000003 Q 2.185289859375 1.0082014500000003 2.185961859375 1.0102174500000003 L 2.344553859375 1.3442014500000004 Q 2.367401859375 1.3939294500000003 2.383529859375 1.4110654500000002 Q 2.399657859375 1.4282014500000002 2.421833859375 1.4282014500000002 Q 2.424521859375 1.4282014500000002 2.424521859375 1.4322334500000002 M 2.113385859375 1.1997214500000002 L 2.2276258593750002 1.1997214500000002 L 2.167145859375 1.0720414500000002 L 2.113385859375 1.1997214500000002 M 2.733005625 1.0243294500000002 Q 2.7309896250000003 1.0243294500000002 2.7309896250000003 1.0202974500000002 Q 2.7309896250000003 1.0162654500000001 2.733005625 1.0162654500000001 L 2.761901625 1.0169374500000004 Q 2.7860936250000004 1.0182814500000004 2.8002056250000003 1.0182814500000004 Q 2.811629625 1.0182814500000004 2.8331336250000003 1.0169374500000004 L 2.861357625 1.0162654500000001 Q 2.862701625 1.0162654500000001 2.862701625 1.0202974500000002 Q 2.862701625 1.0243294500000002 2.861357625 1.0243294500000002 Q 2.807597625 1.0243294500000002 2.807597625 1.0901854500000003 L 2.807597625 1.2810334500000002 Q 2.807597625 1.3583134500000003 2.764589625 1.4016574500000003 Q 2.7215816250000002 1.4450014500000004 2.649005625 1.4450014500000004 Q 2.599277625 1.4450014500000004 2.561981625 1.4255134500000002 Q 2.524685625 1.4060254500000002 2.504189625 1.3700734500000002 Q 2.483693625 1.3341214500000003 2.483693625 1.2857374500000003 L 2.483693625 1.0706974500000002 Q 2.483693625 1.0505374500000002 2.4796616250000003 1.0411294500000001 Q 2.4756296250000003 1.0317214500000003 2.463869625 1.0280254500000003 Q 2.4521096250000003 1.0243294500000002 2.426573625 1.0243294500000002 Q 2.425229625 1.0243294500000002 2.425229625 1.0202974500000002 Q 2.425229625 1.0162654500000001 2.426573625 1.0162654500000001 L 2.459501625 1.0169374500000004 Q 2.487725625 1.0182814500000004 2.505197625 1.0182814500000004 Q 2.5240136250000003 1.0182814500000004 2.552237625 1.0169374500000004 L 2.5844936250000003 1.0162654500000001 Q 2.586509625 1.0162654500000001 2.586509625 1.0202974500000002 Q 2.586509625 1.0243294500000002 2.5844936250000003 1.0243294500000002 Q 2.5596296250000004 1.0243294500000002 2.5475336250000002 1.0283614500000002 Q 2.535437625 1.0323934500000003 2.531405625 1.0421374500000002 Q 2.527373625 1.0518814500000002 2.527373625 1.0720414500000002 L 2.527373625 1.2622174500000003 Q 2.527373625 1.3408414500000003 2.563325625 1.3828414500000004 Q 2.599277625 1.4248414500000002 2.663789625 1.4248414500000002 Q 2.7242696250000003 1.4248414500000002 2.757869625 1.3868734500000002 Q 2.7914696250000004 1.3489054500000002 2.7914696250000004 1.2817054500000002 L 2.7914696250000004 1.0901854500000003 Q 2.7914696250000004 1.0243294500000002 2.733005625 1.0243294500000002"
                  fill="#FFFFFF" fill-rule="nonzero" />
        </g>
        <g clip-path="url(#SvgjsClipPath1001)">
            <g clip-path="url(#ac0adee60-19c3-4d9b-8981-bc271a09e16af7cea715-1c3e-44d1-bf44-c293a7d5da7a)">
                <path d=" M -0.484748268142998 0.718209283306839 C -0.484748268142998 0.30506433471288164 -0.8399139092198715 -0.02984245476080008 -1.2779797882378385 -0.02984245476080008 C -1.716130432325275 -0.02984245476080008 -2.0712113083326793 0.30506433471288175 -2.0712113083326793 0.718209283306839 C -2.0712113083326793 1.1313542319007965 -1.716130432325275 1.4662610213744782 -1.2779797882378385 1.4662610213744782 C -0.8399139092198715 1.4662610213744782 -0.484748268142998 1.1313542319007965 -0.484748268142998 0.718209283306839 M -0.6430894179118762 0.718209283306839 C -0.6430894179118762 1.0488778193070498 -0.9273914609123137 1.3169049689693586 -1.2779797882378385 1.3169049689693586 C -1.6286528806328326 1.3169049689693586 -1.9128701585638008 1.0488778193070498 -1.9128701585638008 0.718209283306839 C -1.9128701585638008 0.38754074730662824 -1.6286528806328326 0.1195135976443194 -1.2779797882378383 0.1195135976443194 C -0.9273914609123137 0.1195135976443194 -0.6430894179118762 0.38754074730662824 -0.6430894179118762 0.718209283306839"
                      fill="#dead73" transform="matrix(1,0,0,1,0,0)" fill-rule="nonzero" />
            </g>
            <g clip-path="url(#ac0adee60-19c3-4d9b-8981-bc271a09e16af7cea715-1c3e-44d1-bf44-c293a7d5da7a)">
                <path d=" M -1.1256569584012892 0.718209283306839 C -1.1256569584012892 0.638869178283461 -1.193892839324173 0.5745324905561706 -1.2779797882378385 0.5745324905561706 C -1.362066737151504 0.5745324905561706 -1.4303026180743879 0.638869178283461 -1.4303026180743879 0.718209283306839 C -1.4303026180743879 0.7975493883302169 -1.362066737151504 0.8618860760575073 -1.2779797882378385 0.8618860760575073 C -1.193892839324173 0.8618860760575073 -1.1256569584012892 0.7975493883302169 -1.1256569584012892 0.718209283306839 M -1.2112696785654045 0.718209283306839 C -1.2112696785654045 0.7529629617893016 -1.2411069830186405 0.7811049648531494 -1.2779797882378385 0.7811049648531494 C -1.3148525934570365 0.7811049648531494 -1.3446898979102726 0.7529629617893016 -1.3446898979102726 0.718209283306839 C -1.3446898979102726 0.6834556048243764 -1.3148525934570365 0.6553136017605287 -1.2779797882378385 0.6553136017605287 C -1.2411069830186405 0.6553136017605287 -1.2112696785654045 0.6834556048243764 -1.2112696785654045 0.718209283306839"
                      fill="#dead73" transform="matrix(1,0,0,1,0,0)" fill-rule="nonzero" />
            </g>
            <g clip-path="url(#ac0adee60-19c3-4d9b-8981-bc271a09e16af7cea715-1c3e-44d1-bf44-c293a7d5da7a)">
                <path d=" M -1.2300027589181464 0.47001715990037485 C -1.2435651700332535 0.45620045357685923 -1.2342410123916174 0.43924743968297497 -1.2342410123916174 0.43924743968297497 L -1.2343257774610867 0.43916267461350555 C -1.224747324611042 0.42932992655505275 -1.2186442396092438 0.416276105856762 -1.2186442396092438 0.40178127897749105 C -1.2187734028112525 0.3880217581081187 -1.2242088251763952 0.37484313628425303 -1.2338171870442705 0.3649932388277619 L -1.2337324219748007 0.3649932388277619 C -1.2381722055063904 0.3604534315170438 -1.2409242103509033 0.35453063848211386 -1.2415308083659875 0.34820975507281704 L -1.2416155734354568 0.34820975507281704 L -1.2416155734354568 0.26573334247907054 L -1.2415308083659875 0.2654790472706623 C -1.2406831576712933 0.25751113074053666 -1.2316132952380652 0.2578501910184144 -1.2316132952380652 0.2578501910184144 L -1.2283074575287578 0.2578501910184144 C -1.2283074575287578 0.2578501910184144 -1.207200955230872 0.2578501910184144 -1.207200955230872 0.23809992983203937 L -1.207200955230872 -0.06095123525607751 C -1.207200955230872 -0.06095123525607751 -1.207200955230872 -0.0807014964424525 -1.2283074575287578 -0.0807014964424525 L -1.231952355515943 -0.0807014964424525 C -1.231952355515943 -0.0807014964424525 -1.2416155734354568 -0.08095579165086081 -1.2416155734354568 -0.08892370818098641 L -1.2416155734354568 -0.11435322902181265 L -1.2415308083659875 -0.11435322902181265 C -1.2415308083659875 -0.11435322902181265 -1.2419546337133345 -0.12249067569087703 -1.2347496028084337 -0.12850899562320595 L -1.2347496028084337 -0.12893282097055303 C -1.2205177476160791 -0.14021059466273145 -1.2121387272519282 -0.15731127191150074 -1.2119477991211598 -0.17546884410926508 C -1.2119477991211598 -0.20962916710544166 -1.2415308083659875 -0.2373473448219423 -1.2779797882378383 -0.2373473448219423 C -1.3144287681096896 -0.2373473448219423 -1.3440117773545173 -0.20962916710544166 -1.3440117773545173 -0.175468844109265 C -1.3440117773545173 -0.15682052882599246 -1.3350266799907586 -0.14029134027945533 -1.3211252085977736 -0.12893282097055295 L -1.3212099736672431 -0.1285089956232059 C -1.3170986912167657 -0.12509563699771703 -1.3146079204703247 -0.12011409550483478 -1.3143440030402198 -0.11477705436915965 L -1.3143440030402198 -0.08866941297257802 C -1.3145982982486282 -0.08104055672033014 -1.324007220959734 -0.08070149644245242 -1.324007220959734 -0.08070149644245242 L -1.327652118946919 -0.08070149644245242 C -1.327652118946919 -0.08070149644245242 -1.348758621244805 -0.08070149644245242 -1.348758621244805 -0.06095123525607746 L -1.348758621244805 0.23809992983203926 C -1.348758621244805 0.23809992983203926 -1.348758621244805 0.25785019101841433 -1.327652118946919 0.25785019101841433 L -1.3243462812376117 0.25785019101841433 C -1.3243462812376117 0.25785019101841433 -1.3151916537349142 0.25751113074053666 -1.31434400304022 0.2654790472706622 L -1.31434400304022 0.34820975507281704 C -1.31434400304022 0.34820975507281704 -1.3148525934570365 0.35761867778392276 -1.3222271545008761 0.36499323882776225 L -1.3221423894314068 0.36499323882776225 C -1.3317507512992819 0.3748431362842535 -1.3371861736644246 0.38802175810811923 -1.3373153368664332 0.40178127897749105 C -1.3373153368664332 0.416276105856762 -1.3312970169341043 0.42932992655505275 -1.3216337990145903 0.43916267461350555 L -1.3217185640840596 0.43924743968297497 C -1.3217185640840596 0.43924743968297497 -1.3123944064424236 0.4562004535768591 -1.3259568175575307 0.47001715990037485 L -1.327652118946919 0.47001715990037485 C -1.327652118946919 0.47001715990037485 -1.348758621244805 0.47001715990037485 -1.348758621244805 0.48976742108674987 L -1.348758621244805 0.6056412710514483 C -1.348758621244805 0.6056412710514483 -1.348758621244805 0.6253915322378233 -1.327652118946919 0.6253915322378233 L -1.2283074575287578 0.6253915322378233 C -1.2283074575287578 0.6253915322378233 -1.207200955230872 0.6253915322378233 -1.207200955230872 0.6056412710514483 L -1.207200955230872 0.48976742108674987 C -1.207200955230872 0.48976742108674987 -1.207200955230872 0.47001715990037485 -1.2283074575287578 0.47001715990037485 Z"
                      fill="#dead73" transform="matrix(1,0,0,1,0,0)" fill-rule="nonzero" />
            </g>
            <g clip-path="url(#ac0adee60-19c3-4d9b-8981-bc271a09e16af7cea715-1c3e-44d1-bf44-c293a7d5da7a)">
                <path d=" M -1.3259568175575307 0.9663166416438338 C -1.3123944064424236 0.9801333479673495 -1.3217185640840596 0.9970863618612336 -1.3217185640840596 0.9970863618612336 L -1.3216337990145903 0.9971711269307031 C -1.3315632710133194 1.0070913736759102 -1.3371954047405288 1.0205171627229335 -1.3373153368664332 1.0345525225667176 C -1.3371861736644246 1.04831204343609 -1.3317507512992814 1.0614906652599556 -1.3221423894314064 1.0713405627164467 L -1.3222271545008761 1.0713405627164467 C -1.3177873709692864 1.0758803700271649 -1.3150353661247736 1.0818031630620948 -1.3144287681096896 1.0881240464713917 L -1.31434400304022 1.0881240464713917 L -1.31434400304022 1.170600459065138 L -1.3144287681096896 1.1708547542735466 C -1.3152764188043835 1.178822670803672 -1.3243462812376117 1.1784836105257943 -1.3243462812376117 1.1784836105257943 L -1.327652118946919 1.1784836105257943 C -1.327652118946919 1.1784836105257943 -1.348758621244805 1.1784836105257943 -1.348758621244805 1.1982338717121694 L -1.348758621244805 1.4972850368002861 C -1.348758621244805 1.4972850368002861 -1.348758621244805 1.5170352979866613 -1.327652118946919 1.5170352979866613 L -1.324007220959734 1.5170352979866613 C -1.324007220959734 1.5170352979866613 -1.31434400304022 1.5172895931950694 -1.31434400304022 1.5251727446557257 L -1.31434400304022 1.5506870305660214 L -1.3144287681096896 1.5506870305660214 C -1.3144287681096896 1.5506870305660214 -1.3140049427623424 1.5588244772350857 -1.3212099736672431 1.5648427971674146 L -1.3212099736672431 1.5652666225147618 C -1.3354418288595977 1.57654439620694 -1.3438208492237487 1.5936450734557093 -1.3440117773545173 1.6118026456534738 C -1.3440117773545173 1.6459629686496504 -1.3144287681096896 1.6736811463661507 -1.2779797882378385 1.6736811463661507 C -1.2415308083659875 1.6736811463661507 -1.2119477991211598 1.6459629686496504 -1.2119477991211598 1.6118026456534738 C -1.2121387272519282 1.5936450734557097 -1.220517747616079 1.5765443962069405 -1.2347496028084337 1.5652666225147618 L -1.2347496028084337 1.5648427971674146 C -1.238860885258911 1.5614294385419258 -1.2413516560053521 1.5564478970490436 -1.2416155734354568 1.5511108559133684 L -1.2416155734354568 1.5250032145167867 C -1.2413612782270484 1.5173743582645387 -1.231952355515943 1.5170352979866613 -1.231952355515943 1.5170352979866613 L -1.2283074575287578 1.5170352979866613 C -1.2283074575287578 1.5170352979866613 -1.207200955230872 1.5170352979866613 -1.207200955230872 1.4972850368002861 L -1.207200955230872 1.1982338717121694 C -1.207200955230872 1.1982338717121694 -1.207200955230872 1.1784836105257943 -1.2283074575287578 1.1784836105257943 L -1.2316132952380652 1.1784836105257943 C -1.2316132952380652 1.1784836105257943 -1.2407679227407626 1.178822670803672 -1.2416155734354568 1.1708547542735463 L -1.2416155734354568 1.0881240464713915 C -1.2416155734354568 1.0881240464713915 -1.2411069830186405 1.0787151237602859 -1.2337324219748007 1.0713405627164463 L -1.23381718704427 1.0713405627164463 C -1.224208825176395 1.061490665259955 -1.2187734028112522 1.0483120434360893 -1.2186442396092438 1.0345525225667176 C -1.2187275291883939 1.0205096501532203 -1.2243652699234007 1.0070704952119343 -1.2343257774610867 0.9971711269307029 L -1.2342410123916174 0.9970863618612336 C -1.2342410123916174 0.9970863618612336 -1.2435651700332535 0.9801333479673493 -1.2300027589181464 0.9663166416438338 L -1.2283074575287578 0.9663166416438338 C -1.2283074575287578 0.9663166416438338 -1.207200955230872 0.9663166416438338 -1.207200955230872 0.9465663804574587 L -1.207200955230872 0.8306925304927604 C -1.207200955230872 0.8306925304927604 -1.207200955230872 0.8109422693063855 -1.2283074575287578 0.8109422693063855 L -1.327652118946919 0.8109422693063855 C -1.327652118946919 0.8109422693063855 -1.348758621244805 0.8109422693063855 -1.348758621244805 0.8306925304927604 L -1.348758621244805 0.9465663804574589 C -1.348758621244805 0.9465663804574589 -1.348758621244805 0.9663166416438338 -1.327652118946919 0.9663166416438338 Z"
                      fill="#dead73" transform="matrix(1,0,0,1,0,0)" fill-rule="nonzero" />
            </g>
            <g clip-path="url(#ac0adee60-19c3-4d9b-8981-bc271a09e16af7cea715-1c3e-44d1-bf44-c293a7d5da7a)">
                <path d=" M -1.4788730028803658 0.5515611567299576 C -1.4983689688583328 0.5553755848560816 -1.5090493676114798 0.5391006915179527 -1.5090493676114798 0.5391006915179527 L -1.5091341326809493 0.5391854565874222 C -1.5133467141829662 0.5256142537901335 -1.5226397384614954 0.5141953742844897 -1.535072243938592 0.50731379046692 C -1.5475708323218265 0.5002534633894338 -1.5621767314472186 0.49787925344929806 -1.5762680677007306 0.5006173499788357 L -1.576183302631261 0.500447819839897 C -1.5867789363149387 0.5026517116461019 -1.5955097384702892 0.4981591629642226 -1.5955097384702892 0.4981591629642226 L -1.6705268249507266 0.4556918631600426 L -1.670781120159135 0.4555223330211039 C -1.6775623257166885 0.4507754891308162 -1.6725611866179926 0.44357045822591545 -1.6725611866179926 0.44357045822591545 L -1.6708658852286042 0.440857976002894 C -1.6708658852286042 0.440857976002894 -1.6600159563365184 0.42382019703954044 -1.6779861510640357 0.41364838870320986 L -1.9497429637829988 0.25971502254674156 C -1.9497429637829988 0.25971502254674156 -1.967713158510516 0.2495432142104111 -1.978563087402602 0.2665809931737646 L -1.9804279189309293 0.269463005535725 C -1.9804279189309293 0.269463005535725 -1.9856833532380334 0.27717662685744227 -1.9928036190734646 0.27310790352291003 L -2.0160292481080857 0.2599693177551498 L -2.0160292481080857 0.25988455268568045 C -2.0160292481080857 0.25988455268568045 -2.0235733392908646 0.2560701245595565 -2.0253534057497222 0.2470850271957979 L -2.025777231097069 0.2469154970568591 C -2.0291112969832388 0.22896472086694597 -2.0402648642653576 0.21343050459658558 -2.0562078910365913 0.20453296232214863 C -2.0872862537870853 0.18690292124260333 -2.1267064418456365 0.1963045435589152 -2.1464826900215246 0.2260632899673815 C -2.155479518191681 0.2401580406991629 -2.1581973909296934 0.2573638468858131 -2.1539830939667093 0.2735454604154385 C -2.1497687970037256 0.2897270739450639 -2.1390033929113814 0.3034213308975654 -2.1242742418205363 0.3113369498536189 C -2.107796667437298 0.32052237578432186 -2.0882544201786413 0.322485804080325 -2.070278892568515 0.31676191429966183 L -2.069855067221168 0.3170162095080702 C -2.0645461754068837 0.31543981158891954 -2.05883255507096 0.31598686034448675 -2.053919234160917 0.3185419807585197 L -2.03010024964001 0.33201962680415764 C -2.023319044082456 0.3361731152081592 -2.027811592764335 0.34388673652987656 -2.027811592764335 0.34388673652987656 L -2.029761189362132 0.34685351396130626 C -2.029761189362132 0.34685351396130626 -2.040611118254218 0.3638912929246598 -2.022640923526701 0.3740631012609903 L -1.7508841108077375 0.5280812324869281 C -1.7508841108077375 0.5280812324869281 -1.7329139160802203 0.5382530408232586 -1.7220639871881342 0.521215261859905 L -1.720368685798746 0.5185027796368835 C -1.720368685798746 0.5185027796368835 -1.7158761371168667 0.5110434535235745 -1.7082472808646187 0.5144340563023513 L -1.6330606642452425 0.55707088624547 C -1.6330606642452425 0.55707088624547 -1.6247536874372392 0.5622415554831047 -1.6217869100058095 0.5720743035415575 L -1.6217869100058095 0.5719895384720881 C -1.6174179820269576 0.5852279992615671 -1.608256838658896 0.5963544044082558 -1.596103093956575 0.603183084036835 C -1.583320229208703 0.6103169850693864 -1.5684036848520722 0.6126326582860406 -1.5540596194997423 0.6097099943859803 L -1.5540596194997423 0.6098795245249191 C -1.5540596194997423 0.6098795245249191 -1.53388553296602 0.6110662354974911 -1.5282910383810382 0.6291211952944777 L -1.5291386890757326 0.6304774364059885 C -1.5291386890757326 0.6304774364059885 -1.5400733830372877 0.6475152153693421 -1.5221031883097706 0.6576870237056726 L -1.4167402069592803 0.7173616326121448 C -1.4167402069592803 0.7173616326121448 -1.3988547773012328 0.7275334409484754 -1.3880048484091467 0.7104956619851218 L -1.3368067464496165 0.6302231411975802 C -1.3368067464496165 0.6302231411975802 -1.3259568175575307 0.6131853622342266 -1.3438422472155784 0.6030135538978961 L -1.4492052285660686 0.5433389449914239 C -1.4492052285660686 0.5433389449914239 -1.4671754232935856 0.5331671366550933 -1.4780253521856717 0.5502049156184469 Z"
                      fill="#dead73" transform="matrix(1,0,0,1,0,0)" fill-rule="nonzero" />
            </g>
            <g clip-path="url(#ac0adee60-19c3-4d9b-8981-bc271a09e16af7cea715-1c3e-44d1-bf44-c293a7d5da7a)">
                <path d=" M -1.0771713386647803 0.884772644814251 C -1.0576753726868136 0.8809582166881269 -1.0469949739336666 0.8972331100262558 -1.0469949739336666 0.8972331100262558 L -1.046910208864197 0.8971483449567865 C -1.0426976273621802 0.9107195477540753 -1.0334046030836508 0.9221384272597191 -1.0209720976065542 0.9290200110772888 C -1.00847350922332 0.9360803381547749 -0.9938676100979276 0.9384545480949107 -0.9797762738444158 0.9357164515653731 L -0.9798610389138851 0.9358859817043117 C -0.9692654052302077 0.9337668549675764 -0.9605346030748572 0.9381746385799861 -0.9605346030748572 0.9381746385799861 L -0.8855175165944198 0.980641938384166 L -0.8852632213860114 0.9808114685231049 C -0.8784820158284576 0.9855583124133924 -0.8834831549271536 0.9927633433182934 -0.8834831549271536 0.9927633433182934 L -0.8851784563165421 0.9954758255413145 C -0.8851784563165421 0.9954758255413145 -0.8960283852086279 1.0125136045046683 -0.8780581904811107 1.0226854128409988 L -0.6063013777621475 1.1766187789974674 C -0.6063013777621475 1.1766187789974674 -0.5883311830346303 1.1867905873337978 -0.5774812541425443 1.1697528083704438 L -0.5756164226142171 1.1668707960084836 C -0.5756164226142171 1.1668707960084836 -0.570360988307113 1.1591571746867664 -0.5632407224716818 1.1632258980212986 L -0.5400150934370602 1.1763644837890588 L -0.5400150934370602 1.1764492488585283 C -0.5400150934370602 1.1764492488585283 -0.5324710022542818 1.1802636769846522 -0.5306909357954239 1.1892487743484108 L -0.530267110448077 1.1894183044873496 C -0.5269330445619076 1.2073690806772628 -0.5157794772797888 1.222903296947623 -0.49983645050855463 1.23180083922206 C -0.4687580877580608 1.2494308803016054 -0.4293378996995094 1.2400292579852936 -0.40956165152362156 1.210270511576827 C -0.4005648233534653 1.1961757608450458 -0.39784695061545294 1.1789699546583958 -0.40206124757843686 1.16278834112877 C -0.4062755445414208 1.1466067275991447 -0.41704094863376495 1.1329124706466434 -0.4317700997246099 1.1249968516905897 C -0.44824767410784805 1.1158114257598868 -0.4677899213665051 1.1138479974638837 -0.4857654489766312 1.1195718872445468 L -0.48618927432397796 1.1193175920361387 C -0.49149816613826247 1.1208939899552892 -0.49721178647418607 1.120346941199722 -0.5021251073842292 1.117791820785689 L -0.5259440919051364 1.1043141747400511 C -0.5327252974626904 1.1001606863360496 -0.528232748780811 1.092447065014332 -0.528232748780811 1.092447065014332 L -0.526283152183014 1.0894802875829024 C -0.526283152183014 1.0894802875829024 -0.5154332232909284 1.0724425086195488 -0.5334034180184457 1.0622707002832183 L -0.8051602307374086 0.9082525690572807 C -0.8051602307374086 0.9082525690572807 -0.8231304254649259 0.89808076072095 -0.8339803543570119 0.9151185396843036 L -0.8356756557464002 0.9178310219073251 C -0.8356756557464002 0.9178310219073251 -0.8401682044282794 0.9252903480206343 -0.8477970606805276 0.9218997452418574 L -0.9229836772999038 0.8792629152987388 C -0.9229836772999038 0.8792629152987388 -0.9312906541079071 0.874092246061104 -0.9342574315393368 0.8642594980026512 L -0.9342574315393368 0.8643442630721208 C -0.9386263595181887 0.8511058022826417 -0.9477875028862501 0.8399793971359528 -0.9599412475885714 0.8331507175073738 C -0.9727241123364434 0.8260168164748223 -0.9876406566930742 0.823701143258168 -1.001984722045404 0.8266238071582284 L -1.001984722045404 0.8264542770192895 C -1.001984722045404 0.8264542770192895 -1.0221588085791262 0.8252675660467177 -1.027753303164108 0.8072126062497309 L -1.0269056524694138 0.8058563651382202 C -1.0269056524694138 0.8058563651382202 -1.0159709585078585 0.7888185861748667 -1.0339411532353757 0.778646777838536 L -1.1393041345858659 0.7189721689320638 C -1.1393041345858659 0.7189721689320638 -1.1571895642439136 0.7088003605957334 -1.1680394931359994 0.7258381395590869 L -1.2192375950955299 0.8061106603466286 C -1.2192375950955299 0.8061106603466286 -1.2300875239876157 0.8231484393099822 -1.2122020943295677 0.8333202476463126 L -1.1068391129790778 0.8929948565527848 C -1.1068391129790778 0.8929948565527848 -1.0888689182515605 0.9031666648891152 -1.0780189893594745 0.8861288859257617 Z"
                      fill="#dead73" transform="matrix(1,0,0,1,0,0)" fill-rule="nonzero" />
            </g>
            <g clip-path="url(#ac0adee60-19c3-4d9b-8981-bc271a09e16af7cea715-1c3e-44d1-bf44-c293a7d5da7a)">
                <path d=" M -1.0771713386647803 0.5515611567299576 C -1.0576753726868136 0.5553755848560816 -1.0469949739336666 0.5391006915179527 -1.0469949739336666 0.5391006915179527 L -1.046910208864197 0.5391854565874222 C -1.0426976273621802 0.5256142537901335 -1.0334046030836508 0.5141953742844897 -1.0209720976065542 0.50731379046692 C -1.00847350922332 0.5002534633894338 -0.9938676100979276 0.49787925344929806 -0.9797762738444158 0.5006173499788357 L -0.9798610389138851 0.500447819839897 C -0.9733378384615035 0.5017185477779164 -0.9665805772522695 0.5009183457926124 -0.9605346030748572 0.4981591629642226 L -0.8855175165944198 0.4556918631600426 L -0.8852632213860114 0.4555223330211039 C -0.8784820158284576 0.4507754891308162 -0.8834831549271536 0.44357045822591545 -0.8834831549271536 0.44357045822591545 L -0.8851784563165421 0.440857976002894 C -0.8851784563165421 0.440857976002894 -0.8960283852086279 0.42382019703954044 -0.8780581904811107 0.41364838870320986 L -0.6063013777621475 0.25971502254674156 C -0.6063013777621475 0.25971502254674156 -0.5883311830346303 0.2495432142104111 -0.5774812541425443 0.2665809931737646 L -0.5756164226142171 0.269463005535725 C -0.5756164226142171 0.269463005535725 -0.570360988307113 0.27717662685744227 -0.5632407224716818 0.27310790352291003 L -0.5400150934370602 0.2599693177551498 L -0.5400150934370602 0.25988455268568045 C -0.5400150934370602 0.25988455268568045 -0.5324710022542818 0.2560701245595565 -0.5306909357954239 0.2470850271957979 L -0.530267110448077 0.2469154970568591 C -0.5271308028777082 0.22987771809350555 -0.5167046993329696 0.21411141517219318 -0.49983645050855463 0.20453296232214863 C -0.4687580877580608 0.18690292124260333 -0.4293378996995094 0.1963045435589152 -0.40956165152362156 0.2260632899673815 C -0.4005648233534653 0.2401580406991629 -0.39784695061545294 0.2573638468858131 -0.40206124757843686 0.2735454604154385 C -0.4062755445414208 0.2897270739450639 -0.41704094863376495 0.3034213308975654 -0.4317700997246099 0.3113369498536189 C -0.44824767410784805 0.32052237578432186 -0.4677899213665051 0.322485804080325 -0.4857654489766312 0.31676191429966183 L -0.48618927432397796 0.3170162095080702 C -0.49149816613826247 0.31543981158891954 -0.49721178647418607 0.31598686034448675 -0.5021251073842292 0.3185419807585197 L -0.5259440919051364 0.33201962680415764 C -0.5327252974626904 0.3361731152081592 -0.528232748780811 0.34388673652987656 -0.528232748780811 0.34388673652987656 L -0.526283152183014 0.34685351396130626 C -0.526283152183014 0.34685351396130626 -0.5154332232909284 0.3638912929246598 -0.5334034180184457 0.3740631012609903 L -0.8051602307374086 0.5280812324869281 C -0.8051602307374086 0.5280812324869281 -0.8231304254649259 0.5382530408232586 -0.8339803543570119 0.521215261859905 L -0.8356756557464002 0.5185027796368835 C -0.8356756557464002 0.5185027796368835 -0.8401682044282794 0.5110434535235745 -0.8477970606805276 0.5144340563023513 L -0.9229836772999038 0.55707088624547 C -0.9229836772999038 0.55707088624547 -0.9312906541079071 0.5622415554831047 -0.9342574315393368 0.5720743035415575 L -0.9342574315393368 0.5719895384720881 C -0.9386263595181887 0.5852279992615671 -0.9477875028862501 0.5963544044082558 -0.9599412475885714 0.603183084036835 C -0.9727241123364434 0.6103169850693864 -0.9876406566930742 0.6126326582860406 -1.001984722045404 0.6097099943859803 L -1.001984722045404 0.6098795245249191 C -1.001984722045404 0.6098795245249191 -1.0221588085791262 0.6110662354974911 -1.027753303164108 0.6291211952944777 L -1.0269056524694138 0.6304774364059885 C -1.0269056524694138 0.6304774364059885 -1.0159709585078585 0.6475152153693421 -1.0339411532353757 0.6576870237056726 L -1.1393041345858659 0.7173616326121448 C -1.1393041345858659 0.7173616326121448 -1.1571895642439136 0.7275334409484754 -1.1680394931359994 0.7104956619851218 L -1.2192375950955299 0.6302231411975802 C -1.2192375950955299 0.6302231411975802 -1.2300875239876157 0.6131853622342266 -1.2122020943295677 0.6030135538978961 L -1.1068391129790778 0.5433389449914239 C -1.1068391129790778 0.5433389449914239 -1.0888689182515605 0.5331671366550933 -1.0780189893594745 0.5502049156184469 Z"
                      fill="#dead73" transform="matrix(1,0,0,1,0,0)" fill-rule="nonzero" />
            </g>
            <g clip-path="url(#ac0adee60-19c3-4d9b-8981-bc271a09e16af7cea715-1c3e-44d1-bf44-c293a7d5da7a)">
                <path d=" M -1.4788730028803658 0.884772644814251 C -1.4983689688583328 0.8809582166881269 -1.5090493676114798 0.8972331100262558 -1.5090493676114798 0.8972331100262558 L -1.5091341326809493 0.8971483449567865 C -1.5133467141829662 0.9107195477540753 -1.5226397384614954 0.9221384272597191 -1.535072243938592 0.9290200110772888 C -1.5475708323218265 0.9360803381547749 -1.5621767314472186 0.9384545480949107 -1.5762680677007306 0.9357164515653731 L -1.576183302631261 0.9358859817043117 C -1.5867789363149387 0.9337668549675764 -1.5955097384702892 0.9381746385799861 -1.5955097384702892 0.9381746385799861 L -1.6705268249507266 0.980641938384166 L -1.670781120159135 0.9808114685231049 C -1.6775623257166885 0.9855583124133924 -1.6725611866179926 0.9927633433182934 -1.6725611866179926 0.9927633433182934 L -1.6708658852286042 0.9954758255413145 C -1.6708658852286042 0.9954758255413145 -1.6600159563365184 1.0125136045046683 -1.6779861510640357 1.0226854128409988 L -1.9497429637829988 1.1766187789974674 C -1.9497429637829988 1.1766187789974674 -1.967713158510516 1.1867905873337978 -1.978563087402602 1.1697528083704438 L -1.9804279189309293 1.1668707960084836 C -1.9804279189309293 1.1668707960084836 -1.9856833532380334 1.1591571746867664 -1.9928036190734646 1.1632258980212986 L -2.0160292481080857 1.1763644837890588 L -2.0160292481080857 1.1764492488585283 C -2.0160292481080857 1.1764492488585283 -2.0235733392908646 1.1802636769846522 -2.0253534057497222 1.1892487743484108 L -2.025777231097069 1.1894183044873496 C -2.0291112969832388 1.2073690806772628 -2.0402648642653576 1.222903296947623 -2.0562078910365913 1.23180083922206 C -2.0872862537870853 1.2494308803016054 -2.1267064418456365 1.2400292579852936 -2.1464826900215246 1.210270511576827 C -2.155479518191681 1.1961757608450458 -2.1581973909296934 1.1789699546583954 -2.1539830939667093 1.16278834112877 C -2.1497687970037256 1.1466067275991447 -2.1390033929113814 1.1329124706466434 -2.1242742418205363 1.1249968516905897 C -2.107321227926652 1.1154183988405453 -2.087740496879216 1.114146922798504 -2.070278892568515 1.1195718872445468 L -2.069855067221168 1.1193175920361387 C -2.0645461754068837 1.1208939899552892 -2.05883255507096 1.120346941199722 -2.053919234160917 1.117791820785689 L -2.03010024964001 1.1043141747400511 C -2.023319044082456 1.1001606863360496 -2.027811592764335 1.092447065014332 -2.027811592764335 1.092447065014332 L -2.029761189362132 1.0894802875829024 C -2.029761189362132 1.0894802875829024 -2.040611118254218 1.0724425086195488 -2.022640923526701 1.0622707002832183 L -1.7508841108077373 0.9082525690572807 C -1.7508841108077373 0.9082525690572807 -1.73291391608022 0.89808076072095 -1.7220639871881342 0.9151185396843036 L -1.720368685798746 0.9178310219073251 C -1.720368685798746 0.9178310219073251 -1.7158761371168665 0.9252903480206343 -1.7082472808646187 0.9218997452418574 L -1.6330606642452423 0.8792629152987388 C -1.6330606642452423 0.8792629152987388 -1.6247536874372392 0.874092246061104 -1.6217869100058095 0.8642594980026512 L -1.6217869100058095 0.8643442630721208 C -1.6174179820269576 0.8511058022826417 -1.608256838658896 0.8399793971359528 -1.5961030939565748 0.8331507175073738 C -1.583320229208703 0.8260168164748223 -1.5684036848520722 0.823701143258168 -1.5540596194997423 0.8266238071582284 L -1.5540596194997423 0.8264542770192895 C -1.5540596194997423 0.8264542770192895 -1.53388553296602 0.8252675660467177 -1.5282910383810382 0.8072126062497309 L -1.5291386890757326 0.8058563651382202 C -1.5291386890757326 0.8058563651382202 -1.5400733830372877 0.7888185861748667 -1.5221031883097704 0.778646777838536 L -1.4167402069592803 0.7189721689320638 C -1.4167402069592803 0.7189721689320638 -1.3988547773012325 0.7088003605957334 -1.3880048484091467 0.7258381395590869 L -1.3368067464496165 0.8061106603466286 C -1.3368067464496165 0.8061106603466286 -1.3259568175575305 0.8231484393099822 -1.3438422472155784 0.8333202476463126 L -1.4492052285660686 0.8929948565527848 C -1.4492052285660686 0.8929948565527848 -1.4671754232935856 0.9031666648891152 -1.4780253521856717 0.8861288859257617 Z"
                      fill="#dead73" transform="matrix(1,0,0,1,0,0)" fill-rule="nonzero" />
            </g>
        </g>
    </g>
    <defs>
        <clipPath id="SvgjsClipPath1001">
            <path d=" M -2.1559763778020997 -0.23735212240511427 h 1.7559763778020998 v 1.9109696948102288 h -1.7559763778020998 Z" />
        </clipPath>
        <clipPath id="ac0adee60-19c3-4d9b-8981-bc271a09e16af7cea715-1c3e-44d1-bf44-c293a7d5da7a">
            <path d=" M -2.1559763778020997 1.6736811463661512 L -0.3999831986735767 1.6736811463661512 L -0.3999831986735767 -0.2373473448219426 L -2.1559763778020997 -0.2373473448219426 Z" />
        </clipPath>
    </defs>
</svg>