<svg xmlns="http://www.w3.org/2000/svg" version="1.1" viewBox="0 0 18.021828124398947 13.64225666656409">
    <g transform="matrix(1,0,0,1,8.241867431340099,12.116265077033162)">
        <g clip-path="url(#SvgjsClipPath1001)">
            <g clip-path="url(#aec2fc11d-5ab3-41c6-849c-4f476fddab0af37c6d64-7806-4e29-bf18-ead40ae7ad6a)">
                <path d=" M 8.329936077248526 -7.19081062087588 L 6.1970984956808834 -5.6952334659244315 C 5.031216961336627 -7.435445841704535 3.1725748209499898 -8.498952683199121 1.007343771072903 -8.806832294536687 L 1.30206451967641 -10.812142237502236 L 0.39976948694048353 -10.31849600177786 L -1.4184201687254223 -8.840610906291822 C -3.743005675922628 -8.574159676193542 -5.735471561482684 -7.447282522058616 -6.937744591809171 -5.562259695138145 L -6.937744591809171 -5.045380826165596 C -5.736132652672669 -3.161396856829392 -3.7451778326897345 -2.0352752354830255 -1.422197832668215 -1.7681629141947575 L 0.2589255829400452 -0.4013726191596696 L 1.3009312204935721 0.20000000000000107 L 1.0072178489414751 -1.801406356891329 C 3.173865522797108 -2.109285968228896 5.033420598636589 -3.1736427841106103 6.199207691382274 -4.915712511329252 L 8.329936077248526 -3.4398106894131804 C 8.329936077248526 -3.4398106894131804 7.9334387659196235 -5.036062588440042 8.329936077248526 -5.4019923023651835 C 8.658215073877173 -5.704960950577122 8.329936077248526 -7.19081062087588 8.329936077248526 -7.19081062087588 M -4.828926656811115 -5.103305006621745 C -5.122828911560351 -5.103305006621745 -5.361955039139101 -5.342336692601924 -5.361955039139101 -5.637403727066854 C -5.361955039139101 -5.931872631407509 -5.122828911560351 -6.171565408577677 -4.828926656811115 -6.171565408577677 C -4.535055882594735 -6.171565408577677 -4.297188976330249 -5.931872631407509 -4.297188976330249 -5.637403727066854 C -4.297188976330249 -5.342336692601924 -4.535055882594735 -5.103305006621745 -4.828926656811115 -5.103305006621745 M -3.2960450704245927 -2.989355744768063 C -3.4257763463266486 -2.989355744768063 -3.5309213260677015 -4.026576341327386 -3.5309213260677015 -5.3060396382182615 C -3.5309213260677015 -6.58556589617485 -3.4257763463266513 -7.622755012201317 -3.2960450704245927 -7.622755012201317 C -3.1663452750553924 -7.622755012201317 -3.0612002953143427 -6.58556589617485 -3.0612002953143427 -5.3060396382182615 C -3.0612002953143427 -4.026576341327385 -3.1663452750553924 -2.989355744768063 -3.2960450704245927 -2.989355744768063 M -1.7643282637537654 -2.603215528748983 C -1.8940280591229657 -2.603215528748983 -1.9991730388640159 -3.8133272117567643 -1.9991730388640159 -5.3060396382182615 C -1.9991730388640159 -6.798783545212616 -1.8940280591229657 -8.008895228220398 -1.7643282637537654 -8.008895228220398 C -1.6345655073188512 -8.008895228220398 -1.529420527577801 -6.798783545212617 -1.529420527577801 -5.3060396382182615 C -1.529420527577801 -3.8133272117567643 -1.6345655073188512 -2.603215528748983 -1.7643282637537654 -2.603215528748983 M -0.23254849601722416 -2.603215528748983 C -0.3622797719192805 -2.603215528748983 -0.46742475166033337 -3.8133272117567643 -0.46742475166033337 -5.3060396382182615 C -0.46742475166033337 -6.798783545212616 -0.3622797719192832 -8.008895228220398 -0.23254849601722416 -8.008895228220398 C -0.10284870064802387 -8.008895228220398 0.002296279093025433 -6.798783545212617 0.002296279093025433 -5.3060396382182615 C 0.002296279093025433 -3.8133272117567643 -0.10284870064802387 -2.603215528748983 -0.23254849601722416 -2.603215528748983 M 1.2991683106536023 -2.603215528748983 C 1.169468515284402 -2.603215528748983 1.0643235355433518 -3.8133272117567643 1.0643235355433518 -5.3060396382182615 C 1.0643235355433518 -6.798783545212616 1.169468515284402 -8.008895228220398 1.2991683106536023 -8.008895228220398 C 1.4288681060228043 -8.008895228220398 1.5340130857638545 -6.798783545212617 1.5340130857638545 -5.3060396382182615 C 1.5340130857638545 -3.8133272117567643 1.4288681060228043 -2.603215528748983 1.2991683106536023 -2.603215528748983 M 2.8309165978572874 -2.989324264235207 C 2.7012168024880854 -2.989324264235207 2.596071822747035 -4.026576341327386 2.596071822747035 -5.306039638218262 C 2.596071822747035 -6.585534415641995 2.7012168024880854 -7.622755012201317 2.8309165978572874 -7.622755012201317 C 2.960647873759342 -7.622755012201317 3.065761372967538 -6.585534415641995 3.065761372967538 -5.306039638218262 C 3.065761372967538 -4.026576341327386 2.960647873759342 -2.989324264235207 2.8309165978572874 -2.989324264235207 M 4.362664885060969 -3.761573215740511 C 4.2329650896917705 -3.761573215740511 4.127788629417864 -4.453074600468631 4.127788629417864 -5.306039638218263 C 4.127788629417864 -6.159067637033607 4.2329650896917705 -6.850506060696014 4.362664885060969 -6.850506060696014 C 4.492364680430171 -6.850506060696014 4.597509660171221 -6.159067637033607 4.597509660171221 -5.306039638218263 C 4.597509660171221 -4.453074600468631 4.492364680430171 -3.761573215740511 4.362664885060969 -3.761573215740511"
                      fill="url(#gradient-ff95c0d0-2065-487e-9be2-7d1ec4f4778e_0)" transform="matrix(1,0,0,1,0,0)"
                      fill-rule="nonzero"/>
            </g>
        </g>
    </g>
    <defs>
        <clipPath id="SvgjsClipPath1001">
            <path d=" M -6.937744591809171 -10.812142237502234 h 15.413582445337092 v 11.012142237502234 h -15.413582445337092 Z"/>
        </clipPath>
        <clipPath id="aec2fc11d-5ab3-41c6-849c-4f476fddab0af37c6d64-7806-4e29-bf18-ead40ae7ad6a">
            <path d=" M -6.937744591809171 0.20000000000000107 L 8.475848347038875 0.20000000000000107 L 8.475848347038875 -10.812142237502234 L -6.937744591809171 -10.812142237502234 Z"/>
        </clipPath>
        <linearGradient id="gradient-ff95c0d0-2065-487e-9be2-7d1ec4f4778e_0" x1="0" x2="1" y1="0" y2="1">
            <stop stop-color="#e9c3ad" offset="0"/>
            <stop stop-color="#8a615c" offset="1"/>
        </linearGradient>
    </defs>
</svg>