<svg xmlns="http://www.w3.org/2000/svg" version="1.1" viewBox="0 0 1.5347279852211313 1.6909387803517186">
    <g transform="matrix(1,0,0,1,0.13421355309452176,0.1607347534816317)">
        <g clip-path="url(#SvgjsClipPath1001)">
            <g clip-path="url(#a645ed91c-15ca-41d4-b65b-a52f5b30fe5a11041cbc-38fb-4469-bcb6-e3f82847e8c2)">
                <path d=" M 1.2051857024257542 0.6890914156469109 C 1.2051857024257542 0.3911569911377242 0.9490623461078443 0.14964305776969045 0.6331564975515297 0.14964305776969045 C 0.3171895217025378 0.14964305776969045 0.06112729267730527 0.39115699113772423 0.06112729267730527 0.6890914156469109 C 0.06112729267730527 0.9870258401560976 0.3171895217025378 1.2285397735241315 0.6331564975515297 1.2285397735241315 C 0.9490623461078443 1.2285397735241315 1.2051857024257542 0.9870258401560976 1.2051857024257542 0.6890914156469109 M 1.0909999197045475 0.6890914156469109 C 1.0909999197045475 0.9275489843810794 0.8859789800648651 1.1208334838267193 0.6331564975515297 1.1208334838267193 C 0.38027288774551704 1.1208334838267193 0.17531307539851185 0.9275489843810794 0.17531307539851185 0.6890914156469109 C 0.17531307539851185 0.45063384691274233 0.38027288774551715 0.2573493474671026 0.6331564975515298 0.2573493474671026 C 0.8859789800648651 0.2573493474671026 1.0909999197045475 0.45063384691274233 1.0909999197045475 0.6890914156469109"
                      fill="#dead73" transform="matrix(1,0,0,1,0,0)" fill-rule="nonzero" />
            </g>
            <g clip-path="url(#a645ed91c-15ca-41d4-b65b-a52f5b30fe5a11041cbc-38fb-4469-bcb6-e3f82847e8c2)">
                <path d=" M 0.7430022424926476 0.6890914156469109 C 0.7430022424926476 0.631876269700953 0.6937947718874167 0.5854806545588781 0.6331564975515297 0.5854806545588781 C 0.5725182232156427 0.5854806545588781 0.5233107526104118 0.631876269700953 0.5233107526104118 0.6890914156469109 C 0.5233107526104118 0.7463065615928688 0.5725182232156427 0.7927021767349436 0.6331564975515297 0.7927021767349436 C 0.6937947718874167 0.7927021767349436 0.7430022424926476 0.7463065615928688 0.7430022424926476 0.6890914156469109 M 0.681263676888569 0.6890914156469109 C 0.681263676888569 0.7141536056446062 0.6597468698661575 0.7344478668134715 0.6331564975515297 0.7344478668134715 C 0.6065661252369018 0.7344478668134715 0.5850493182144904 0.7141536056446062 0.5850493182144904 0.6890914156469109 C 0.5850493182144904 0.6640292256492156 0.6065661252369018 0.6437349644803502 0.6331564975515297 0.6437349644803502 C 0.6597468698661575 0.6437349644803502 0.681263676888569 0.6640292256492156 0.681263676888569 0.6890914156469109"
                      fill="#dead73" transform="matrix(1,0,0,1,0,0)" fill-rule="nonzero" />
            </g>
            <g clip-path="url(#a645ed91c-15ca-41d4-b65b-a52f5b30fe5a11041cbc-38fb-4469-bcb6-e3f82847e8c2)">
                <path d=" M 0.6677545452068847 0.5101107026877606 C 0.6579741783785158 0.5001469539813599 0.6646981805730193 0.48792149544589875 0.6646981805730193 0.48792149544589875 L 0.6646370532803421 0.4878603681532214 C 0.6715444373528776 0.480769602202654 0.6759456024256436 0.471355999130349 0.6759456024256436 0.46090323208252976 C 0.6758524579629335 0.45098072196667316 0.6719327696311882 0.4414771200897046 0.6650038170364057 0.4343739870605789 L 0.6650649443290833 0.4343739870605789 C 0.6618632487596923 0.4311001605667429 0.6598786741391218 0.426829010839863 0.6594412334027712 0.4222707831104727 L 0.6593801061100939 0.4222707831104727 L 0.6593801061100939 0.3627939273354545 L 0.6594412334027712 0.3626105454574226 C 0.6600525063295442 0.3568645799457559 0.6665931266460159 0.35710908911646516 0.6665931266460159 0.35710908911646516 L 0.6689770910604308 0.35710908911646516 C 0.6689770910604308 0.35710908911646516 0.6841977869370799 0.35710908911646516 0.6841977869370799 0.342866429922653 L 0.6841977869370799 0.12720934135711937 C 0.6841977869370799 0.12720934135711937 0.6841977869370799 0.11296668216330726 0.6689770910604308 0.11296668216330726 L 0.6663486174753066 0.11296668216330726 C 0.6663486174753066 0.11296668216330726 0.6593801061100939 0.11278330028527532 0.6593801061100939 0.10703733477360858 L 0.6593801061100939 0.08869914697041696 L 0.6594412334027712 0.08869914697041696 C 0.6594412334027712 0.08869914697041696 0.6591355969393846 0.08283092687339566 0.6643314168169556 0.07849088909330694 L 0.6643314168169556 0.07818525262992043 C 0.6745945450504307 0.07005242412467276 0.6806369730618103 0.05772047996761924 0.6807746585471507 0.04462636895007976 C 0.6807746585471507 0.019992070001125694 0.6594412334027712 0.0000034452956467906027 0.6331564975515298 0.0000034452956467906027 C 0.6068717617002884 0.0000034452956467906027 0.5855383365559088 0.019992070001125694 0.5855383365559088 0.04462636895007981 C 0.5855383365559088 0.058074373339086965 0.5920178295797033 0.06999419541116157 0.6020427055787814 0.07818525262992049 L 0.601981578286104 0.078490889093307 C 0.6049463793203326 0.08095239090081902 0.6067425681674933 0.08454476859514046 0.6069328889929658 0.08839351050703051 L 0.6069328889929658 0.10722071665164058 C 0.6067495071149338 0.11272217299259807 0.5999643776277529 0.11296668216330731 0.5999643776277529 0.11296668216330731 L 0.5973359040426287 0.11296668216330731 C 0.5973359040426287 0.11296668216330731 0.5821152081659796 0.11296668216330731 0.5821152081659796 0.12720934135711942 L 0.5821152081659796 0.3428664299226529 C 0.5821152081659796 0.3428664299226529 0.5821152081659796 0.3571090891164651 0.5973359040426287 0.3571090891164651 L 0.5997198684570436 0.3571090891164651 C 0.5997198684570436 0.3571090891164651 0.6063216160661926 0.3568645799457559 0.6069328889929657 0.36261054545742255 L 0.6069328889929657 0.4222707831104727 C 0.6069328889929657 0.4222707831104727 0.6065661252369019 0.4290559125976536 0.6012480507739763 0.43437398706057917 L 0.6013091780666535 0.43437398706057917 C 0.5943802254718711 0.4414771200897049 0.5904605371401259 0.45098072196667355 0.590367392677416 0.46090323208252976 C 0.590367392677416 0.471355999130349 0.5947074304575045 0.48076960220265397 0.6016759418227174 0.4878603681532214 L 0.6016148145300402 0.48792149544589875 C 0.6016148145300402 0.48792149544589875 0.6083388167245437 0.5001469539813598 0.5985584498961749 0.5101107026877606 L 0.5973359040426287 0.5101107026877606 C 0.5973359040426287 0.5101107026877606 0.5821152081659796 0.5101107026877606 0.5821152081659796 0.5243533618815728 L 0.5821152081659796 0.6079143709714493 C 0.5821152081659796 0.6079143709714493 0.5821152081659796 0.6221570301652615 0.5973359040426287 0.6221570301652615 L 0.6689770910604308 0.6221570301652615 C 0.6689770910604308 0.6221570301652615 0.6841977869370799 0.6221570301652615 0.6841977869370799 0.6079143709714493 L 0.6841977869370799 0.5243533618815728 C 0.6841977869370799 0.5243533618815728 0.6841977869370799 0.5101107026877606 0.6689770910604308 0.5101107026877606 Z"
                      fill="#dead73" transform="matrix(1,0,0,1,0,0)" fill-rule="nonzero" />
            </g>
            <g clip-path="url(#a645ed91c-15ca-41d4-b65b-a52f5b30fe5a11041cbc-38fb-4469-bcb6-e3f82847e8c2)">
                <path d=" M 0.5985584498961749 0.8680110013133838 C 0.6083388167245437 0.8779747500197846 0.6016148145300402 0.8902002085552457 0.6016148145300402 0.8902002085552457 L 0.6016759418227174 0.8902613358479231 C 0.594515424586117 0.8974152004058246 0.5904538802625433 0.9070970439014785 0.590367392677416 0.9172184719186147 C 0.590460537140126 0.9271409820344713 0.5943802254718713 0.9366445839114399 0.6013091780666538 0.9437477169405656 L 0.6012480507739763 0.9437477169405656 C 0.6044497463433672 0.9470215434344016 0.6064343209639377 0.9512926931612814 0.6068717617002884 0.9558509208906718 L 0.6069328889929657 0.9558509208906718 L 0.6069328889929657 1.0153277766656899 L 0.6068717617002884 1.015511158543722 C 0.6062604887735153 1.0212571240553885 0.5997198684570436 1.0210126148846794 0.5997198684570436 1.0210126148846794 L 0.5973359040426287 1.0210126148846794 C 0.5973359040426287 1.0210126148846794 0.5821152081659796 1.0210126148846794 0.5821152081659796 1.0352552740784915 L 0.5821152081659796 1.250912362644025 C 0.5821152081659796 1.250912362644025 0.5821152081659796 1.2651550218378373 0.5973359040426287 1.2651550218378373 L 0.5999643776277529 1.2651550218378373 C 0.5999643776277529 1.2651550218378373 0.6069328889929657 1.2653384037158693 0.6069328889929657 1.2710232419348586 L 0.6069328889929657 1.2894225570307276 L 0.6068717617002884 1.2894225570307276 C 0.6068717617002884 1.2894225570307276 0.6071773981636749 1.2952907771277489 0.601981578286104 1.2996308149078375 L 0.601981578286104 1.2999364513712242 C 0.5917184500526289 1.3080692798764717 0.5856760220412494 1.3204012240335252 0.5855383365559088 1.3334953350510648 C 0.5855383365559088 1.3581296340000188 0.6068717617002884 1.3781182587054976 0.6331564975515297 1.3781182587054976 C 0.6594412334027712 1.3781182587054976 0.6807746585471507 1.3581296340000188 0.6807746585471507 1.3334953350510648 C 0.6806369730618103 1.3204012240335254 0.6745945450504308 1.308069279876472 0.6643314168169557 1.2999364513712242 L 0.6643314168169557 1.2996308149078375 C 0.661366615782727 1.2971693131003257 0.6595704269355662 1.293576935406004 0.6593801061100939 1.289728193494114 L 0.6593801061100939 1.2709009873495039 C 0.6595634879881257 1.2653995310085464 0.6663486174753066 1.2651550218378373 0.6663486174753066 1.2651550218378373 L 0.6689770910604308 1.2651550218378373 C 0.6689770910604308 1.2651550218378373 0.6841977869370799 1.2651550218378373 0.6841977869370799 1.250912362644025 L 0.6841977869370799 1.0352552740784915 C 0.6841977869370799 1.0352552740784915 0.6841977869370799 1.0210126148846794 0.6689770910604308 1.0210126148846794 L 0.6665931266460159 1.0210126148846794 C 0.6665931266460159 1.0210126148846794 0.6599913790368669 1.0212571240553885 0.6593801061100939 1.0155111585437218 L 0.6593801061100939 0.9558509208906717 C 0.6593801061100939 0.9558509208906717 0.6597468698661576 0.9490657914034908 0.6650649443290833 0.9437477169405653 L 0.665003817036406 0.9437477169405653 C 0.6719327696311884 0.9366445839114395 0.6758524579629336 0.9271409820344708 0.6759456024256436 0.9172184719186146 C 0.6758855391647561 0.9070916263037522 0.6718199514161161 0.8974001441569938 0.664637053280342 0.8902613358479229 L 0.6646981805730193 0.8902002085552457 C 0.6646981805730193 0.8902002085552457 0.6579741783785158 0.8779747500197845 0.6677545452068847 0.8680110013133837 L 0.6689770910604308 0.8680110013133837 C 0.6689770910604308 0.8680110013133837 0.6841977869370799 0.8680110013133837 0.6841977869370799 0.8537683421195715 L 0.6841977869370799 0.7702073330296951 C 0.6841977869370799 0.7702073330296951 0.6841977869370799 0.755964673835883 0.6689770910604308 0.755964673835883 L 0.5973359040426287 0.755964673835883 C 0.5973359040426287 0.755964673835883 0.5821152081659796 0.755964673835883 0.5821152081659796 0.7702073330296951 L 0.5821152081659796 0.8537683421195716 C 0.5821152081659796 0.8537683421195716 0.5821152081659796 0.8680110013133838 0.5973359040426287 0.8680110013133838 Z"
                      fill="#dead73" transform="matrix(1,0,0,1,0,0)" fill-rule="nonzero" />
            </g>
            <g clip-path="url(#a645ed91c-15ca-41d4-b65b-a52f5b30fe5a11041cbc-38fb-4469-bcb6-e3f82847e8c2)">
                <path d=" M 0.48828481390631584 0.5689151582433284 C 0.4742255365905356 0.5716658864138072 0.4665234977131951 0.5599294462197645 0.4665234977131951 0.5599294462197645 L 0.4664623704205178 0.5599905735124419 C 0.4634245188147489 0.5502038666700414 0.4567229680641075 0.5419692814339592 0.44775741886126236 0.537006711465775 C 0.43874421477923475 0.5319152429827733 0.42821134934018573 0.5302031105348621 0.4180495546200919 0.5321776553442679 L 0.4181106819127692 0.5320554007589133 C 0.410469770328106 0.5336447103685232 0.40417365918234355 0.530404963856626 0.40417365918234355 0.530404963856626 L 0.35007600516292825 0.49978019022529596 L 0.3498926232848963 0.4996579356399414 C 0.3450024398707119 0.4962348072500123 0.3486089501386729 0.4910389873724413 0.3486089501386729 0.4910389873724413 L 0.349831495992219 0.4890829140067675 C 0.349831495992219 0.4890829140067675 0.35765578945491405 0.4767963281786291 0.34469680340732534 0.4694610530573525 L 0.1487227030838841 0.3584538895553658 C 0.1487227030838841 0.3584538895553658 0.13576371703629533 0.35111861443408915 0.12793942357360025 0.3634052002622275 L 0.12659462313469952 0.3654835282132559 C 0.12659462313469952 0.3654835282132559 0.12280473098870658 0.3710461118468907 0.11767003840381292 0.36811200179838005 L 0.10092116021023126 0.3586372714333977 L 0.10092116021023126 0.3585761441407204 C 0.10092116021023126 0.3585761441407204 0.09548083116195102 0.3558254159702417 0.09419715801572762 0.3493459229464473 L 0.09389152155234111 0.34922366836109275 C 0.09148720073357716 0.33627868575429537 0.08344394216117607 0.3250763757648788 0.07194682348118842 0.31866002202244 C 0.049535042453081934 0.30594633361602563 0.02110765617318531 0.3127261985128273 0.006846256779858147 0.33418635436247557 C 0.0003583042285662191 0.34435061139179446 -0.0016016564410359397 0.3567583679960615 0.0014374322484192671 0.3684275405975573 C 0.004476520937874474 0.38009671319905314 0.012239860375466502 0.3899721590398162 0.02286160746131222 0.3956804107958448 C 0.03474420861106576 0.4023043683145058 0.048836861106126 0.4037202706060032 0.061799692896755826 0.39959255752719236 L 0.06210532936014233 0.3997759394052243 C 0.06593377173334151 0.39863913933435813 0.07005407912773352 0.39903363685084253 0.07359726038347575 0.40087623067341577 L 0.09077402962579854 0.41059547020910736 C 0.09566421303998301 0.4135907075502953 0.09242446652808582 0.41915329118393013 0.09242446652808582 0.41915329118393013 L 0.0910185387965078 0.4212927464276358 C 0.0910185387965078 0.4212927464276358 0.0831942453338127 0.4335793322557742 0.09615323138140147 0.44091460737705085 L 0.2921273317048427 0.5519828981717149 C 0.2921273317048427 0.5519828981717149 0.30508631775243145 0.5593181732929915 0.31291061121512653 0.5470315874648531 L 0.3141331570686726 0.5450755140991793 C 0.3141331570686726 0.5450755140991793 0.3173729035805698 0.5396963123435765 0.3228743599215273 0.5421414040506687 L 0.37709426852629724 0.5728884322673533 C 0.37709426852629724 0.5728884322673533 0.38308474320867314 0.576617197120669 0.3852241984523789 0.5837079630712364 L 0.3852241984523789 0.5836468357785591 C 0.3883747974068891 0.5931935897934006 0.39498124385261846 0.6012172607241874 0.4037457681336024 0.6061416794838075 C 0.41296397463763257 0.6112862049242663 0.4237208580841885 0.612956124330284 0.4340649053015459 0.6108484810199599 L 0.4340649053015459 0.6109707356053146 C 0.4340649053015459 0.6109707356053146 0.44861320095874463 0.6118265177027968 0.45264760227544676 0.6248466310430629 L 0.4520363293486737 0.6258246677258998 C 0.4520363293486737 0.6258246677258998 0.4441509085933013 0.6381112535540382 0.45710989464089 0.6454465286753148 L 0.5330911194387807 0.6884801427201378 C 0.5330911194387807 0.6884801427201378 0.5459889781936922 0.6958154178414145 0.5538132716563873 0.6835288320132761 L 0.5907341564334798 0.6256412858478678 C 0.5907341564334798 0.6256412858478678 0.5985584498961749 0.6133547000197295 0.5856605911412635 0.6060194248984528 L 0.5096793663433729 0.5629858108536299 C 0.5096793663433729 0.5629858108536299 0.496720380295784 0.5556505357323531 0.48889608683308894 0.5679371215604916 Z"
                      fill="#dead73" transform="matrix(1,0,0,1,0,0)" fill-rule="nonzero" />
            </g>
            <g clip-path="url(#a645ed91c-15ca-41d4-b65b-a52f5b30fe5a11041cbc-38fb-4469-bcb6-e3f82847e8c2)">
                <path d=" M 0.7779670539040664 0.809206545757816 C 0.7920263312198467 0.8064558175873372 0.7997283700971871 0.8181922577813799 0.7997283700971871 0.8181922577813799 L 0.7997894973898645 0.8181311304887026 C 0.8028273489956335 0.8279178373311031 0.8095288997462747 0.8361524225671852 0.8184944489491199 0.8411149925353696 C 0.8275076530311476 0.8462064610183712 0.8380405184701966 0.8479185934662824 0.8482023131902904 0.8459440486568767 L 0.8481411858976131 0.8460663032422312 C 0.8557820974822763 0.8445381209252987 0.8620782086280387 0.8477167401445185 0.8620782086280387 0.8477167401445185 L 0.916175862647454 0.8783415137758485 L 0.916359244525486 0.8784637683612031 C 0.9212494279396705 0.8818868967511323 0.9176429176717094 0.8870827166287032 0.9176429176717094 0.8870827166287032 L 0.9164203718181633 0.8890387899943769 C 0.9164203718181633 0.8890387899943769 0.9085960783554682 0.9013253758225154 0.921555064403057 0.908660650943792 L 1.1175291647264982 1.0196678144457787 C 1.1175291647264982 1.0196678144457787 1.130488150774087 1.0270030895670554 1.138312444236782 1.0147165037389168 L 1.1396572446756827 1.0126381757878886 C 1.1396572446756827 1.0126381757878886 1.1434471368216756 1.0070755921542538 1.1485818294065693 1.0100097022027643 L 1.1653307076001511 1.0194844325677468 L 1.1653307076001511 1.019545559860424 C 1.1653307076001511 1.019545559860424 1.1707710366484314 1.0222962880309028 1.1720547097946548 1.0287757810546971 L 1.1723603462580412 1.0288980356400519 C 1.174764667076805 1.0418430182468492 1.1828079256492061 1.0530453282362657 1.1943050443291938 1.0594616819787044 C 1.2167168253573004 1.072175370385119 1.2451442116371971 1.0653955054883173 1.259405611030524 1.043935349638669 C 1.265893563581816 1.03377109260935 1.2678535242514182 1.0213633360050831 1.264814435561963 1.0096941634035872 C 1.2617753468725077 0.9980249908020914 1.2540120074349157 0.9881495449613282 1.24339026034907 0.9824412932052997 C 1.2315076591993166 0.9758173356866386 1.2174150067042562 0.9744014333951413 1.2044521749136263 0.9785291464739521 L 1.2041465384502401 0.9783457645959203 C 1.2003180960770408 0.9794825646667863 1.1961977886826487 0.9790880671503019 1.1926546074269064 0.9772454733277287 L 1.1754778381845838 0.9675262337920372 C 1.1705876547703993 0.9645309964508492 1.1738274012822965 0.9589684128172143 1.1738274012822965 0.9589684128172143 L 1.1752333290138746 0.9568289575735086 C 1.1752333290138746 0.9568289575735086 1.1830576224765694 0.9445423717453703 1.1700986364289807 0.9372070966240936 L 0.9741245361055396 0.8261388058294297 C 0.9741245361055396 0.8261388058294297 0.9611655500579509 0.818803530708153 0.9533412565952557 0.8310901165362914 L 0.9521187107417097 0.8330461899019651 C 0.9521187107417097 0.8330461899019651 0.9488789642298125 0.838425391657568 0.9433775078888549 0.8359802999504758 L 0.8891575992840851 0.8052332717337912 C 0.8891575992840851 0.8052332717337912 0.8831671246017091 0.8015045068804755 0.8810276693580034 0.7944137409299081 L 0.8810276693580034 0.7944748682225855 C 0.8778770704034932 0.7849281142077439 0.8712706239577638 0.7769044432769571 0.8625060996767799 0.771980024517337 C 0.8532878931727497 0.7668354990768781 0.8425310097261938 0.7651655796708604 0.8321869625088364 0.7672732229811846 L 0.8321869625088364 0.76715096839583 C 0.8321869625088364 0.76715096839583 0.8176386668516376 0.7662951862983477 0.8136042655349355 0.7532750729580815 L 0.8142155384617086 0.7522970362752447 C 0.8142155384617086 0.7522970362752447 0.8221009592170809 0.7400104504471062 0.8091419731694922 0.7326751753258296 L 0.7331607483716015 0.6896415612810066 C 0.7331607483716015 0.6896415612810066 0.72026288961669 0.68230628615973 0.712438596153995 0.6945928719878683 L 0.6755177113769024 0.7524804181532766 C 0.6755177113769024 0.7524804181532766 0.6676934179142074 0.7647670039814151 0.6805912766691188 0.7721022791026917 L 0.7565725014670095 0.8151358931475147 C 0.7565725014670095 0.8151358931475147 0.7695314875145982 0.8224711682687913 0.7773557809772934 0.810184582440653 Z"
                      fill="#dead73" transform="matrix(1,0,0,1,0,0)" fill-rule="nonzero" />
            </g>
            <g clip-path="url(#a645ed91c-15ca-41d4-b65b-a52f5b30fe5a11041cbc-38fb-4469-bcb6-e3f82847e8c2)">
                <path d=" M 0.7779670539040664 0.5689151582433284 C 0.7920263312198467 0.5716658864138072 0.7997283700971871 0.5599294462197645 0.7997283700971871 0.5599294462197645 L 0.7997894973898645 0.5599905735124419 C 0.8028273489956335 0.5502038666700414 0.8095288997462747 0.5419692814339592 0.8184944489491199 0.537006711465775 C 0.8275076530311476 0.5319152429827733 0.8380405184701966 0.5302031105348621 0.8482023131902904 0.5321776553442679 L 0.8481411858976131 0.5320554007589133 C 0.8528453120871081 0.5329717706630112 0.8577182283274807 0.5323947147924408 0.8620782086280387 0.530404963856626 L 0.916175862647454 0.49978019022529596 L 0.916359244525486 0.4996579356399414 C 0.9212494279396705 0.4962348072500123 0.9176429176717094 0.4910389873724413 0.9176429176717094 0.4910389873724413 L 0.9164203718181633 0.4890829140067675 C 0.9164203718181633 0.4890829140067675 0.9085960783554682 0.4767963281786291 0.921555064403057 0.4694610530573525 L 1.1175291647264982 0.3584538895553658 C 1.1175291647264982 0.3584538895553658 1.130488150774087 0.35111861443408915 1.138312444236782 0.3634052002622275 L 1.1396572446756827 0.3654835282132559 C 1.1396572446756827 0.3654835282132559 1.1434471368216756 0.3710461118468907 1.1485818294065693 0.36811200179838005 L 1.1653307076001511 0.3586372714333977 L 1.1653307076001511 0.3585761441407204 C 1.1653307076001511 0.3585761441407204 1.1707710366484314 0.3558254159702417 1.1720547097946548 0.3493459229464473 L 1.1723603462580412 0.34922366836109275 C 1.1746220560871015 0.33693708253295435 1.18214071308641 0.32556740609497553 1.1943050443291938 0.31866002202244 C 1.2167168253573004 0.30594633361602563 1.2451442116371971 0.3127261985128273 1.259405611030524 0.33418635436247557 C 1.265893563581816 0.34435061139179446 1.2678535242514182 0.3567583679960615 1.264814435561963 0.3684275405975573 C 1.2617753468725077 0.38009671319905314 1.2540120074349157 0.3899721590398162 1.24339026034907 0.3956804107958448 C 1.2315076591993166 0.4023043683145058 1.2174150067042562 0.4037202706060032 1.2044521749136263 0.39959255752719236 L 1.2041465384502401 0.3997759394052243 C 1.2003180960770408 0.39863913933435813 1.1961977886826487 0.39903363685084253 1.1926546074269064 0.40087623067341577 L 1.1754778381845838 0.41059547020910736 C 1.1705876547703993 0.4135907075502953 1.1738274012822965 0.41915329118393013 1.1738274012822965 0.41915329118393013 L 1.1752333290138746 0.4212927464276358 C 1.1752333290138746 0.4212927464276358 1.1830576224765694 0.4335793322557742 1.1700986364289807 0.44091460737705085 L 0.9741245361055396 0.5519828981717149 C 0.9741245361055396 0.5519828981717149 0.9611655500579509 0.5593181732929915 0.9533412565952557 0.5470315874648531 L 0.9521187107417097 0.5450755140991793 C 0.9521187107417097 0.5450755140991793 0.9488789642298125 0.5396963123435765 0.9433775078888549 0.5421414040506687 L 0.8891575992840851 0.5728884322673533 C 0.8891575992840851 0.5728884322673533 0.8831671246017091 0.576617197120669 0.8810276693580034 0.5837079630712364 L 0.8810276693580034 0.5836468357785591 C 0.8778770704034932 0.5931935897934006 0.8712706239577638 0.6012172607241874 0.8625060996767799 0.6061416794838075 C 0.8532878931727497 0.6112862049242663 0.8425310097261938 0.612956124330284 0.8321869625088364 0.6108484810199599 L 0.8321869625088364 0.6109707356053146 C 0.8321869625088364 0.6109707356053146 0.8176386668516376 0.6118265177027968 0.8136042655349355 0.6248466310430629 L 0.8142155384617086 0.6258246677258998 C 0.8142155384617086 0.6258246677258998 0.8221009592170809 0.6381112535540382 0.8091419731694922 0.6454465286753148 L 0.7331607483716015 0.6884801427201378 C 0.7331607483716015 0.6884801427201378 0.72026288961669 0.6958154178414145 0.712438596153995 0.6835288320132761 L 0.6755177113769024 0.6256412858478678 C 0.6755177113769024 0.6256412858478678 0.6676934179142074 0.6133547000197295 0.6805912766691188 0.6060194248984528 L 0.7565725014670095 0.5629858108536299 C 0.7565725014670095 0.5629858108536299 0.7695314875145982 0.5556505357323531 0.7773557809772934 0.5679371215604916 Z"
                      fill="#dead73" transform="matrix(1,0,0,1,0,0)" fill-rule="nonzero" />
            </g>
            <g clip-path="url(#a645ed91c-15ca-41d4-b65b-a52f5b30fe5a11041cbc-38fb-4469-bcb6-e3f82847e8c2)">
                <path d=" M 0.48828481390631584 0.809206545757816 C 0.4742255365905356 0.8064558175873372 0.4665234977131951 0.8181922577813799 0.4665234977131951 0.8181922577813799 L 0.4664623704205178 0.8181311304887026 C 0.4634245188147489 0.8279178373311031 0.4567229680641075 0.8361524225671852 0.44775741886126236 0.8411149925353696 C 0.43874421477923475 0.8462064610183712 0.42821134934018573 0.8479185934662824 0.4180495546200919 0.8459440486568767 L 0.4181106819127692 0.8460663032422312 C 0.410469770328106 0.8445381209252987 0.40417365918234355 0.8477167401445185 0.40417365918234355 0.8477167401445185 L 0.35007600516292825 0.8783415137758485 L 0.3498926232848963 0.8784637683612031 C 0.3450024398707119 0.8818868967511323 0.3486089501386729 0.8870827166287032 0.3486089501386729 0.8870827166287032 L 0.349831495992219 0.8890387899943769 C 0.349831495992219 0.8890387899943769 0.35765578945491405 0.9013253758225154 0.34469680340732534 0.908660650943792 L 0.1487227030838841 1.0196678144457787 C 0.1487227030838841 1.0196678144457787 0.13576371703629533 1.0270030895670554 0.12793942357360025 1.0147165037389168 L 0.12659462313469952 1.0126381757878886 C 0.12659462313469952 1.0126381757878886 0.12280473098870658 1.0070755921542538 0.11767003840381292 1.0100097022027643 L 0.10092116021023126 1.0194844325677468 L 0.10092116021023126 1.019545559860424 C 0.10092116021023126 1.019545559860424 0.09548083116195102 1.0222962880309028 0.09419715801572762 1.0287757810546971 L 0.09389152155234111 1.0288980356400519 C 0.09148720073357716 1.0418430182468492 0.08344394216117607 1.0530453282362657 0.07194682348118842 1.0594616819787044 C 0.049535042453081934 1.072175370385119 0.02110765617318531 1.0653955054883173 0.006846256779858147 1.043935349638669 C 0.0003583042285662191 1.03377109260935 -0.0016016564410359397 1.021363336005083 0.0014374322484192671 1.0096941634035872 C 0.004476520937874474 0.9980249908020914 0.012239860375466502 0.9881495449613282 0.02286160746131222 0.9824412932052997 C 0.03508706599677328 0.9755339091327642 0.04920747060523088 0.9746169997426045 0.061799692896755826 0.9785291464739521 L 0.06210532936014233 0.9783457645959203 C 0.06593377173334151 0.9794825646667863 0.07005407912773352 0.9790880671503019 0.07359726038347575 0.9772454733277287 L 0.09077402962579854 0.9675262337920372 C 0.09566421303998301 0.9645309964508492 0.09242446652808582 0.9589684128172143 0.09242446652808582 0.9589684128172143 L 0.0910185387965078 0.9568289575735086 C 0.0910185387965078 0.9568289575735086 0.0831942453338127 0.9445423717453703 0.09615323138140147 0.9372070966240936 L 0.29212733170484273 0.8261388058294297 C 0.29212733170484273 0.8261388058294297 0.3050863177524315 0.818803530708153 0.31291061121512653 0.8310901165362914 L 0.3141331570686727 0.8330461899019651 C 0.3141331570686727 0.8330461899019651 0.31737290358056985 0.838425391657568 0.32287435992152735 0.8359802999504758 L 0.3770942685262973 0.8052332717337912 C 0.3770942685262973 0.8052332717337912 0.3830847432086732 0.8015045068804755 0.3852241984523789 0.7944137409299081 L 0.3852241984523789 0.7944748682225855 C 0.3883747974068892 0.7849281142077439 0.3949812438526185 0.7769044432769571 0.40374576813360247 0.771980024517337 C 0.41296397463763257 0.7668354990768781 0.4237208580841885 0.7651655796708604 0.43406490530154596 0.7672732229811846 L 0.43406490530154596 0.76715096839583 C 0.43406490530154596 0.76715096839583 0.4486132009587447 0.7662951862983477 0.4526476022754468 0.7532750729580815 L 0.45203632934867377 0.7522970362752447 C 0.45203632934867377 0.7522970362752447 0.44415090859330136 0.7400104504471062 0.4571098946408901 0.7326751753258296 L 0.5330911194387807 0.6896415612810066 C 0.5330911194387807 0.6896415612810066 0.5459889781936923 0.68230628615973 0.5538132716563873 0.6945928719878683 L 0.5907341564334798 0.7524804181532766 C 0.5907341564334798 0.7524804181532766 0.598558449896175 0.7647670039814151 0.5856605911412635 0.7721022791026917 L 0.5096793663433729 0.8151358931475147 C 0.5096793663433729 0.8151358931475147 0.496720380295784 0.8224711682687913 0.48889608683308894 0.810184582440653 Z"
                      fill="#dead73" transform="matrix(1,0,0,1,0,0)" fill-rule="nonzero" />
            </g>
        </g>
    </g>
    <defs>
        <clipPath id="SvgjsClipPath1001">
            <path d=" M 0 0 h 1.2663008790320878 v 1.3780724131213762 h -1.2663008790320878 Z" />
        </clipPath>
        <clipPath id="a645ed91c-15ca-41d4-b65b-a52f5b30fe5a11041cbc-38fb-4469-bcb6-e3f82847e8c2">
            <path d=" M -1.1247011136035993e-16 1.3781182587054979 L 1.2663129951030598 1.3781182587054979 L 1.2663129951030598 0.0000034452956465656625 L -1.1247011136035993e-16 0.0000034452956465656625 Z" />
        </clipPath>
    </defs>
</svg>